<?xml version="1.0" encoding="utf-8"?>
<!-- Generator: Adobe Illustrator 15.0.0, SVG Export Plug-In  -->
<!DOCTYPE svg PUBLIC "-//W3C//DTD SVG 1.1//EN" "http://www.w3.org/Graphics/SVG/1.1/DTD/svg11.dtd" [
	<!ENTITY ns_flows "http://ns.adobe.com/Flows/1.0/">
]>
<svg version="1.1"
	 xmlns="http://www.w3.org/2000/svg" xmlns:xlink="http://www.w3.org/1999/xlink" xmlns:a="http://ns.adobe.com/AdobeSVGViewerExtensions/3.0/"
	 x="0px" y="0px" width="901px" height="767px" viewBox="-0.318 -0.488 901 767" enable-background="new -0.318 -0.488 901 767"
	 xml:space="preserve">
<defs>
</defs>
<path fill-rule="evenodd" clip-rule="evenodd" d="M684,0c5.333,0,10.667,0,16,0c50.484,2.4,82.659,30.572,110,60
	c24.587,26.463,60.145,59.178,73,97c7.507,22.086,7.463,49.809,8,77c1.598,80.814,6.166,166.117,9,246c0,15.333,0,30.667,0,46
	c-7.919,48.566-32.848,79.001-67,99c-36.983,21.657-87.26,19.641-144,21c-86.925,2.082-187.54,6.146-279,10
	c-14.038,0.592-29.063-1.602-40,1c-10.781,2.564-26.684,19.266-37,27c-37.286,27.954-71.217,54.425-108,82
	c-5.847-2.468-12.683-8.263-19-14c-4.283-3.89-15.39-12.504-17-18c-3.244-11.071-1.078-25.6-2-38c-0.909-12.232-2.227-24.313-3-37
	c-78.024-34.007-153.109-60.992-161-165C15.627,396.832,8.143,291.939,0,191c0-5.333,0-10.667,0-16
	C5.414,116.736,40.097,69.543,90,50c26.329-10.311,59.449-10.365,94-13C349.173,24.404,525.148,12.646,684,0z M291,629
	c8.713-7.145,21.464-20.33,30-23c8.126-2.543,22.529-2.188,35-3c87.57-5.705,170.727-11.476,255-18c46.981-3.638,104.8-3.088,141-14
	c38.417-11.58,67.204-38.211,81-75c13.794-36.784,4.557-94.056,1-140c-6.033-77.922-9.747-145.31-16-218
	c-6.616-76.905-57.736-123.263-143-119c-121.533,6.076-257.018,17.745-379,27c-30.185,2.29-62.503,4.562-94,7
	c-32.474,2.514-66.421,1.58-93,9c-48.191,13.454-87.133,54.324-91,112c-2.342,34.929,4.608,69.067,7,103
	c2.098,29.763,4.265,68.13,7,104c5.075,66.543,2.874,146.599,34,187c25.588,33.213,71.155,56.851,133,47
	c1.178,28.822,3.491,56.509,6,84C234.063,678.67,261.808,652.937,291,629z"/>
</svg>
