<?xml version="1.0" encoding="utf-8"?>
<!-- Generator: Adobe Illustrator 15.0.0, SVG Export Plug-In  -->
<!DOCTYPE svg PUBLIC "-//W3C//DTD SVG 1.1//EN" "http://www.w3.org/Graphics/SVG/1.1/DTD/svg11.dtd" [
	<!ENTITY ns_flows "http://ns.adobe.com/Flows/1.0/">
]>
<svg version="1.1"
	 xmlns="http://www.w3.org/2000/svg" xmlns:xlink="http://www.w3.org/1999/xlink" xmlns:a="http://ns.adobe.com/AdobeSVGViewerExtensions/3.0/"
	 x="0px" y="0px" width="112px" height="102px" viewBox="-0.234 -0.581 112 102" enable-background="new -0.234 -0.581 112 102"
	 xml:space="preserve">
<defs>
</defs>
<path fill="#333333" d="M1.115,56.573c-0.23-6.1-0.464-12.2-0.689-18.301c-0.109-2.934-0.239-5.868-0.293-8.803
	c-0.024-1.352,0.157-2.706,0.161-4.059c0.004-1.459-0.084-2.919-0.146-4.378C0.109,20.14,0.001,19.25,0,18.359
	c-0.006-4.252,1.763-7.578,5.12-10.191c3.264-2.54,6.798-4.442,10.836-5.394C20.927,1.604,25.99,1.008,31.063,0.7
	c6.424-0.392,12.867-0.497,19.305-0.648c3.612-0.085,7.229-0.048,10.843-0.006c5.783,0.067,10.729,2.247,15.195,5.856
	c2.181,1.763,3.329,3.89,3.709,6.586c0.362,2.571,0.796,5.133,1.239,7.691c0.196,1.13,0.481,1.381,1.579,1.268
	c2.495-0.258,4.942-0.092,7.425,0.299c5.228,0.823,9.774,3.171,13.419,6.782c3.612,3.578,6.243,7.884,7.463,13.066
	c0.939,3.987,0.308,7.722-0.884,11.316c-1.32,3.986-4.161,6.944-8.348,8.26c-1.181,0.371-2.406,0.657-3.634,0.816
	c-4.019,0.52-8.036,1.103-12.115,0.76c-1.387-0.116-1.894,0.277-1.967,1.688c-0.118,2.254-0.019,4.52-0.118,6.775
	c-0.113,2.588-0.186,5.195-0.566,7.75c-0.446,2.988-2.036,5.438-4.156,7.605c-3.31,3.384-7.359,5.607-11.563,7.575
	c-6.295,2.946-13.034,4.462-19.829,5.633c-5.005,0.862-10.049,1.667-15.174,1.339c-0.451-0.029-0.921,0.044-1.354-0.055
	c-6.04-1.374-12.255-2.068-17.884-4.993c-3.805-1.976-6.812-4.804-9.477-8.066C3.225,86.839,2.604,85.503,2.442,84
	c-0.192-1.797-0.44-3.594-0.508-5.397C1.657,71.259,1.439,63.915,1.2,56.57C1.172,56.571,1.144,56.572,1.115,56.573z M79.957,48.156
	c-0.2,0.603-0.346,1.235-0.632,1.794c-0.103,0.2-0.544,0.228-0.831,0.334c0.011-0.267-0.088-0.637,0.051-0.783
	c0.446-0.471,0.979-0.861,1.479-1.283c0.473-0.611,0.925-1.241,1.43-1.824c0.29-0.335,0.831-0.536,0.962-0.903
	c0.166-0.468,0.031-1.043,0.026-1.572c-0.391,0.094-0.859,0.083-1.159,0.302c-0.992,0.727-1.916,1.548-2.894,2.298
	c-0.095,0.073-0.384-0.082-0.563-0.167c-0.041-0.019-0.05-0.236,0.002-0.293c0.669-0.746,1.328-1.502,2.038-2.208
	c0.637-0.631,1.413-1.138,1.974-1.825c0.31-0.38,0.305-1.018,0.441-1.539c-0.509-0.126-1.019-0.252-1.527-0.378
	c-0.506,1.428-1.558,2.37-2.817,3.108c-0.127,0.074-0.456,0.002-0.546-0.115c-0.096-0.124-0.102-0.456-0.002-0.568
	c0.944-1.069,1.896-2.144,3.433-2.36c0.341-0.694,0.725-1.372,0.995-2.093c0.098-0.262,0.026-0.795-0.153-0.907
	c-0.341-0.211-0.88-0.38-1.218-0.253c-0.496,0.187-0.936,0.605-1.312,1.006c-0.457,0.488-0.802,1.077-1.243,1.582
	c-0.101,0.115-0.457,0.151-0.579,0.063c-0.127-0.091-0.222-0.445-0.145-0.57c0.85-1.375,2.03-2.42,3.427-3.207
	c0.753-0.424,1.235-0.996,1.248-1.862c0.005-0.305-0.102-0.743-0.313-0.881c-0.209-0.137-0.718-0.092-0.918,0.08
	c-0.852,0.727-1.628,1.542-2.463,2.291c-0.099,0.088-0.466,0.026-0.577-0.091c-0.107-0.113-0.106-0.41-0.042-0.585
	c0.073-0.2,0.264-0.36,0.414-0.527c0.546-0.609,1.479-0.927,1.76-2.406c-1.026,0.691-1.639,1.125-2.276,1.517
	c-0.162,0.1-0.406,0.067-0.613,0.095c0.027-0.3-0.063-0.713,0.101-0.882c0.937-0.973,1.954-1.868,2.886-2.845
	c0.131-0.137,0.002-0.608-0.126-0.867c-0.066-0.137-0.44-0.261-0.588-0.194c-0.612,0.274-1.172,0.666-1.79,0.922
	c-0.246,0.102-0.593-0.037-0.894-0.067c0.111-0.289,0.164-0.623,0.348-0.856c0.275-0.352,0.696-0.593,0.959-0.953
	c0.799-1.092,0.302-2.093-1.039-2.47c-0.924-0.26-1.501,0.05-2.073,0.686c-1.682,1.868-3.64,3.357-5.939,4.416
	c-3.095,1.425-6.268,2.601-9.646,3.11c-3.686,0.556-7.382,1.048-11.081,1.507c-2.578,0.32-5.175,0.501-7.755,0.81
	c-6.519,0.777-13.061,1.098-19.622,1.089c-3.931-0.005-7.658-0.966-11.029-2.901c-3.02-1.733-6.055-3.618-7.01-7.392
	c-0.047-0.186-0.25-0.401-0.429-0.465c-0.151-0.053-0.484,0.043-0.541,0.165c-0.139,0.297-0.228,0.647-0.225,0.974
	c0.046,5.425-0.004,10.854,0.196,16.274c0.292,7.905,0.798,15.802,1.152,23.705c0.218,4.852,0.067,9.716,0.594,14.559
	c0.239,2.204,0.935,4.121,2.354,5.865c3.08,3.78,6.905,6.487,11.43,8.198c4.558,1.723,9.307,2.777,14.094,3.607
	c1.767,0.307,3.625,0.442,5.401,0.264c3.929-0.395,7.854-0.916,11.739-1.616c3.441-0.62,6.827-1.552,10.238-2.343
	c5.54-1.285,10.757-3.252,15.509-6.505c2.854-1.953,5.202-4.253,7.234-7.024c1.164-1.589,1.457-3.266,1.48-5.076
	c0.006-0.494-0.24-1.124-0.592-1.461c-0.69-0.664-0.502-1.098,0.065-1.672c0.361-0.365,0.313-0.652-0.271-0.949
	c-1.041-0.527-1.02-0.683-0.365-1.349c0.465-0.473,0.994-0.899,1.368-1.437c0.377-0.54,0.005-1.357-0.673-1.613
	c-0.462-0.175-1.273,0.172-1.235-0.681c0.013-0.276,0.599-0.54,0.938-0.785c0.272-0.196,0.657-0.295,0.836-0.547
	c0.237-0.335,0.506-0.815,0.434-1.166c-0.143-0.696-0.741-0.722-1.34-0.526c-0.215,0.07-0.431,0.182-0.647,0.188
	c-0.205,0.005-0.48-0.046-0.599-0.182c-0.089-0.102-0.053-0.475,0.058-0.562c1.105-0.872,1.318-1.866,0.222-2.815
	c-1.626-1.408-0.718-3.438-1.359-5.082c-0.099-0.251,0.301-0.797,0.593-1.08c0.724-0.702,1.574-1.28,2.254-2.018
	c0.226-0.244,0.25-0.932,0.063-1.22c-0.161-0.249-0.791-0.372-1.146-0.282c-0.925,0.234-1.566,1.199-3.165,1.262
	c0.853-0.867,1.315-1.457,1.894-1.896c0.713-0.542,1.563-0.904,2.279-1.443c0.629-0.474,0.58-1.261,0.315-1.867
	c-0.314-0.721-0.912-0.309-1.43-0.112C80.829,47.978,80.386,48.048,79.957,48.156z M69.144,60.041
	c-0.272,0.505-0.516,1.128-0.904,1.641c-1.225,1.617-2.55,3.16-3.746,4.797c-0.732,1.001-0.484,1.663,0.632,2.094
	c0.944,0.363,1.938,0.613,2.855,1.034c0.948,0.436,1.188,1.243,0.827,2.267c-0.075,0.213-0.143,0.438-0.267,0.62
	c-1.843,2.701-2.793,5.877-4.668,8.581c-1.207,1.739-1.996,3.768-3.001,5.65c-0.207,0.388-0.535,0.714-0.829,1.05
	c-0.049,0.056-0.244,0.062-0.309,0.009c-0.154-0.123-0.402-0.317-0.38-0.442c0.116-0.662,0.292-1.315,0.47-1.964
	c0.867-3.154,1.791-6.293,2.592-9.463c0.435-1.719,0.046-2.307-1.627-2.668c-1.318-0.285-2.679-0.365-4.011-0.594
	c-1.085-0.185-1.464-1.018-0.94-2.006c0.263-0.496,0.595-0.957,0.898-1.432c2.063-3.231,4.128-6.461,6.191-9.691
	c0.121-0.19,0.24-0.383,0.348-0.581c1.476-2.733,3.244-1.988,5.426,0.022C68.921,59.167,68.957,59.569,69.144,60.041z
	 M15.242,77.617c0.319-0.66,0.553-1.298,0.911-1.855c0.854-1.325,1.802-2.592,2.645-3.924c0.66-1.043,0.558-1.631-0.392-2.305
	c-1.194-0.847-2.44-1.621-3.672-2.415c-0.567-0.366-1.171-0.677-1.727-1.059c-2.484-1.707-2.479-1.711-0.381-3.754
	c0.808-0.786,1.606-1.582,2.408-2.373c1.339-1.319,1.443-1.327,2.703-0.187c2.178,1.973,4.273,4.016,5.8,6.566
	c0.404,0.677,0.878,1.312,1.324,1.962c1.504,2.191,1.505,2.629-0.185,4.654c-0.793,0.951-1.677,1.826-2.49,2.763
	c-0.558,0.644-0.726,1.389-0.355,2.198c0.889,1.942,1.778,3.882,2.671,5.821c0.753,1.637,1.531,3.263,2.244,4.916
	c0.106,0.244-0.083,0.617-0.136,0.932c-0.383-0.105-0.783-0.172-1.141-0.333c-0.184-0.083-0.301-0.327-0.429-0.513
	c-1.554-2.245-3.574-4.045-5.529-5.919c-1.291-1.239-2.429-2.642-3.604-3.997C15.63,78.473,15.478,78.042,15.242,77.617z
	 M23.574,70.361c0.242-0.226,0.398-0.348,0.388-0.365c-0.393-0.625-0.8-1.241-1.216-1.85c-0.01-0.014-0.183,0.047-0.234,0.109
	c-0.063,0.076-0.141,0.229-0.106,0.283C22.776,69.143,23.168,69.734,23.574,70.361z M49.246,4.486
	c4.409,0.029,8.821,0.042,13.139,1.121c2.528,0.631,5.057,1.292,7.075,3.08c0.841,0.745,1.714,1.494,2.384,2.383
	c1.522,2.017,2.103,4.216,0.931,6.662c-0.829,1.728-1.461,3.559-2.378,5.235c-1.021,1.866-2.645,2.887-4.828,3.326
	c-4.536,0.911-9.019,2.081-13.522,3.147c-7.51,1.777-15.161,2.493-22.84,2.809c-5.203,0.215-10.368-0.535-15.519-1.264
	c-4.579-0.647-7.172-3.478-8.604-7.629c-0.257-0.745-0.352-1.544-0.584-2.299c-1.268-4.129,0.627-8.487,5.198-10.56
	c4.304-1.952,8.841-3.278,13.613-3.76c4.828-0.486,9.624-1.288,14.445-1.849c2.233-0.26,4.495-0.309,6.746-0.392
	C46.082,4.44,47.665,4.486,49.246,4.486z M8.581,17.22c-0.221-0.511-0.339-0.699-0.383-0.902c-0.208-0.962,0.769-1.931-0.01-2.895
	c-1.482,0.428-0.539,1.95-1.253,2.809c-0.423,0.509-0.33,1.447-0.479,2.24c-0.216-0.124-0.32-0.156-0.381-0.227
	c-0.069-0.082-0.092-0.201-0.149-0.296c-0.354-0.589-0.438-0.194-0.461,0.148c-0.053,0.787-0.105,1.576-0.089,2.363
	c0.017,0.813,0.726,1.193,1.408,0.701c3.275-2.361,6.991-3.694,10.871-4.545c2.754-0.603,5.565-0.966,8.364-1.343
	c4.367-0.587,8.74-1.086,13.17-0.729c2.362,0.19,4.74,0.174,7.108,0.312c8.268,0.48,16.316,1.884,23.824,5.802
	c0.968-1.002,1.253-2.357,1.747-3.599c0.537-1.352,0.352-2.68-0.354-3.915c-1.271-2.221-3.041-3.922-5.46-4.842
	c-4.48-1.704-9.208-2.482-13.922-2.63c-4.487-0.141-9.032-0.384-13.526,0.351c-1.441,0.236-2.931,0.17-4.132,1.254
	c-0.185,0.168-0.756-0.137-1.149-0.141c-0.308-0.003-0.811,0.032-0.892,0.206c-0.659,1.415-1.391,0.914-2.236,0.21
	c-0.119-0.099-0.656,0.116-0.83,0.326c-0.19,0.231-0.146,0.641-0.276,0.942c-0.114,0.266-0.326,0.49-0.495,0.732
	c-0.225-0.209-0.516-0.38-0.659-0.635c-0.262-0.462-0.428-1.387-0.648-1.392c-0.881-0.02-0.854,0.845-1.017,1.476
	c-0.084,0.326-0.101,0.679-0.237,0.978c-0.073,0.157-0.354,0.328-0.514,0.305c-0.156-0.023-0.361-0.264-0.401-0.441
	c-0.097-0.436-0.073-0.899-0.176-1.333c-0.036-0.153-0.296-0.351-0.455-0.353c-0.19-0.001-0.485,0.14-0.556,0.299
	c-0.181,0.407-0.212,0.883-0.402,1.284c-0.117,0.249-0.416,0.413-0.634,0.615c-0.141-0.156-0.318-0.292-0.413-0.471
	c-0.239-0.449-0.127-1.292-0.958-1.061c-0.288,0.08-0.447,0.675-0.63,1.053c-0.097,0.199-0.063,0.476-0.188,0.642
	c-0.181,0.24-0.452,0.409-0.686,0.609c-0.115-0.174-0.293-0.334-0.333-0.525c-0.094-0.439-0.051-0.917-0.201-1.33
	c-0.087-0.236-0.422-0.432-0.688-0.526c-0.11-0.04-0.43,0.202-0.486,0.37c-0.336,1.018-0.624,2.052-1.026,3.416
	c-0.315-0.641-0.505-0.91-0.583-1.209c-0.137-0.522-0.142-1.499-0.313-1.523c-0.944-0.137-0.853,0.773-1.086,1.353
	c-0.321,0.796-0.367,1.719-1.061,2.541c-0.76-0.83-0.187-1.62-0.299-2.322c-0.039-0.245-0.375-0.611-0.586-0.619
	c-0.272-0.009-0.739,0.235-0.802,0.459c-0.269,0.968-0.384,1.978-0.634,2.951c-0.089,0.347-0.402,0.637-0.868,1.333
	c-0.184-1.519-0.308-2.547-0.523-4.335C9.746,13.606,9.203,15.289,8.581,17.22z M47.719,23.655c0.011,0.077,0.021,0.154,0.031,0.232
	c0.949-0.204,1.902-0.39,2.84-0.635c0.114-0.03,0.218-0.402,0.181-0.588c-0.022-0.117-0.397-0.303-0.474-0.251
	c-1.549,1.058-3.12,0.768-4.753,0.22c-0.461-0.154-1.088-0.049-1.558,0.138c-0.361,0.144,0.471,0.818,1.404,0.874
	C46.164,23.692,46.942,23.655,47.719,23.655z M28.644,26.276c-0.169-0.113-0.324-0.268-0.511-0.333
	c-1.835-0.638-3.25-0.554-2.794,0.002c0.711,0.866,1.762,0.501,2.69,0.517C28.232,26.465,28.438,26.342,28.644,26.276z
	 M63.223,19.779c-1.094,0-1.926-0.019-2.754,0.022c-0.111,0.005-0.291,0.312-0.289,0.478c0,0.176,0.146,0.468,0.285,0.507
	C61.463,21.064,62.348,20.912,63.223,19.779z M23.373,19.282c2.714,0.769,2.714,0.769,3.849,0
	C26.132,19.282,25.148,19.282,23.373,19.282z M36.169,20.622c0.423-0.35,0.938-0.567,0.976-0.851
	c0.081-0.583-0.494-0.703-0.926-0.612c-0.373,0.079-0.699,0.377-1.047,0.579C35.462,19.995,35.752,20.251,36.169,20.622z
	 M39.923,28.875c0.494-0.116,1.03-0.234,1.56-0.376c0.079-0.021,0.197-0.196,0.176-0.234c-0.089-0.162-0.227-0.427-0.34-0.423
	c-0.529,0.018-1.063,0.078-1.58,0.197c-0.155,0.036-0.256,0.309-0.381,0.474C39.528,28.623,39.7,28.733,39.923,28.875z
	 M21.035,23.82c-0.223,0.024-0.46,0.009-0.663,0.085c-0.17,0.065-0.3,0.236-0.448,0.36c0.142,0.162,0.257,0.415,0.43,0.464
	c0.414,0.119,0.855,0.182,1.285,0.177c0.129-0.001,0.344-0.294,0.356-0.465c0.011-0.164-0.153-0.404-0.309-0.497
	C21.509,23.839,21.256,23.858,21.035,23.82z M33.885,26.677c-0.345,0.185-0.666,0.272-0.855,0.48c-0.26,0.284,0.214,0.7,0.799,0.61
	c0.233-0.036,0.432-0.307,0.646-0.471C34.287,27.1,34.101,26.903,33.885,26.677z M25.352,29.954c0.351-0.042,0.58-0.031,0.776-0.107
	c0.135-0.053,0.224-0.227,0.332-0.346c-0.092-0.047-0.182-0.104-0.279-0.137c-0.102-0.034-0.212-0.044-0.319-0.063
	c-0.106-0.018-0.224-0.066-0.32-0.041c-0.298,0.077-0.588,0.182-0.881,0.276C24.921,29.693,25.182,29.851,25.352,29.954z
	 M51.813,27.354c0.177,0.189,0.241,0.31,0.292,0.305c0.41-0.04,0.82-0.094,1.225-0.17c0.055-0.011,0.112-0.175,0.11-0.268
	c-0.002-0.091-0.098-0.265-0.118-0.26C52.839,27.074,52.36,27.207,51.813,27.354z M56.299,22.009
	c-0.057-0.193-0.093-0.375-0.113-0.373c-0.299,0.025-0.596,0.075-0.893,0.119c0.041,0.153,0.1,0.441,0.12,0.438
	C55.71,22.156,56,22.079,56.299,22.009z M59.369,18.816c0.23-0.34,0.387-0.569,0.543-0.798c-0.173-0.109-0.37-0.332-0.515-0.301
	c-0.259,0.054-0.486,0.26-0.727,0.402C58.868,18.316,59.065,18.512,59.369,18.816z M11.56,22.836
	c-0.115-0.091-0.186-0.194-0.262-0.199c-0.335-0.021-0.672-0.013-1.008-0.017c0.078,0.092,0.153,0.26,0.234,0.263
	C10.854,22.896,11.188,22.858,11.56,22.836z M33.241,78.712c0-2.259,0.011-4.518-0.006-6.775c-0.007-0.986-0.413-1.744-1.39-2.11
	c-0.105-0.04-0.202-0.102-0.305-0.149c-3.939-1.807-6.014-5.041-6.788-9.152c-0.763-4.045-0.863-8.045,0.889-11.97
	c1.536-3.44,4.282-5.436,7.487-7c0.808-0.395,1.712-0.588,2.529-0.966c1.886-0.872,3.853-1.262,5.923-1.218
	c1.356,0.029,2.715-0.033,4.069,0.019c3.408,0.129,6.422,1.359,8.728,3.84c4.269,4.592,5.141,10.922,2.175,15.934
	c-1.265,2.135-2.63,4.253-4.785,5.646c-1.293,0.836-1.586,1.99-1.618,3.464c-0.083,3.727-0.285,7.453-0.555,11.172
	c-0.113,1.565-0.437,3.13-0.808,4.661c-0.461,1.906-1.348,3.566-3.065,4.719c-0.506,0.34-0.83,1.01-1.123,1.588
	c-0.305,0.598-0.387,1.313-0.712,1.896c-1.18,2.122-4.208,2.38-5.226,0.25c-0.794-1.66-1.973-2.66-3.342-3.653
	c-1.612-1.17-2.082-2.877-2.083-4.77C33.235,82.328,33.235,80.52,33.241,78.712z M44.217,69.878
	c0.179-0.032,0.285-0.453,0.425-0.697c-0.286-0.087-0.667-0.331-0.84-0.228c-2.956,1.77-4.3,1.278-7.855,1.659
	c-1.2,0.129-1.56,0.523-1.568,1.755c-0.017,2.256,0.023,4.513,0.049,6.769c0.042,3.747,0.799,4.466,4.605,4.384
	c0.225-0.005,0.455,0.006,0.675-0.035c2.328-0.435,4.663-0.843,6.976-1.351c0.487-0.106,1.068-0.503,1.283-0.93
	c0.21-0.414,0.084-1.063-0.071-1.553c-0.037-0.117-0.809-0.107-1.187,0.016c-0.528,0.17-0.987,0.547-1.508,0.756
	c-1.458,0.586-2.928,1.143-4.406,1.674c-0.155,0.056-0.578-0.162-0.571-0.205c0.043-0.281,0.098-0.71,0.284-0.795
	c0.92-0.423,1.906-0.701,2.823-1.128c1.328-0.618,2.626-1.304,3.915-1.999c0.389-0.209,0.765-0.501,1.038-0.842
	c0.182-0.228,0.307-0.658,0.216-0.912c-0.179-0.496-0.646-0.57-1.096-0.315c-2.288,1.298-4.77,2.015-7.347,2.417
	c-0.205,0.033-0.486-0.306-0.686-0.516c-0.026-0.027,0.189-0.416,0.346-0.465c1.292-0.404,2.592-0.783,3.897-1.137
	c1.776-0.481,3.295-1.436,4.721-2.553c0.124-0.097,0.182-0.459,0.1-0.591c-0.095-0.151-0.402-0.284-0.578-0.246
	c-0.538,0.116-1.069,0.287-1.58,0.493c-1.353,0.549-2.661,1.23-4.05,1.652c-0.803,0.244-1.574,0.992-2.535,0.469
	c0.206-1.285,1.398-1.205,2.239-1.588c0.509-0.233,1.08-0.326,1.606-0.525c2.114-0.8,3.661-1.788,5.133-3.308
	c-1.323-0.096-2.285,0.56-3.274,0.98c-1.803,0.767-3.685,1.019-5.607,1.091c-0.158,0.006-0.436-0.201-0.46-0.344
	c-0.028-0.166,0.113-0.473,0.262-0.54C43.007,69.639,41.63,70.353,44.217,69.878z M25.035,54.933
	c0.047,3.736,0.675,6.693,2.18,9.426c1.527,2.771,3.986,4.229,7.002,4.846c0.93,0.19,1.52-0.381,1.368-1.364
	c-0.41-2.675-0.857-5.345-1.326-8.009c-0.37-2.111-0.854-4.203-1.173-6.32c-0.274-1.827,0.089-3.608,0.838-5.29
	c0.438-0.983,1.153-1.732,2.31-1.705c1.16,0.028,2.216-0.209,3.271-0.683c0.485-0.218,1.155-0.334,1.644-0.183
	c1.504,0.469,2.824,0.181,4.205-0.476c0.93-0.441,1.834-0.057,2.253,0.908c0.489,1.123,1.04,2.331,1.075,3.517
	c0.078,2.58,0.209,5.172-0.427,7.751c-0.565,2.295-0.838,4.665-1.188,7.01c-0.153,1.031,0.432,1.388,1.47,0.977
	c0.105-0.041,0.216-0.07,0.317-0.119c3.518-1.686,6.045-4.327,7.442-7.967c1.284-3.344,1.079-6.602-0.658-9.802
	c-0.821-1.512-1.592-3.002-3.1-3.927c-2.918-1.79-5.884-3.401-9.527-2.739c-0.765,0.14-1.589-0.065-2.365,0.04
	c-1.446,0.196-2.891,0.447-4.311,0.782c-0.982,0.232-1.9,0.803-2.887,0.938c-1.581,0.217-2.704,1.167-3.758,2.145
	C26.546,47.606,25.389,51.427,25.035,54.933z M47.527,53.033c0-0.79,0.007-1.581-0.003-2.372c-0.004-0.339,0.028-0.699-0.075-1.011
	c-0.277-0.844-0.543-1.71-0.978-2.474c-0.149-0.264-0.843-0.429-1.177-0.315c-0.308,0.104-0.671,0.655-0.652,0.989
	c0.054,1.009,0.336,2.004,0.428,3.013c0.118,1.299-0.413,2.441-1.112,2.615c-0.963,0.24-2.629-1.264-2.715-2.516
	c-0.039-0.555,0.068-1.122,0.131-1.681c0.05-0.445,0.269-0.923,0.161-1.318c-0.097-0.35-0.489-0.735-0.842-0.869
	c-0.556-0.211-1.257,0.284-1.242,0.804c0.014,0.556,0.127,1.109,0.19,1.665c0.16,1.398-0.216,2.685-0.856,3.904
	c-0.429,0.814-1.406,0.89-1.936,0.188c-0.953-1.264-1.177-2.646-0.766-4.168c0.107-0.397,0.131-0.854,0.049-1.253
	c-0.063-0.312-0.967,0.078-1.264,0.72c-0.37,0.801-0.796,1.65-0.86,2.503c-0.092,1.222,0.019,2.483,0.225,3.698
	c0.677,4.005,1.969,7.895,2.27,11.974c0.008,0.112,0.032,0.224,0.058,0.333c0.358,1.503,1.151,2.039,2.717,1.801
	c0.442-0.068,0.9-0.161,1.304-0.346c1.33-0.609,2.669-1.215,3.941-1.935c0.437-0.247,0.899-0.782,0.989-1.255
	C46.319,61.518,47.508,57.367,47.527,53.033z M42.696,90.917c-0.103-0.177-0.211-0.509-0.309-0.507
	c-0.861,0.026-1.723,0.094-2.577,0.205c-0.102,0.014-0.245,0.367-0.225,0.548c0.063,0.565,0.834,1.12,1.478,1.122
	C41.854,92.287,42.631,91.635,42.696,90.917z M38.492,51.136c-0.028-0.442,0.026-0.706-0.073-0.881
	c-0.15-0.263-0.409-0.641-0.623-0.643c-0.231-0.001-0.545,0.334-0.679,0.597c-0.319,0.623-0.47,1.315,0.09,1.876
	c0.155,0.156,0.718,0.188,0.819,0.059C38.288,51.814,38.397,51.361,38.492,51.136z M43.056,51.996
	c0.385-0.343,0.807-0.567,0.782-0.723c-0.1-0.642-0.316-1.269-0.544-1.88c-0.03-0.082-0.493-0.13-0.542-0.056
	c-0.229,0.357-0.578,0.793-0.521,1.143C42.31,50.965,42.711,51.4,43.056,51.996z M48.565,67.753
	c-0.224-0.313-0.405-0.617-0.437-0.604c-0.479,0.229-0.946,0.488-1.4,0.767c-0.066,0.04-0.107,0.277-0.067,0.31
	c0.16,0.132,0.414,0.35,0.53,0.299C47.664,68.318,48.1,68.024,48.565,67.753z M97.955,29.579c0.621-0.277,0.82-0.781,1.179,0.465
	c0.385,1.337,1.692,2.45,2.711,3.556c3.123,3.388,4.823,7.391,4.911,11.957c0.066,3.429-1.106,6.454-4.207,8.36
	c-1.051,0.646-2.197,1.153-3.341,1.627c-3.729,1.545-7.652,1.857-11.64,1.765c-1.237-0.028-2.489-0.027-3.712,0.137
	c-0.939,0.126-2.188,0.081-2.337,1.45c-0.125,1.146,1.334,1.036,1.729,1.865c0.073,0.154,0.958,0.18,1.155-0.031
	c0.687-0.729,1.182-1.075,1.686,0.134c0.043,0.104,0.598,0.139,0.773,0.011c0.345-0.25,0.591-0.638,0.877-0.968
	c0.217,0.339,0.422,0.685,0.651,1.014c0.427,0.608,0.957,0.716,1.379,0.237c0.292-0.334,0.468-0.768,0.743-1.119
	c0.416-0.532,0.675-0.434,1.041,0.365c0.437,0.95,0.454,0.967,1.232,0.104c0.358-0.399,0.854-1.232,1.217-0.568
	c0.681,1.242,0.958,0.805,1.458-0.018c0.308-0.506,0.581-0.423,0.989,0.029c1.131,1.25,1.165,1.222,1.988-0.183
	c0.113-0.192,0.169-0.429,0.312-0.591c0.418-0.475,0.745-0.382,0.904,0.221c0.117,0.441,0.21,0.996,0.779,0.883
	c0.369-0.072,0.717-0.447,0.988-0.763c0.212-0.245,0.258-0.626,0.438-0.909c0.322-0.509,0.7-0.385,1.095-0.05
	c0.159,0.135,0.478,0.336,0.554,0.278c1.315-0.979,2.731-1.868,3.872-3.027c2.545-2.583,3.012-6.024,3.245-9.403
	c0.129-1.873-0.045-3.915-0.68-5.665c-2.189-6.05-5.264-11.522-11.281-14.681c-0.569-0.298-1.965-1.408-2.607-0.547
	c-0.641,0.859-0.979,1.949-1.393,2.965c-0.049,0.12,0.145,0.434,0.299,0.513C95.113,29.067,97.425,29.815,97.955,29.579z
	 M41.925,1.525c-0.007-0.103-0.014-0.206-0.02-0.309c-5.073,0.338-10.153,0.597-15.218,1.04c-4.052,0.354-8.096,0.864-12.02,2.031
	c-4.569,1.359-8.374,3.912-11.5,7.473c-1.475,1.679-2.116,3.624-1.925,5.938c0.295,3.568,1.72,6.77,2.971,10.024
	c0.346,0.9,1.146,1.686,1.882,2.367c4.08,3.772,9.015,5.56,14.484,5.704c3.494,0.092,7.001-0.201,10.499-0.386
	c2.029-0.108,4.054-0.323,6.077-0.528c2.698-0.274,5.39-0.614,8.09-0.874c2.699-0.26,5.415-0.375,8.106-0.699
	c4.05-0.488,8.028-1.339,11.849-2.816c6.25-2.416,10.614-6.702,12.963-13.021c1.157-3.111,0.723-6.115-0.994-8.761
	c-1.681-2.593-4.589-3.944-7.003-5.785c-0.083-0.063-0.217-0.056-0.326-0.087c-5.253-1.5-10.616-2.155-16.067-1.957
	C49.821,1.024,45.874,1.306,41.925,1.525z M84.223,50.506c-0.076,0.004-0.153,0.009-0.23,0.013c0,1.357-0.035,2.716,0.011,4.07
	c0.036,1.053,0.455,1.565,1.362,1.625c5.144,0.338,10.182-0.105,14.933-2.292c3.162-1.456,4.883-3.918,4.954-7.456
	c0.094-4.631-1.446-8.692-4.512-12.099c-1.68-1.867-3.843-3.328-6.342-3.703c-3.342-0.501-6.745-0.604-10.126-0.82
	c-0.981-0.063-1.51,0.417-1.504,1.407c0.011,2.031,0.081,4.067,0.247,6.092C83.378,41.734,83.816,46.119,84.223,50.506z
	 M84.801,27.474c0.117,0.179,0.293,0.731,0.555,0.774c0.326,0.055,0.95-0.229,1.05-0.507c0.439-1.237,0.788-2.515,1.05-3.802
	c0.063-0.315-0.24-0.928-0.523-1.046c-0.634-0.265-1.05,0.276-1.206,0.801C85.381,24.854,85.143,26.046,84.801,27.474z
	 M90.432,23.776c-0.401-0.31-0.613-0.55-0.877-0.646c-0.14-0.05-0.498,0.115-0.54,0.25c-0.458,1.476-0.883,2.962-1.277,4.456
	c-0.028,0.107,0.233,0.379,0.401,0.426c0.167,0.047,0.512-0.042,0.563-0.162C89.296,26.683,89.85,25.25,90.432,23.776z
	 M92.834,24.465c-0.172-0.325-0.249-0.649-0.374-0.668c-0.273-0.042-0.745-0.027-0.833,0.132c-0.621,1.122-1.294,2.257-0.907,3.634
	c0.014,0.05,0.215,0.107,0.284,0.072C92.367,26.949,92.286,25.49,92.834,24.465z M80.214,24.182c0.69,0.607,1.213,1.067,1.736,1.527
	c0.2-0.585,0.455-1.16,0.563-1.762c0.029-0.162-0.456-0.616-0.588-0.573C81.356,23.557,80.831,23.875,80.214,24.182z M92.832,27.757
	c0.201,0.072,0.402,0.145,0.604,0.217c0.449-0.98,0.912-1.955,1.329-2.95c0.052-0.125-0.144-0.354-0.225-0.534
	c-0.184,0.096-0.472,0.148-0.534,0.297C93.587,25.765,93.218,26.765,92.832,27.757z"/>
</svg>
