<?xml version="1.0" encoding="utf-8"?>
<!-- Generator: Adobe Illustrator 15.0.0, SVG Export Plug-In  -->
<!DOCTYPE svg PUBLIC "-//W3C//DTD SVG 1.1//EN" "http://www.w3.org/Graphics/SVG/1.1/DTD/svg11.dtd" [
	<!ENTITY ns_flows "http://ns.adobe.com/Flows/1.0/">
]>
<svg version="1.1"
	 xmlns="http://www.w3.org/2000/svg" xmlns:xlink="http://www.w3.org/1999/xlink" xmlns:a="http://ns.adobe.com/AdobeSVGViewerExtensions/3.0/"
	 x="0px" y="0px" width="658px" height="655px" viewBox="-8.5 -189.913 658 655" enable-background="new -8.5 -189.913 658 655"
	 xml:space="preserve">
<defs>
</defs>
<path fill="#FFFFFF" stroke="#FFFFFF" stroke-width="25" stroke-miterlimit="10" d="M175.109,12.5
	c-41.576,0-78.224,21.434-99.532,53.813H25.022c-6.914,0-12.522,5.607-12.522,12.521s5.608,12.522,12.522,12.522h38.01
	c-4.526,12.573-7.01,26.116-7.01,40.229c0,65.664,53.423,119.087,119.087,119.087c65.665,0,119.088-53.423,119.088-119.087
	C294.197,65.921,240.774,12.5,175.109,12.5z M175.109,225.629c-51.854,0-94.043-42.188-94.043-94.043
	c0-51.855,42.188-94.044,94.043-94.044c51.855,0,94.044,42.188,94.044,94.044C269.153,183.44,226.965,225.629,175.109,225.629z"/>
<path fill="#FFFFFF" stroke="#FFFFFF" stroke-width="25" stroke-miterlimit="10" d="M611.979,66.313h-56.453
	c-6.044-9.212-13.36-17.629-21.83-24.934c-21.59-18.624-49.2-28.88-77.746-28.88c-42.642,0-80.101,22.542-101.14,56.319
	c-9.133-11.677-23.339-19.204-39.279-19.204c-8.352,0-16.62,2.11-23.91,6.098c-6.067,3.321-8.294,10.93-4.974,16.999
	c3.318,6.064,10.928,8.289,16.996,4.974c3.667-2.008,7.666-3.024,11.888-3.024c13.683,0,24.814,11.132,24.814,24.814
	c0,0.852,0.088,1.684,0.249,2.489c-2.436,9.476-3.732,19.401-3.732,29.625c0,65.665,53.423,119.087,119.088,119.087
	c49.301,0,94.096-30.987,111.475-77.105c2.438-6.472-0.831-13.694-7.305-16.13c-6.47-2.441-13.695,0.828-16.133,7.302
	c-13.722,36.42-49.101,60.893-88.037,60.893c-51.855,0-94.044-42.188-94.044-94.044s42.188-94.044,94.044-94.044
	c46.599,0,85.667,33.349,92.896,79.295c1.075,6.831,7.48,11.495,14.317,10.423c6.83-1.075,11.497-7.484,10.424-14.314
	c-1.162-7.393-3.045-14.613-5.551-21.59h43.945c6.914,0,12.522-5.608,12.522-12.522S618.895,66.313,611.979,66.313z"/>
</svg>
