<?xml version="1.0" encoding="utf-8"?>
<!-- Generator: Adobe Illustrator 15.0.0, SVG Export Plug-In  -->
<!DOCTYPE svg PUBLIC "-//W3C//DTD SVG 1.1//EN" "http://www.w3.org/Graphics/SVG/1.1/DTD/svg11.dtd" [
	<!ENTITY ns_flows "http://ns.adobe.com/Flows/1.0/">
]>
<svg version="1.1"
	 xmlns="http://www.w3.org/2000/svg" xmlns:xlink="http://www.w3.org/1999/xlink" xmlns:a="http://ns.adobe.com/AdobeSVGViewerExtensions/3.0/"
	 x="0px" y="0px" width="633px" height="633px" viewBox="-6.15918 -6.15869 633 633"
	 enable-background="new -6.15918 -6.15869 633 633" xml:space="preserve">
<defs>
</defs>
<path fill="#FFFFFF" stroke="#FFFFFF" stroke-width="22" stroke-miterlimit="10" d="M218.93848,595.59619
	c43.59131,13.93262,90.61816,17.70215,135.98828,10.9082c6.6582-0.99805,11.24512-7.20117,10.25-13.86035
	c-0.99414-6.6582-7.20215-11.24609-13.86035-10.25c-41.69482,6.24512-84.90479,2.78027-124.95801-10.02051
	c-41.9707-13.41016-79.1626-36.12207-110.5459-67.50684C8.54932,397.60498,8.54785,223.07275,115.81152,115.81006
	C223.07324,8.54785,397.60547,8.54883,504.86914,115.81201s107.2627,281.79395,0,389.05469
	c-4.75781,4.75977-4.75781,12.47949,0,17.23828c4.75879,4.75781,12.47852,4.75781,17.23828,0
	c116.7666-116.7666,116.76758-306.7627-0.00098-423.53076C405.33984-18.19287,215.34521-18.19092,98.57813,98.57568
	C-18.19141,215.34473-18.19336,405.3374,98.57568,522.10596C132.25195,555.78174,173.87354,581.19385,218.93848,595.59619z"/>
<path fill="#FFFFFF" stroke="#FFFFFF" stroke-width="22" stroke-miterlimit="10" d="M203.83398,231.76758
	c-30.88184,0-58.10205,15.91943-73.92969,39.9707H92.354c-5.13623,0-9.30176,4.16553-9.30176,9.30029
	c0,5.13574,4.16553,9.30127,9.30176,9.30127h28.23242c-3.3623,9.33936-5.20703,19.39893-5.20703,29.88037
	c0,48.77344,39.68066,88.45508,88.45459,88.45508s88.45459-39.68164,88.45459-88.45508
	C292.28857,271.44727,252.60791,231.76758,203.83398,231.76758z M203.83398,390.07373
	c-38.5166,0-69.85205-31.33691-69.85205-69.85352s31.33545-69.85303,69.85205-69.85303
	c38.51611,0,69.85205,31.33643,69.85205,69.85303S242.3501,390.07373,203.83398,390.07373z"/>
<path fill="#FFFFFF" stroke="#FFFFFF" stroke-width="22" stroke-miterlimit="10" d="M528.3252,271.73828h-41.93164
	c-4.48633-6.8418-9.92188-13.09375-16.21094-18.51953c-16.04004-13.83398-36.54688-21.45117-57.75098-21.45117
	c-31.6709,0-59.49512,16.74316-75.12402,41.83154c-6.78223-8.67285-17.33301-14.26416-29.17432-14.26416
	c-6.20215,0-12.34473,1.56885-17.75879,4.5293c-4.50684,2.4668-6.16064,8.11914-3.69482,12.62695
	c2.46533,4.50391,8.11719,6.15674,12.62451,3.69482c2.72363-1.49268,5.69385-2.24756,8.8291-2.24756
	c10.16357,0,18.43213,8.26807,18.43213,18.43115c0,0.6333,0.06543,1.25098,0.18555,1.84961
	c-1.81055,7.03809-2.77344,14.41113-2.77344,22.00391c0,48.77539,39.68066,88.4541,88.4541,88.4541
	c36.61914,0,69.8916-23.01465,82.80078-57.27051c1.81152-4.80762-0.61621-10.17383-5.42676-11.98047
	c-4.80469-1.81445-10.17188,0.61426-11.98145,5.42285c-10.19434,27.05078-36.46973,45.22852-65.39258,45.22852
	c-38.5166,0-69.85156-31.33594-69.85156-69.85254c0-38.51611,31.33496-69.85303,69.85156-69.85303
	c34.61328,0,63.63086,24.77051,69,58.89795c0.79883,5.07422,5.55762,8.53711,10.63574,7.74121
	c5.07422-0.79785,8.53906-5.55859,7.74219-10.63232c-0.86328-5.49072-2.2627-10.85449-4.12402-16.03564h32.6416
	c5.13672,0,9.30176-4.1665,9.30176-9.30127C537.62891,275.90625,533.46387,271.73828,528.3252,271.73828z"/>
</svg>
