<?xml version="1.0" encoding="utf-8"?>
<!-- Generator: Adobe Illustrator 15.0.0, SVG Export Plug-In  -->
<!DOCTYPE svg PUBLIC "-//W3C//DTD SVG 1.1//EN" "http://www.w3.org/Graphics/SVG/1.1/DTD/svg11.dtd" [
	<!ENTITY ns_flows "http://ns.adobe.com/Flows/1.0/">
]>
<svg version="1.1"
	 xmlns="http://www.w3.org/2000/svg" xmlns:xlink="http://www.w3.org/1999/xlink" xmlns:a="http://ns.adobe.com/AdobeSVGViewerExtensions/3.0/"
	 x="0px" y="0px" width="577px" height="577px" viewBox="-5.534 -5.621 577 577" enable-background="new -5.534 -5.621 577 577"
	 xml:space="preserve">
<defs>
</defs>
<path fill="#FFFFFF" stroke="#FFFFFF" stroke-width="20" stroke-miterlimit="10" d="M435.773,248.972
	c-5.077,0-9.195,3.957-9.195,8.835V397.37c0,0-2.588,8.957-5.746,12.115c-3.211,3.212-12.429,5.744-12.429,5.744h-80.481v-98.817
	c0-4.879-4.117-8.838-9.193-8.838h-72.02c-5.078,0-9.195,3.959-9.195,8.838v58.778c0,4.878,4.118,8.834,9.195,8.834
	c5.076,0,9.193-3.956,9.193-8.834v-27.318c0,0,0.611-11.651,4.733-16.66c4.688-5.698,16.362-5.966,16.362-5.966h11.84
	c0,0,12.592,0.64,16.446,5.837c3.479,4.69,4.249,18.481,4.249,18.481v65.668H160.934c0,0-14.322-2.394-16.762-4.831
	c-2.146-2.147-5.321-14.08-5.321-17.112c0-39.414,0-133.848,0-174.819c0-12.085,1.806-15.141,3.96-19.518
	c2.458-4.998,13.69-13.593,13.69-13.593l90.719-69.875c0,0,19.211-14.56,35.493-14.56c14.279,0,30.564,10.765,32.016,11.883
	c35.374,27.244,115.291,88.796,115.291,88.796c3.961,3.052,9.749,2.438,12.925-1.37c3.173-3.807,2.536-9.367-1.428-12.42
	L297.014,76.51c-12.041-8.763-18.388-7.936-29.894,1L132.48,181.211c-9.532,6.89-12.015,14.983-12.015,17.666v217.512
	c0,11.555,3.347,16.512,18.05,16.512h288.601c12.986,0,17.852-4.079,17.852-17.063v-158.03
	C444.967,252.928,440.85,248.972,435.773,248.972z"/>
<path fill="none" stroke="#FFFFFF" stroke-width="20" stroke-miterlimit="10" d="M435.773,248.972c-5.077,0-9.195,3.957-9.195,8.835
	V397.37c0,0-2.588,8.957-5.746,12.115c-3.211,3.212-12.429,5.744-12.429,5.744h-80.481v-98.817c0-4.879-4.117-8.838-9.193-8.838
	h-72.02c-5.078,0-9.195,3.959-9.195,8.838v58.778c0,4.878,4.118,8.834,9.195,8.834c5.076,0,9.193-3.956,9.193-8.834v-27.318
	c0,0,0.611-11.651,4.733-16.66c4.688-5.698,16.362-5.966,16.362-5.966h11.84c0,0,12.592,0.64,16.446,5.837
	c3.479,4.69,4.249,18.481,4.249,18.481v65.668H160.934c0,0-14.322-2.394-16.762-4.831c-2.146-2.147-5.321-14.08-5.321-17.112
	c0-39.414,0-133.848,0-174.819c0-12.085,1.806-15.141,3.96-19.518c2.458-4.998,13.69-13.593,13.69-13.593l90.719-69.875
	c0,0,19.211-14.56,35.493-14.56c14.279,0,30.564,10.765,32.016,11.883c35.374,27.244,115.291,88.796,115.291,88.796
	c3.961,3.052,9.749,2.438,12.925-1.37c3.173-3.807,2.536-9.367-1.428-12.42L297.014,76.51c-12.041-8.763-18.388-7.936-29.894,1
	L132.48,181.211c-9.532,6.89-12.015,14.983-12.015,17.666v217.512c0,11.555,3.347,16.512,18.05,16.512h288.601
	c12.986,0,17.852-4.079,17.852-17.063v-158.03C444.967,252.928,440.85,248.972,435.773,248.972z"/>
<path fill="#FFFFFF" stroke="#FFFFFF" stroke-width="22" stroke-miterlimit="10" d="M501.735,442.843
	c24.471-33.511,41.182-72.887,48.331-113.865c1.05-6.014-2.975-11.735-8.987-12.788c-6.013-1.052-11.738,2.976-12.788,8.989
	c-6.568,37.657-21.926,73.839-44.408,104.629c-23.557,32.268-53.747,57.757-89.735,75.767
	c-122.995,61.558-273.143,11.574-334.699-111.423C-2.108,271.156,47.879,121.009,170.875,59.454
	C293.873-2.104,444.018,47.882,505.572,170.878c2.732,5.456,9.374,7.667,14.83,4.936c5.456-2.732,7.668-9.372,4.938-14.829
	C458.331,27.091,294.878-27.324,160.983,39.687C27.089,106.699-27.323,270.148,39.687,404.042
	c67.012,133.896,230.458,188.312,364.354,121.3C442.657,506.015,476.439,477.486,501.735,442.843z"/>
</svg>
