<?xml version="1.0" encoding="utf-8"?>
<!-- Generator: Adobe Illustrator 15.0.0, SVG Export Plug-In . SVG Version: 6.00 Build 0)  -->
<!DOCTYPE svg PUBLIC "-//W3C//DTD SVG 1.1//EN" "http://www.w3.org/Graphics/SVG/1.1/DTD/svg11.dtd">
<svg version="1.1" id="Capa_1" xmlns="http://www.w3.org/2000/svg" xmlns:xlink="http://www.w3.org/1999/xlink" x="0px" y="0px"
	 width="576.5px" height="576.5px" viewBox="0 0 576.5 576.5" enable-background="new 0 0 576.5 576.5" xml:space="preserve">
<g>
	<path fill="#FFFFFF" stroke="#FFFFFF" stroke-width="20" stroke-miterlimit="10" d="M504.771,284.492
		c-7.182,0-13.008,5.598-13.008,12.499v197.431c0,0-3.661,12.673-8.128,17.14c-4.544,4.544-17.583,8.126-17.583,8.126H352.2V379.897
		c0-6.903-5.825-12.502-13.006-12.502H237.311c-7.182,0-13.007,5.599-13.007,12.502v83.15c0,6.901,5.826,12.497,13.007,12.497
		s13.006-5.596,13.006-12.497v-38.646c0,0,0.865-16.483,6.696-23.568c6.631-8.06,23.147-8.44,23.147-8.44h16.749
		c0,0,17.813,0.904,23.266,8.256c4.921,6.637,6.011,26.146,6.011,26.146v92.896H115.971c0,0-20.26-3.385-23.711-6.833
		c-3.035-3.037-7.527-19.919-7.527-24.207c0-55.758,0-189.349,0-247.309c0-17.096,2.554-21.417,5.602-27.611
		c3.477-7.07,19.367-19.23,19.367-19.23l128.335-98.846c0,0,27.178-20.598,50.21-20.598c20.2,0,43.236,15.227,45.292,16.809
		c50.042,38.541,163.096,125.616,163.096,125.616c5.604,4.317,13.79,3.449,18.282-1.938c4.49-5.386,3.589-13.252-2.018-17.57
		L308.476,40.521c-17.033-12.398-26.01-11.227-42.288,1.413L75.719,188.635c-13.484,9.746-16.997,21.195-16.997,24.991v307.703
		c0,16.346,4.736,23.359,25.536,23.359h408.268c18.369,0,25.252-5.771,25.252-24.14V296.991
		C517.778,290.088,511.955,284.492,504.771,284.492z"/>
	<path fill="none" stroke="#FFFFFF" stroke-width="20" stroke-miterlimit="10" d="M504.771,284.492
		c-7.182,0-13.008,5.598-13.008,12.499v197.431c0,0-3.661,12.673-8.128,17.14c-4.544,4.544-17.583,8.126-17.583,8.126H352.2V379.897
		c0-6.903-5.825-12.502-13.006-12.502H237.311c-7.182,0-13.007,5.599-13.007,12.502v83.15c0,6.901,5.826,12.497,13.007,12.497
		s13.006-5.596,13.006-12.497v-38.646c0,0,0.865-16.483,6.696-23.568c6.631-8.06,23.147-8.44,23.147-8.44h16.749
		c0,0,17.813,0.904,23.266,8.256c4.921,6.637,6.011,26.146,6.011,26.146v92.896H115.971c0,0-20.26-3.385-23.711-6.833
		c-3.035-3.037-7.527-19.919-7.527-24.207c0-55.758,0-189.349,0-247.309c0-17.096,2.554-21.417,5.602-27.611
		c3.477-7.07,19.367-19.23,19.367-19.23l128.335-98.846c0,0,27.178-20.598,50.21-20.598c20.2,0,43.236,15.227,45.292,16.809
		c50.042,38.541,163.096,125.616,163.096,125.616c5.604,4.317,13.79,3.449,18.282-1.938c4.49-5.386,3.589-13.252-2.018-17.57
		L308.476,40.521c-17.033-12.398-26.01-11.227-42.288,1.413L75.719,188.635c-13.484,9.746-16.997,21.195-16.997,24.991v307.703
		c0,16.346,4.736,23.359,25.536,23.359h408.268c18.369,0,25.252-5.771,25.252-24.14V296.991
		C517.778,290.088,511.955,284.492,504.771,284.492z"/>
</g>
</svg>
