<?xml version="1.0" encoding="utf-8"?>
<!-- Generator: Adobe Illustrator 15.0.0, SVG Export Plug-In  -->
<!DOCTYPE svg PUBLIC "-//W3C//DTD SVG 1.1//EN" "http://www.w3.org/Graphics/SVG/1.1/DTD/svg11.dtd" [
	<!ENTITY ns_flows "http://ns.adobe.com/Flows/1.0/">
]>
<svg version="1.1"
	 xmlns="http://www.w3.org/2000/svg" xmlns:xlink="http://www.w3.org/1999/xlink" xmlns:a="http://ns.adobe.com/AdobeSVGViewerExtensions/3.0/"
	 x="0px" y="0px" width="177px" height="144px" viewBox="-0.947 -0.323 177 144" enable-background="new -0.947 -0.323 177 144"
	 xml:space="preserve">
<defs>
</defs>
<path fill="#333333" d="M147.523,133.523c-0.625,1.266-0.971,2.065-1.416,2.807c-0.129,0.214-0.607,0.414-0.812,0.333
	c-0.228-0.091-0.455-0.508-0.455-0.784c0-0.874,0.106-1.749-0.242-2.752c-0.271,0.447-0.527,0.906-0.816,1.341
	c-0.36,0.54-0.701,1.453-1.135,1.505c-0.813,0.099-1.705-0.256-2.523-0.538c-0.2-0.069-0.263-0.586-0.354-0.906
	c-0.21-0.739-0.449-0.448-0.913-0.153c-0.787,0.5-1.311,0.199-1.253-0.643c0.076-1.112,0.237-2.219,0.364-3.343
	c-0.663-0.221-0.687,0.34-0.817,0.686c-0.361,0.949-0.647,1.929-1.027,2.869c-0.224,0.551-0.641,0.825-1.324,0.78
	c-0.642-0.042-1.559-0.104-1.9,0.264c-1.181,1.271-1.706-0.035-2.564-0.522c-0.477,0.776-0.928,1.551-1.419,2.3
	c-0.502,0.767-0.79,0.768-1.553,0.072c-1.015-0.924-1.872-1.131-2.546-0.345c-0.914,1.064-2.214,1.578-3.174,2.475
	c-0.905,0.845-1.626,1.382-2.885,1.023c-0.212-0.061-0.787,0.453-0.871,0.782c-0.188,0.751-0.151,1.556-0.267,2.33
	c-0.021,0.14-0.323,0.319-0.505,0.33c-0.179,0.01-0.472-0.128-0.533-0.276c-0.17-0.408-0.301-0.85-0.348-1.288
	c-0.156-1.462-0.227-2.934-0.412-4.392c-0.128-1.006-0.336-2.01-0.606-2.987c-0.529-1.918-1.757-3.154-3.772-3.429
	c-1.791-0.242-3.593-0.535-5.394-0.554c-4.654-0.049-9.249-0.534-13.802-1.484c-2.568-0.535-5.05-1.194-7.018-3.126
	c-1.173-1.15-2.043-2.391-2.236-4.061c-0.311-2.693-0.673-5.381-0.979-8.074c-0.099-0.864-0.343-1.482-1.319-1.686
	c-0.649-0.136-1.289-0.43-1.872-0.76c-1.392-0.786-2.122-2.004-2.076-3.622c0.022-0.79,0.14-1.577,0.186-2.366
	c0.037-0.628-0.637-1.407,0.11-1.843c0.536-0.313,1.296-0.252,1.959-0.331c3.139-0.375,6.296-0.633,9.413-1.141
	c3.123-0.51,4.709-2.876,5.918-5.524c0.319-0.702-0.178-1.348-1-1.33c-1.015,0.021-2.043,0.052-3.039,0.228
	c-3.71,0.657-7.443,0.47-11.171,0.359c-0.763-0.022-1.559-0.271-2.262-0.585c-0.975-0.437-1.585-1.186-1.632-2.365
	c-0.041-1.012-0.264-2.016-0.409-3.022c-0.289-1.994-1.304-3.216-3.364-3.738c-2.512-0.636-4.967-1.512-7.419-2.363
	c-1.273-0.442-2.486-1.061-3.73-1.592c-1.567-0.669-2.258-1.82-1.904-3.514c0.231-1.101,0.401-2.234,0.798-3.278
	c3.421-9.006,7.309-17.781,12.621-25.876c1.61-2.453,2.958-5.084,4.342-7.679c0.471-0.882,0.731-1.887,0.999-2.859
	c0.239-0.87,0.408-1.768,0.521-2.664c1.103-8.778,5.238-16.084,11.241-22.334c2.163-2.253,4.955-3.908,7.501-5.783
	c4.148-3.056,8.915-4.842,13.699-6.595c2.704-0.991,5.557-0.999,8.353-1.3c2.918-0.313,5.846-0.281,8.786,0.271
	c2.656,0.5,5.399,0.52,8.087,0.883c3.374,0.455,6.543,1.661,9.781,2.682c4.655,1.467,8.361,4.251,12.231,7.018
	c4.128,2.95,7.498,6.566,10.517,10.501c1.835,2.392,3.285,5.18,4.415,7.989c2.207,5.487,3.538,11.202,3.257,17.208
	c-0.308,6.56-0.684,13.103-1.836,19.586c-0.796,4.479-2.04,8.839-3.819,12.991c-1.009,2.354-2.7,4.422-4.146,6.578
	c-0.628,0.936-1.355,1.82-2.135,2.634c-1.975,2.061-2.982,4.53-3.078,7.334c-0.162,4.742-0.438,9.497-0.259,14.231
	c0.152,4.055,0.881,8.086,1.337,12.131c0.189,1.683,0.348,3.37,0.489,5.058c0.229,2.704,0.264,5.438,0.695,8.107
	c0.361,2.229-1.309,2.888-2.48,3.986c-0.077,0.072-0.503-0.056-0.583-0.195c-0.215-0.378-0.331-0.813-0.487-1.225
	c-0.396-1.041-0.393-1.035-1.34-0.593c-0.389,0.182-0.785,0.452-1.189,0.475c-1.109,0.061-2.227-0.042-3.336,0.024
	c-0.875,0.052-1.214-0.405-1.408-1.129c-0.195-0.728-0.529-0.536-0.92-0.146c-0.843,0.844-1.938,0.328-2.909,0.485
	c-0.168,0.027-0.569-0.414-0.596-0.666C147.472,135.654,147.523,134.875,147.523,133.523z M108.514,21.961
	c0.072-2.579,1.326-3.918,3.744-4.03c0.481-0.023,1.101,0.271,1.453,0.622c1.3,1.3,1.195,3.694-0.36,4.707
	c-0.974,0.634-2.249,0.874-3.426,1.083c-0.34,0.06-0.951-0.522-1.179-0.949C108.501,22.935,108.561,22.315,108.514,21.961z
	 M111.234,22.818c0.387-0.211,0.924-0.396,1.316-0.743c0.756-0.667,0.786-1.813,0.152-2.349c-0.576-0.486-1.732-0.202-2.315,0.57
	c-0.461,0.61-0.416,1.559,0.135,2.137C110.661,22.579,110.891,22.637,111.234,22.818z M100.7,23.203
	c-0.236,0.356-0.337,0.646-0.449,0.65c-0.419,0.018-0.874,0.021-1.251-0.132c-0.18-0.072-0.257-0.5-0.286-0.776
	c-0.008-0.072,0.369-0.29,0.524-0.253C99.725,22.81,100.189,23.017,100.7,23.203z M97.655,31.243
	c0.207,0.045,0.419,0.076,0.619,0.141c0.096,0.032,0.252,0.149,0.241,0.193c-0.049,0.198-0.103,0.503-0.235,0.552
	c-0.383,0.141-0.812,0.262-1.205,0.224c-0.249-0.024-0.469-0.349-0.701-0.538c0.212-0.177,0.402-0.396,0.643-0.515
	C97.196,31.212,97.44,31.256,97.655,31.243z M99.769,27.236c-0.024,0.072-0.035,0.247-0.095,0.266
	c-0.525,0.163-1.054,0.325-1.594,0.419c-0.113,0.02-0.296-0.229-0.404-0.384c-0.033-0.047,0.054-0.261,0.124-0.284
	c0.512-0.17,1.028-0.34,1.557-0.438C99.461,26.793,99.623,27.081,99.769,27.236z M100.359,43.421
	c-0.039,0.098-0.058,0.264-0.121,0.282c-0.598,0.178-1.198,0.351-1.811,0.47c-0.09,0.018-0.349-0.266-0.337-0.393
	c0.063-0.682,1.563-1.099,2.175-0.615C100.326,43.213,100.329,43.334,100.359,43.421z M99.534,39.833
	c-0.399,0.81-1.119,0.954-1.9,0.909c-0.176-0.01-0.456-0.186-0.48-0.321c-0.026-0.157,0.134-0.427,0.289-0.52
	C98.111,39.502,98.813,39.283,99.534,39.833z M132.718,5.945c-0.345,0.576-0.713,1.228-1.13,1.845
	c-0.052,0.077-0.372,0.001-0.554-0.053c-0.074-0.022-0.143-0.17-0.159-0.27c-0.146-0.873,0.28-1.494,0.946-1.966
	c0.126-0.09,0.4,0.001,0.596,0.051C132.494,5.572,132.542,5.708,132.718,5.945z M102.561,50.387c0.542-0.272,1.181-0.602,1.83-0.909
	c0.058-0.027,0.241,0.064,0.259,0.131c0.052,0.184,0.131,0.496,0.05,0.557c-0.506,0.377-1.039,0.723-1.596,1.019
	c-0.109,0.058-0.372-0.13-0.535-0.245C102.518,50.903,102.561,50.734,102.561,50.387z M98.82,35.598
	c-0.116,0.243-0.143,0.404-0.21,0.423c-0.78,0.224-1.538,0.87-2.378,0.175c-0.05-0.04-0.047-0.237,0.005-0.291
	C97.021,35.096,97.882,35.338,98.82,35.598z M134.933,7.968c-0.084-0.068-0.216-0.122-0.243-0.209
	c-0.223-0.726,0.431-1.786,1.283-2.028c0.112-0.032,0.443,0.227,0.438,0.343c-0.032,0.835-0.358,1.529-1.146,1.923
	C135.18,8.039,135.045,7.98,134.933,7.968z M140.875,10.447c-0.104-0.167-0.335-0.401-0.288-0.491
	c0.352-0.681,0.737-1.348,1.166-1.983c0.08-0.118,0.45-0.167,0.59-0.085c0.137,0.081,0.269,0.444,0.198,0.556
	c-0.414,0.662-0.882,1.289-1.349,1.916C141.141,10.428,140.984,10.419,140.875,10.447z M128.772,5.354
	c0.063,0.916-0.192,1.707-0.993,2.228c-0.102,0.065-0.477-0.079-0.552-0.219c-0.443-0.833,0.134-2.113,1.033-2.298
	C128.402,5.036,128.593,5.248,128.772,5.354z M103.38,12.348c0.024-0.099,0.017-0.245,0.08-0.288
	c0.168-0.113,0.403-0.295,0.547-0.249c0.98,0.317,1.651,1.003,2.042,1.943c0.044,0.103-0.173,0.453-0.276,0.457
	C104.841,14.246,103.698,13.331,103.38,12.348z M99.445,19.561c0.146-0.139,0.3-0.403,0.437-0.395
	c0.921,0.063,1.645,0.506,2.092,1.322c0.048,0.088-0.156,0.45-0.292,0.482C100.619,21.218,99.483,20.481,99.445,19.561z
	 M145.729,9.955c-0.188,0.959-1.354,2.09-2.178,2.06c-0.098-0.003-0.301-0.441-0.257-0.485c0.656-0.675,1.344-1.32,2.036-1.959
	c0.026-0.024,0.188,0.06,0.255,0.125C145.653,9.761,145.683,9.867,145.729,9.955z M152.486,27.412
	c-0.289-0.078-0.826-0.191-1.333-0.384c-0.113-0.044-0.145-0.359-0.169-0.555c-0.01-0.078,0.083-0.205,0.162-0.252
	c0.715-0.42,1.477-0.514,2.2-0.094c0.224,0.131,0.43,0.545,0.393,0.792c-0.031,0.202-0.425,0.362-0.676,0.512
	C152.984,27.478,152.848,27.428,152.486,27.412z M138.23,9.086c-0.016-1.213,0.643-2.069,1.552-2.786
	c0.072-0.058,0.223-0.072,0.312-0.04c0.095,0.036,0.232,0.154,0.229,0.231c-0.046,1.174-0.466,2.174-1.464,2.85
	C138.767,9.404,138.494,9.199,138.23,9.086z M107.698,56.387c-0.111-0.158-0.342-0.346-0.312-0.47
	c0.217-0.912,0.769-1.599,1.59-2.041c0.166-0.09,0.468-0.101,0.615-0.006c0.133,0.086,0.256,0.462,0.187,0.546
	c-0.557,0.668-1.156,1.3-1.756,1.93C107.964,56.407,107.809,56.375,107.698,56.387z M110.76,7.298
	c0.063-0.117,0.094-0.265,0.166-0.289c0.182-0.063,0.495-0.161,0.556-0.085c0.474,0.596,0.938,1.206,1.313,1.865
	c0.091,0.158-0.108,0.556-0.277,0.757c-0.081,0.095-0.44,0.054-0.609-0.041C111.04,9.022,110.903,8.145,110.76,7.298z
	 M103.182,46.326c-0.987,0.82-1.357,1.198-1.791,1.477c-1.043,0.668-1.983,0.771-1.97,0.298c0.026-0.967,0.888-1.153,1.563-1.427
	C101.428,46.494,101.95,46.508,103.182,46.326z M109.161,10.985c-0.072,0.076-0.136,0.207-0.22,0.222
	c-0.945,0.165-2.207-1.308-2.025-2.398c0.021-0.13,0.455-0.327,0.479-0.299c0.632,0.707,1.238,1.438,1.834,2.177
	C109.27,10.736,109.187,10.882,109.161,10.985z M115.195,56.984c0.111,0.954-0.264,1.742-0.913,2.407
	c-0.105,0.108-0.397,0.063-0.598,0.04c-0.087-0.011-0.21-0.137-0.23-0.229c-0.24-1.099,0.285-1.918,1.011-2.649
	c0.062-0.063,0.257-0.085,0.318-0.036C114.939,56.642,115.056,56.818,115.195,56.984z M112.174,55.735
	c-0.037,1.094-0.842,2.313-1.727,2.535c-0.128,0.033-0.466-0.205-0.468-0.32c-0.014-1.134,0.752-2.275,1.695-2.525
	C111.805,55.39,112.006,55.625,112.174,55.735z M124.042,6.457c0.15-0.371,0.366-0.976,0.652-1.544
	c0.064-0.128,0.4-0.211,0.571-0.165c0.161,0.045,0.402,0.31,0.379,0.436c-0.139,0.75-0.321,1.494-0.546,2.223
	c-0.046,0.15-0.329,0.309-0.507,0.313c-0.146,0.003-0.359-0.187-0.434-0.343C124.068,7.188,124.095,6.946,124.042,6.457z
	 M152.736,31.338c-0.341,0.048-0.794-0.086-1.222-0.188c-0.619-0.147-1.129-0.944-0.782-1.193c0.306-0.22,0.773-0.302,1.165-0.291
	c0.432,0.013,0.885,0.145,1.276,0.333c0.248,0.12,0.538,0.423,0.567,0.673C153.819,31.329,153.217,31.271,152.736,31.338z
	 M116.03,8.594c-0.123-0.054-0.265-0.068-0.311-0.143c-0.602-0.968-0.921-2.001-0.644-3.148c0.019-0.076,0.146-0.149,0.237-0.178
	c0.103-0.031,0.29-0.056,0.324-0.005c0.639,0.951,0.996,1.988,0.813,3.146C116.431,8.398,116.169,8.492,116.03,8.594z
	 M145.472,48.522c0.131-0.153,0.358-0.453,0.381-0.439c0.818,0.537,1.628,1.091,2.407,1.685c0.076,0.058-0.029,0.393-0.096,0.583
	c-0.028,0.077-0.182,0.167-0.27,0.159C146.774,50.407,145.75,49.558,145.472,48.522z M150.235,46.846
	c-0.262,0.2-0.49,0.524-0.727,0.53c-0.936,0.021-1.707-0.373-2.186-1.205c-0.094-0.164-0.098-0.454-0.017-0.626
	c0.077-0.161,0.345-0.367,0.487-0.34C148.785,45.391,149.625,45.84,150.235,46.846z M149.385,41.142
	c0.223-0.128,0.585-0.465,0.715-0.392c0.764,0.433,1.502,0.926,2.18,1.481c0.159,0.131,0.106,0.597,0.039,0.882
	c-0.024,0.107-0.434,0.257-0.553,0.189c-0.759-0.438-1.498-0.913-2.21-1.423C149.427,41.789,149.456,41.476,149.385,41.142z
	 M153.779,35.364c-0.921-0.436-1.811-0.836-2.672-1.289c-0.111-0.058-0.156-0.42-0.092-0.584c0.066-0.167,0.344-0.401,0.468-0.369
	c0.954,0.246,1.899,0.531,2.829,0.856c0.12,0.042,0.243,0.428,0.178,0.569C154.372,34.804,154.114,34.997,153.779,35.364z
	 M104.006,16.988c-0.054,0.09-0.087,0.226-0.165,0.26c-0.184,0.082-0.472,0.225-0.573,0.149c-0.854-0.641-1.86-1.202-1.732-2.519
	c0.009-0.09,0.116-0.218,0.204-0.245c0.643-0.204,1.683,0.717,2.293,2.032C104.072,16.75,104.018,16.879,104.006,16.988z
	 M150.802,24.335c-0.281-0.16-0.536-0.222-0.622-0.376c-0.082-0.149-0.068-0.463,0.038-0.587c0.709-0.823,1.628-1.078,2.671-0.827
	c0.178,0.042,0.392,0.239,0.445,0.409c0.051,0.163-0.034,0.517-0.147,0.561C152.38,23.83,151.551,24.085,150.802,24.335z
	 M152.75,39.231c-1.045-0.054-2.066-0.444-2.999-1.07c-0.122-0.083-0.184-0.405-0.128-0.568c0.061-0.178,0.276-0.41,0.446-0.43
	c1.186-0.135,2.195,0.27,2.986,1.157c0.112,0.126,0.07,0.415,0.049,0.625C153.096,39.022,152.939,39.083,152.75,39.231z
	 M104.819,54.915c-0.092-0.188-0.292-0.399-0.258-0.563c0.229-1.115,0.738-2.082,1.696-2.748c0.164-0.114,0.449-0.194,0.611-0.128
	c0.142,0.059,0.313,0.418,0.256,0.523c-0.533,0.957-1.099,1.896-1.697,2.813C105.352,54.928,105.029,54.884,104.819,54.915z
	 M147.663,16.633c-0.104-0.185-0.227-0.361-0.302-0.557c-0.032-0.083,0.001-0.255,0.065-0.302c0.894-0.649,1.789-1.298,2.713-1.903
	c0.099-0.064,0.453,0.094,0.547,0.24c0.088,0.137,0.067,0.486-0.044,0.584c-0.757,0.66-1.539,1.292-2.342,1.895
	C148.158,16.698,147.88,16.625,147.663,16.633z M139.114,54.333c0.169-0.089,0.412-0.299,0.497-0.247
	c1.208,0.729,1.805,1.84,1.857,3.233c0.003,0.077-0.398,0.289-0.501,0.232C139.879,56.959,138.957,55.321,139.114,54.333z
	 M145.29,14.419c-0.109-0.171-0.34-0.372-0.307-0.508c0.322-1.309,1.302-1.933,2.513-2.258c0.167-0.045,0.535,0.097,0.566,0.215
	c0.067,0.265,0.095,0.705-0.061,0.833c-0.759,0.625-1.58,1.175-2.389,1.735C145.543,14.486,145.399,14.427,145.29,14.419z
	 M148.689,19.958c0.637-0.928,1.487-1.743,2.722-2.024c0.255-0.058,0.687,0.123,0.839,0.336c0.108,0.151-0.021,0.679-0.202,0.799
	c-0.9,0.597-1.846,1.127-2.798,1.638c-0.099,0.053-0.364-0.158-0.52-0.286C148.672,20.372,148.707,20.21,148.689,19.958z
	 M144.205,54.187c-0.188,0.093-0.418,0.307-0.559,0.26c-1.223-0.41-2.101-1.211-2.49-2.462c-0.047-0.15,0.147-0.394,0.267-0.568
	c0.043-0.064,0.213-0.106,0.291-0.075c1.188,0.483,1.976,1.379,2.514,2.514C144.27,53.943,144.215,54.076,144.205,54.187z
	 M121.733,6.175c0,0.08,0.058,0.747-0.03,1.393c-0.031,0.232-0.436,0.602-0.63,0.578c-0.24-0.029-0.545-0.365-0.637-0.633
	c-0.409-1.2-0.274-2.394,0.274-3.522c0.128-0.262,0.422-0.594,0.666-0.619c0.679-0.068,0.535,0.525,0.541,0.914
	C121.923,4.722,121.839,5.16,121.733,6.175z M102.883,31.783c-0.369-5.636,1.733-10.93,5.808-15.565
	c1.865-2.123,4.097-3.542,6.787-4.221c4.297-1.085,8.71-1.561,13.107-1.361c3.847,0.174,7.467,1.401,10.841,3.48
	c5.169,3.186,7.402,8.071,8.3,13.689c0.459,2.872,0.534,5.847-0.173,8.761c-1.183,4.875-3.834,8.874-7.324,12.369
	c-0.956,0.957-2,1.831-3.055,2.681c-1.047,0.843-1.586,1.882-1.542,3.224c0.066,2.031-0.016,4.079,0.227,6.089
	c0.659,5.457,0.213,10.609-3.579,14.972c-0.617,0.71-0.369,1.49-0.38,2.255c-0.025,1.854-0.783,3.26-2.446,4.142
	c-1.44,0.763-2.98,0.234-3.642-1.264c-0.091-0.205-0.215-0.429-0.206-0.639c0.091-2.191-0.925-3.539-2.953-4.366
	c-0.785-0.32-1.389-1.136-2.007-1.79c-0.288-0.306-0.548-0.752-0.591-1.158c-0.541-5.157-1.197-10.311-1.475-15.483
	c-0.114-2.122-0.828-3.188-2.681-4.118c-2.921-1.467-5.678-3.283-7.87-5.788c-3.329-3.803-5.01-8.258-5.144-13.302
	C102.867,33.711,102.883,33.033,102.883,31.783z M130.838,42.548c-0.075,0-0.15,0-0.225,0c0,2.376-0.035,4.752,0.012,7.127
	c0.033,1.712,0.638,2.223,2.362,1.979c0.764-0.108,1.517-0.41,2.228-0.729c0.801-0.36,0.888-0.943,0.338-1.603
	c-0.071-0.085-0.174-0.145-0.257-0.221c-0.476-0.435-1.301-0.859-0.713-1.592c0.548-0.684,1.224,0.005,1.823,0.232
	c0.419,0.159,0.838,0.434,1.26,0.44c0.4,0.006,0.916-0.165,1.183-0.446c0.407-0.43-0.016-0.777-0.364-1.074
	c-0.685-0.582-1.429-1.117-2.007-1.793c-0.313-0.366-0.62-1.162-0.437-1.447c0.455-0.71,0.936-0.011,1.367,0.27
	c0.754,0.491,1.454,1.103,2.267,1.448c0.414,0.177,1.212,0.068,1.511-0.233c0.577-0.584-0.094-0.933-0.545-1.239
	c-0.562-0.381-1.136-0.742-1.687-1.138c-0.366-0.264-0.749-0.531-1.033-0.872c-0.187-0.225-0.37-0.653-0.276-0.867
	c0.25-0.563,0.769-0.349,1.151-0.139c0.692,0.38,1.331,0.857,2.022,1.238c0.49,0.271,1.015,0.518,1.554,0.641
	c0.264,0.06,0.673-0.117,0.864-0.325c0.097-0.104-0.063-0.641-0.253-0.776c-0.823-0.587-1.742-1.045-2.545-1.656
	c-0.513-0.393-1.276-1.008-0.87-1.646c0.553-0.866,1.136,0.031,1.649,0.351c0.479,0.298,0.904,0.686,1.392,0.968
	c0.677,0.392,1.387,0.864,2.16,0.193c0.479-0.415,0.217-1.108-0.749-1.901c-0.611-0.501-1.263-0.953-1.898-1.423
	c-0.271-0.199-0.582-0.357-0.81-0.597c-0.137-0.144-0.258-0.54-0.194-0.592c0.229-0.19,0.574-0.438,0.812-0.385
	c0.536,0.122,1.056,0.372,1.542,0.642c0.59,0.327,1.125,0.752,1.714,1.08c0.148,0.082,0.52,0.033,0.601-0.085
	c0.241-0.354,0.458-0.756,0.556-1.169c0.11-0.472-0.078-0.944-0.602-1.031c-1.041-0.174-1.957-0.544-2.66-1.354
	c-0.296-0.34-0.649-0.732-0.219-1.14c0.176-0.166,0.632-0.173,0.898-0.078c0.526,0.186,0.987,0.605,1.519,0.707
	c0.325,0.063,0.947-0.207,1.039-0.468c0.102-0.286-0.154-0.854-0.433-1.084c-0.509-0.421-1.165-0.66-1.723-1.03
	c-0.13-0.087-0.196-0.422-0.141-0.594c0.054-0.167,0.283-0.331,0.469-0.389c0.203-0.063,0.454,0.038,0.666-0.01
	c0.283-0.063,0.551-0.2,0.824-0.305c-0.238-0.199-0.477-0.399-0.718-0.597c-0.45-0.367-0.985-0.853-0.185-1.246
	c0.802-0.395,0.831-0.925,0.776-1.647c-0.13-1.673-1.349-2.842-1.922-4.303c-1.347-3.423-4.223-5.329-7.283-6.748
	c-3.507-1.627-7.342-2.346-11.251-2.019c-3.379,0.282-6.739,0.738-10.045,1.577c-1.702,0.433-3.165,1.187-4.444,2.344
	c-2.651,2.399-4.656,5.245-5.758,8.665c-1.313,4.078-1.309,8.342-0.602,12.425c1.301,7.51,6.171,12.373,12.982,15.396
	c0.845,0.376,1.96,1.287,2.729,0.302c0.409-0.525,0.164-1.736-0.07-2.558c-0.778-2.728-1.391-5.469-1.672-8.303
	c-0.144-1.447-0.636-2.864-1.012-4.283c-0.19-0.717-0.669-1.106-1.46-1.178c-1.119-0.102-2.263-0.186-3.336-0.489
	c-1.701-0.481-2.549-1.813-2.825-3.486c-0.301-1.824,0.866-3.056,2.708-3.011c1.318,0.033,2.428,0.564,3.373,1.405
	c0.669,0.595,1.21,1.331,1.811,2.003c0.561,0.628,1.106,0.533,1.58-0.235c0.65-1.056,0.813-1.957-0.146-3.046
	c-0.715-0.813-1.135-1.937-1.493-2.988c-0.202-0.593-0.121-1.345,0.024-1.98c0.259-1.133,1.258-1.824,2.509-1.91
	c0.995-0.068,1.847,0.552,2.079,1.836c0.218,1.207,0.178,2.463,0.224,3.698c0.04,1.081,0.88,1.569,1.845,1.028
	c1.047-0.588,1.837-1.338,1.566-2.702c-0.087-0.443-0.142-0.894-0.213-1.341c-0.312-1.927,0.723-3.239,2.063-4.369
	c0.863-0.727,2.216-0.177,2.28,0.971c0.05,0.875-0.097,1.79-0.325,2.643c-0.232,0.866-0.709,1.663-1.011,2.514
	c-0.285,0.805,0.046,1.474,0.87,1.975c0.56,0.34,0.999,0.074,1.514-0.833c0.61-1.077,1.198-2.175,1.908-3.185
	c0.677-0.96,1.698-1.457,2.861-1.664c1.458-0.259,2.567,0.739,2.151,2.149c-0.685,2.318-1.662,4.577-4.239,5.334
	c-1.711,0.503-2.345,1.633-2.548,3.184c-0.189,1.453-0.353,2.915-0.425,4.378C130.782,39.605,130.838,41.079,130.838,42.548z
	 M129.741,32.625c0.402-0.983,0.033-1.627-0.814-2.246c-1.11-0.811-2.039-1.304-3.307-0.308c-0.599,0.471-1.405,0.94-2.12,0.944
	c-1.512,0.01-2.205,0.8-2.766,2.021c-0.274,0.596-0.728,1.157-1.224,1.595c-0.894,0.788-0.931,1.705-0.729,2.767
	c0.479,2.544,0.819,5.118,1.387,7.642c0.544,2.414,1.287,4.785,1.993,7.161c0.071,0.237,0.496,0.521,0.756,0.521
	c0.668-0.001,1.338-0.132,2.003-0.243c4.338-0.729,3.948-0.786,4.172-4.656C129.385,42.76,129.531,37.691,129.741,32.625z
	 M133.767,55.573c-0.313-0.131-0.446-0.231-0.494-0.2c-1.51,0.979-3.009,1.972-4.515,2.957c-0.942,0.616-1.858,1.289-2.856,1.8
	c-0.427,0.218-1.325,0.306-1.498,0.073c-0.427-0.576,0.229-0.937,0.664-1.264c1.625-1.221,3.256-2.435,4.867-3.673
	c0.144-0.111,0.254-0.411,0.21-0.579c-0.037-0.139-0.317-0.228-0.504-0.307c-0.098-0.041-0.229-0.037-0.336-0.016
	c-2.656,0.541-5.315,1.064-7.963,1.646c-0.915,0.201-1.267,0.983-1.22,1.814c0.185,3.268,0.413,6.534,0.687,9.797
	c0.074,0.889,0.711,1.364,1.604,1.473c1.951,0.239,3.836-0.123,5.687-0.671c0.885-0.262,2.17-0.259,1.568-1.88
	c-0.069-0.188,0.503-0.682,0.848-0.941c1.265-0.949,2.573-1.84,3.818-2.812c0.135-0.105,0.021-0.613-0.082-0.896
	c-0.039-0.107-0.453-0.217-0.562-0.139c-1.278,0.928-2.505,1.929-3.8,2.832c-0.719,0.501-1.531,0.873-2.327,1.252
	c-0.123,0.058-0.454-0.118-0.555-0.273c-0.1-0.151-0.12-0.5-0.015-0.612c0.378-0.404,0.813-0.758,1.245-1.108
	c1.907-1.545,3.9-2.998,5.776-5.34c-0.753,0.313-1.067,0.377-1.3,0.55c-1.538,1.149-3.016,2.386-4.601,3.465
	c-1.001,0.682-2.15,1.15-3.251,1.675c-0.091,0.042-0.345-0.211-0.489-0.359c-0.065-0.067-0.101-0.25-0.055-0.321
	c0.177-0.28,0.345-0.598,0.6-0.794c2.063-1.579,4.133-3.146,6.221-4.692C132.1,57.319,132.986,56.558,133.767,55.573z
	 M111.278,31.264c0,0.414-0.017,0.528,0.003,0.636c0.351,1.931,2.797,3.358,4.683,2.687c0.238-0.085,0.522-0.512,0.508-0.766
	c-0.101-1.838-2.043-3.649-3.854-3.481C112.096,30.388,111.627,31.009,111.278,31.264z M129.328,77.486
	c-0.225,0-0.451-0.009-0.676,0.003c-0.226,0.011-0.452,0.026-0.674,0.067c-0.773,0.146-1.151,0.647-1.091,1.425
	c0.057,0.72,0.309,1.394,1.009,1.625c0.729,0.24,1.304-0.262,1.729-0.8c0.269-0.34,0.438-0.777,0.573-1.197
	C130.372,78.075,129.888,77.476,129.328,77.486z M121.324,26.492c-0.034-0.381-0.057-0.82-0.12-1.255
	c-0.03-0.211-0.087-0.455-0.221-0.607c-0.202-0.231-0.514-0.584-0.72-0.547c-0.372,0.065-0.881,0.301-1.014,0.604
	c-0.494,1.124-0.114,2.351,0.904,3.23c0.129,0.111,0.431,0.118,0.606,0.053c0.175-0.066,0.362-0.264,0.418-0.443
	C121.276,27.218,121.276,26.878,121.324,26.492z M133.051,28.812c0.208-0.02,0.445,0.019,0.622-0.068
	c1.252-0.615,2.081-1.608,2.472-2.944c0.051-0.175-0.03-0.458-0.156-0.592c-0.118-0.127-0.424-0.226-0.565-0.16
	c-1.379,0.637-2.271,1.702-2.61,3.19C132.775,28.403,132.965,28.62,133.051,28.812z M128.803,23.125
	c-0.154-0.241-0.201-0.392-0.266-0.4c-0.189-0.022-0.512-0.057-0.56,0.033c-0.247,0.461-0.458,0.949-0.603,1.451
	c-0.04,0.138,0.157,0.445,0.312,0.506c0.129,0.05,0.442-0.1,0.521-0.244C128.458,24.011,128.637,23.513,128.803,23.125z
	 M132.588,67.125c0.444-0.266,0.919-0.539,1.376-0.838c0.062-0.04,0.067-0.222,0.042-0.322c-0.025-0.1-0.115-0.247-0.191-0.258
	c-0.554-0.068-1.575,0.644-1.536,1.064C132.286,66.857,132.414,66.933,132.588,67.125z M147.84,61.576
	c0.155-0.061,0.311-0.122,0.465-0.184c-0.351-1.046-0.718-2.087-1.035-3.143c-0.053-0.173,0.075-0.563,0.185-0.59
	c0.276-0.068,0.726-0.107,0.867,0.053c0.972,1.096,1.874,2.252,2.826,3.366c0.11,0.129,0.462,0.218,0.572,0.141
	c0.136-0.095,0.252-0.461,0.175-0.577c-0.679-1.025-1.437-2-2.103-3.033c-0.461-0.715-1.759-1.471-1.118-2.187
	c0.838-0.937,1.369,0.587,2.094,0.921c0.18,0.083,0.395,0.092,0.594,0.135c0.049-0.09,0.163-0.21,0.138-0.263
	c-0.343-0.707-0.715-1.399-1.06-2.105c-0.632-1.295,1.388-0.948,1.23-1.987c-0.146-0.972,0.462-1.143,1.241-1.028
	c0.629,0.092,1.18,0.782,1.994,0.169c-0.212-0.368-0.364-0.804-0.655-1.108c-0.791-0.826-0.676-1.576,0.019-2.381
	c0.425-0.493,1.172-1.096,1.105-1.552c-0.198-1.364,0.659-2.356,0.928-3.536c0.336-1.481,0.87-2.918,1.316-4.374
	c0.335-1.094-0.381-2.495,1.009-3.315c0.146-0.087-0.07-0.788-0.124-1.204c-0.069-0.537-0.363-1.174-0.171-1.587
	c0.367-0.792,0.193-1.489,0.141-2.273c-0.166-2.444-0.193-4.896-0.271-7.347c-0.007-0.221,0.101-0.546-0.01-0.649
	c-1.288-1.214-0.891-3.209-2.107-4.467c-0.362-0.375-0.717-0.951-0.723-1.438c-0.013-1.128-0.728-1.836-1.212-2.717
	c-1.051-1.906-2.98-3.015-4.146-4.797c-1.748-0.503-2.992-1.915-4.592-2.622c-2.782-1.228-5.59-2.44-8.68-2.78
	c-3.704-0.408-7.407-0.852-11.097-1.369c-4.789-0.672-9.476,0.137-14.142,0.969c-2.096,0.374-4.028,1.225-5.53,2.999
	c-1.072,1.268-2.439,2.497-3.935,3.134c-1.388,0.591-1.729,1.926-2.796,2.639c-0.2,2.095-2.092,3.36-2.585,5.373
	c-0.274,1.122-1.097,2.229-1.951,3.057c-0.818,0.792-1.143,1.528-1.117,2.637c0.024,1.097,0.066,2.364-0.433,3.26
	c-0.584,1.049,0.291,2.298-0.763,3.173c-0.825,0.685,0.023,2.001-0.982,2.754c-0.8,0.598-0.161,0.76,0.441,0.947
	c1.499,0.464,1.663,0.898,0.885,2.086c-0.184,0.281-0.493,0.487-0.647,0.779c-0.543,1.021-0.868,1.975-0.041,3.124
	c0.481,0.668,0.814,1.736,0.656,2.512c-0.349,1.716,0.394,3.201,0.613,4.786c0.129,0.932-0.112,2.114,1.3,2.433
	c0.202,0.045,0.458,0.565,0.423,0.832c-0.189,1.459,1.27,2.313,1.285,3.742c0.007,0.564,0.72,1.091,1.556,0.982
	c0.283-0.037,0.818,0.104,0.861,0.265c0.377,1.405,1.811,1.566,2.641,2.387c0.857,0.851,2.522,1.386,1.907,3.174
	c0.524,0.794,1.048,1.588,1.572,2.382c0.354-0.262,0.692-0.717,1.067-0.75c1.029-0.092,1.928,0.285,2.597,1.147
	c0.147,0.19,0.471,0.348,0.714,0.35c2.162,0.017,2.151,0.014,3.488,1.624c0.182,0.219,0.51,0.348,0.796,0.438
	c0.926,0.29,1.864,0.543,2.969,0.859c-0.577,2.633-0.188,5.268,0.27,7.919c0.224,1.296,0.872,2.353,1.922,2.798
	c0.843,0.357,1.028,0.662,0.87,1.416c-0.22,1.048-0.442,2.097-0.756,3.575c0.51-0.635,0.724-0.89,0.925-1.153
	c0.957-1.255,0.976-1.178,2.004-0.318c1.194,0.999,0.97,2.715,2.09,3.728c0.17,0.152,0.06,0.646,0.031,0.979
	c-0.047,0.561-0.132,1.119-0.248,2.062c1.611-2.268,1.611-2.265,4.753-2.225c0.197,0.003,0.439-0.012,0.586-0.121
	c2.353-1.759,5.328-2.774,6.762-5.65c0.091-0.184,0.547-0.294,0.809-0.258c0.41,0.057,0.803,0.396,1.06-0.246
	c0.411-1.031,0.659-2.214,1.339-3.03c1.034-1.242-0.079-2.383,0.176-3.539c0.071-0.326,0.065-0.671,0.151-0.992
	c0.52-1.945,0.684-3.903,0.339-5.901c-0.076-0.437-0.125-0.935,0.014-1.334c0.126-0.365,0.476-0.718,0.818-0.922
	c0.256-0.152,0.663-0.106,0.994-0.067c0.834,0.099,1.491,0.085,1.836-0.941c0.234-0.696,0.835-1.267,1.252-1.905
	c0.429-0.654,1.108-0.771,1.646-0.191C146.732,60.171,147.271,60.887,147.84,61.576z M112.945,125.941
	c1.834-3.007,2.183-3.937,2.32-6.193C113.058,122.882,112.81,123.545,112.945,125.941z M71.624,62.924
	c-0.301-0.177-0.389-0.268-0.481-0.272c-0.102-0.006-0.268,0.039-0.301,0.11c-0.376,0.813-0.767,1.624-1.067,2.467
	c-0.071,0.201,0.178,0.519,0.28,0.782c0.176-0.127,0.439-0.217,0.513-0.388C70.951,64.721,71.287,63.799,71.624,62.924z
	 M162.503,60.298c0.173-0.246,0.419-0.47,0.506-0.744c0.293-0.928,0.53-1.873,0.79-2.813
	C162.739,57.744,162.683,59.029,162.503,60.298z M96.645,101.231c-0.292,0.609-0.603,1.245-0.893,1.891
	c-0.017,0.038,0.124,0.189,0.213,0.219c0.084,0.026,0.249-0.007,0.289-0.07c0.334-0.531,0.652-1.072,0.957-1.621
	c0.032-0.056-0.03-0.201-0.092-0.261C97.058,101.328,96.942,101.324,96.645,101.231z M161.309,43.415
	c0.187-0.491,0.368-0.868,0.455-1.266c0.023-0.107-0.237-0.278-0.367-0.421c-0.201,0.348-0.438,0.681-0.58,1.051
	C160.779,42.873,161.042,43.083,161.309,43.415z M160.203,20.425c0.346-0.295,0.742-0.633,1.138-0.971
	c-0.188-0.1-0.38-0.291-0.563-0.283c-0.558,0.026-1.186,0.041-1.269,0.799C159.499,20.064,159.841,20.195,160.203,20.425z
	 M108.834,89.624c0.401-0.155,0.72-0.209,0.729-0.293c0.041-0.423,0.002-0.853-0.009-1.28c-0.24,0.114-0.634,0.181-0.688,0.354
	C108.757,88.75,108.834,89.155,108.834,89.624z M102.424,122.846c0.137,0.041,0.273,0.083,0.41,0.124
	c0.223-0.489,0.479-0.968,0.649-1.475c0.049-0.145-0.146-0.373-0.229-0.563c-0.173,0.135-0.444,0.237-0.501,0.409
	C102.597,121.829,102.528,122.343,102.424,122.846z M104.89,93.434c0.226-0.584,0.408-1.058,0.591-1.53
	c-0.188-0.032-0.52-0.132-0.542-0.085c-0.178,0.376-0.309,0.777-0.424,1.179C104.499,93.055,104.647,93.159,104.89,93.434z"/>
<path fill="#333333" d="M0.076,110.67c0-3.162-0.195-6.34,0.04-9.484c0.538-7.195,0.758-14.439,3.019-21.408
	C4.458,75.7,5.463,71.517,6.84,67.459c0.755-2.225,1.896-4.338,3.022-6.414c1.522-2.806,4.034-3.774,7.135-3.474
	c3.49,0.339,5.867,2.104,7.119,5.394c1.215,3.192,1.762,6.533,2.233,9.891c0.33,2.348,0.471,4.733,0.962,7.045
	c1.075,5.058,0.804,10.104,0.243,15.174c-0.112,1.007-0.211,2.023-0.198,3.035c0.016,1.167,0.43,1.686,1.584,1.81
	c2.242,0.243,4.498,0.365,6.749,0.533c0.559,0.042,1.123,0.037,1.672,0.127c0.155,0.024,0.337,0.291,0.383,0.478
	c0.047,0.192,0.02,0.523-0.106,0.617c-0.536,0.396-1.089,0.798-1.692,1.07c-2.366,1.069-4.721,2.176-7.144,3.1
	c-1.485,0.565-2.079,1.484-2.188,3.021c-0.381,5.455-1.847,10.715-3.756,15.765c-1.656,4.381-4.777,7.55-9.845,8.311
	c-5.87,0.882-12.323-4.058-12.378-9.74c-0.041-4.178-0.258-8.354-0.396-12.529C0.185,110.67,0.131,110.67,0.076,110.67z
	 M6.98,120.513c-0.018-2.116,2.51-4.266,5.131-4.363c2.303-0.086,3.898,1.773,3.868,4.505c-0.029,2.6-1.83,4.573-4.419,4.536
	C8.757,125.151,7.286,123.876,6.98,120.513z M8.99,91.939c0.343-4.483,0.676-9.771,1.179-15.044c0.27-2.824,1.301-5.477,2.405-8.085
	c0.644-1.523,1.79-2.359,3.391-2.347c1.497,0.011,2.548,0.943,3.066,2.296c0.397,1.037,0.72,2.156,0.784,3.257
	c0.159,2.701,0.284,5.417,0.185,8.118c-0.304,8.233-0.805,16.459-1.833,24.638c-0.207,1.652-0.849,3.258-1.366,4.861
	c-0.353,1.093-1.214,1.57-2.35,1.573c-0.338,0.001-0.676,0.05-1.015,0.047c-2.263-0.02-3.668-1.047-4.012-3.292
	c-0.305-1.999-0.374-4.043-0.418-6.07C8.942,98.846,8.99,95.798,8.99,91.939z M32.57,101.703c-1.68-0.235-3.006-0.512-4.345-0.587
	c-1.972-0.109-2.523-0.568-2.444-2.384c0.036-0.831-0.213-1.43-1.029-1.932c-0.9-0.554-0.838-0.82,0.177-1.308
	c0.551-0.266,1.106-0.483,0.97-1.133c-0.065-0.309-0.585-0.538-0.925-0.766c-0.181-0.121-0.527-0.104-0.602-0.25
	c-0.119-0.237-0.151-0.578-0.075-0.833c0.043-0.146,0.376-0.199,0.568-0.312c1.923-1.118,1.93-1.185,0.302-3.055
	c-0.395-0.453-0.288-0.797,0.215-1.062c0.298-0.156,0.733-0.23,0.866-0.474c0.191-0.352,0.234-0.83,0.189-1.237
	c-0.013-0.119-0.557-0.287-0.829-0.247c-0.543,0.08-1.178,0.41-1.416-0.304c-0.092-0.274,0.334-0.751,0.578-1.098
	c0.258-0.368,0.601-0.676,0.869-1.037c0.61-0.825,0.609-1.076-0.44-1.814c-0.746-0.526-0.855-0.955-0.246-1.606
	c0.421-0.45,0.287-0.731-0.276-0.934c-0.55-0.197-0.646-0.669-0.294-1.06c0.625-0.692,1.14-1.342,0.956-2.385
	c-0.569-3.225-0.975-6.482-1.656-9.682c-0.323-1.521-0.979-3.024-1.743-4.39c-2.217-3.957-8.262-4.229-10.825-0.512
	c-0.699,1.015-1.212,2.17-1.723,3.3c-1.822,4.03-2.939,8.291-4.226,12.509c-1.728,5.663-2.81,11.402-3.299,17.279
	c-0.141,1.688-0.515,3.374-0.494,5.057c0.084,7.122,0.269,14.241,0.438,21.361c0.021,0.901,0.091,1.814,0.261,2.699
	c1.271,6.611,9.176,10.063,14.878,6.502c0.563-0.353,1.321-0.809,1.073-1.542c-0.399-1.18-0.084-1.611,1.09-1.851
	c0.587-0.12,1.396-0.578,1.556-1.064c0.329-0.992-0.846-0.729-1.302-1.104c-0.173-0.141-0.392-0.262-0.491-0.445
	c-0.092-0.169-0.077-0.411-0.059-0.617c0.008-0.088,0.13-0.207,0.225-0.238c0.207-0.068,0.431-0.133,0.646-0.124
	c0.768,0.031,1.852,0.429,2.131-0.438c0.385-1.194-1.022-0.822-1.565-1.245c-0.264-0.206-0.567-0.375-0.78-0.623
	c-0.115-0.135-0.157-0.433-0.089-0.598c0.068-0.166,0.325-0.377,0.482-0.363c0.669,0.058,1.328,0.239,1.997,0.284
	c0.829,0.055,1.249-0.411,1.47-1.532c0.148-0.754-0.338-0.926-0.941-1.087c-0.524-0.139-1.026-0.402-1.498-0.679
	c-0.132-0.077-0.21-0.431-0.148-0.597c0.063-0.167,0.344-0.379,0.503-0.36c0.552,0.064,1.096,0.206,1.635,0.347
	c0.719,0.188,1.053-0.198,1.201-0.808c0.148-0.61,0.028-1.115-0.688-1.291c-0.329-0.08-0.679-0.135-0.972-0.291
	c-0.472-0.252-1.158-0.471-0.902-1.171c0.075-0.206,0.747-0.241,1.149-0.264c0.33-0.019,0.687,0.192,0.997,0.132
	c0.4-0.08,1.016-0.257,1.094-0.522c0.139-0.466,0.104-1.146-0.161-1.525c-0.366-0.528-1.034-0.838-1.53-1.287
	c-0.366-0.331-0.122-1.038,0.362-0.98c1.024,0.124,1.813,0.085,1.826-1.229c0.012-1.203,0.683-1.814,1.805-2.122
	c0.979-0.268,1.926-0.653,2.879-1.009C30.888,103.417,31.849,103.074,32.57,101.703z"/>
</svg>
