<?xml version="1.0" encoding="utf-8"?>
<!-- Generator: Adobe Illustrator 15.0.0, SVG Export Plug-In  -->
<!DOCTYPE svg PUBLIC "-//W3C//DTD SVG 1.1//EN" "http://www.w3.org/Graphics/SVG/1.1/DTD/svg11.dtd" [
	<!ENTITY ns_flows "http://ns.adobe.com/Flows/1.0/">
]>
<svg version="1.1"
	 xmlns="http://www.w3.org/2000/svg" xmlns:xlink="http://www.w3.org/1999/xlink" xmlns:a="http://ns.adobe.com/AdobeSVGViewerExtensions/3.0/"
	 x="0px" y="0px" width="633px" height="633px" viewBox="-2.5 -2.5 633 633" enable-background="new -2.5 -2.5 633 633"
	 xml:space="preserve">
<defs>
</defs>
<path fill="#FFFFFF" stroke="#FFFFFF" stroke-width="18" stroke-miterlimit="10" d="M597.84863,9H29.70557
	C22.85107,9,9,26.80176,9,33.65674v562.84131c0,6.85352,16.77979,22.50098,23.63428,22.50098h486.18701
	c6.85449,0,12.41406-5.55859,12.41406-12.41309c0-6.85352-5.55957-12.41406-12.41406-12.41406H73.44727
	c0,0-23.73975-2.36328-30.74365-9.36719c-7.31006-7.31055-8.87695-31.9873-8.87695-31.9873V73.09521
	c0,0,6.86328-21.02295,13.80566-27.96533c6.62402-6.62402,23.66357-11.30273,23.66357-11.30273h483.30664
	c0,0,24.2168,0.11523,31.21094,7.11084c6.81445,6.81494,8.35938,31.44092,8.35938,31.44092v534.20703
	c0,6.85449,5.56055,12.41309,12.41406,12.41309c6.85449,0,12.41309-5.55859,12.41309-12.41309V28.51465
	C619,18.61475,608.33105,9,597.84863,9z"/>
<path fill="#FFFFFF" stroke="#FFFFFF" stroke-width="18" stroke-miterlimit="10" d="M145.16504,138.14307
	c-26.23975,0-47.58447,21.34521-47.58447,47.58398c0,26.24023,21.34473,47.58545,47.58447,47.58545
	c26.24023,0,47.58496-21.34521,47.58496-47.58545C192.75,159.48828,171.40527,138.14307,145.16504,138.14307z M145.16504,208.48535
	c-12.54785,0-22.75781-10.20947-22.75781-22.7583c0-12.54736,10.20996-22.75684,22.75781-22.75684
	c12.54834,0,22.7583,10.20947,22.7583,22.75684C167.92334,198.27588,157.71533,208.48535,145.16504,208.48535z"/>
<path fill="#FFFFFF" stroke="#FFFFFF" stroke-width="18" stroke-miterlimit="10" d="M519.63672,173.31396H229.99023
	c-6.854,0-12.41309,5.55957-12.41309,12.41309c0,6.85498,5.55908,12.41357,12.41309,12.41357h289.64648
	c6.85547,0,12.41406-5.55859,12.41406-12.41357C532.05078,178.87354,526.49414,173.31396,519.63672,173.31396z"/>
<path fill="#FFFFFF" stroke="#FFFFFF" stroke-width="18" stroke-miterlimit="10" d="M145.16504,266.41504
	c-6.85352,0-12.41357,5.55859-12.41357,12.41309c0,6.85498,5.56006,12.41357,12.41357,12.41357
	c12.54834,0,22.7583,10.21045,22.7583,22.7583c0,12.54688-10.20996,22.75684-22.7583,22.75684
	c-12.54785,0-22.75781-10.20996-22.75781-22.75684c0-6.85449-5.55859-12.41357-12.41309-12.41357
	c-6.85498,0-12.41357,5.55908-12.41357,12.41357c0,26.23926,21.34473,47.58398,47.58447,47.58398
	c26.24023,0,47.58496-21.34473,47.58496-47.58398C192.75,287.75977,171.40527,266.41504,145.16504,266.41504z"/>
<path fill="#FFFFFF" stroke="#FFFFFF" stroke-width="18" stroke-miterlimit="10" d="M519.63672,301.58643H229.99023
	c-6.854,0-12.41309,5.55908-12.41309,12.41357s5.55908,12.41309,12.41309,12.41309h289.64648
	c6.85547,0,12.41406-5.55859,12.41406-12.41309S526.49414,301.58643,519.63672,301.58643z"/>
<path fill="#FFFFFF" stroke="#FFFFFF" stroke-width="18" stroke-miterlimit="10" d="M145.16504,394.68652
	c-26.23975,0-47.58447,21.3457-47.58447,47.58496c0,26.24121,21.34473,47.58398,47.58447,47.58398
	c26.24023,0,47.58496-21.34277,47.58496-47.58398C192.75,416.03223,171.40527,394.68652,145.16504,394.68652z M145.16504,465.0293
	c-12.54785,0-22.75781-10.20996-22.75781-22.75781c0-12.54688,10.20996-22.75781,22.75781-22.75781
	c12.54834,0,22.7583,10.21094,22.7583,22.75781C167.92334,454.81934,157.71533,465.0293,145.16504,465.0293z"/>
<path fill="#FFFFFF" stroke="#FFFFFF" stroke-width="18" stroke-miterlimit="10" d="M519.63672,429.8584H229.99023
	c-6.854,0-12.41309,5.55957-12.41309,12.41309c0,6.85547,5.55908,12.41309,12.41309,12.41309h289.64648
	c6.85547,0,12.41406-5.55762,12.41406-12.41309C532.05078,435.41797,526.49414,429.8584,519.63672,429.8584z"/>
</svg>
