<?xml version="1.0" encoding="utf-8"?>
<!-- Generator: Adobe Illustrator 15.0.0, SVG Export Plug-In . SVG Version: 6.00 Build 0)  -->
<!DOCTYPE svg PUBLIC "-//W3C//DTD SVG 1.1//EN" "http://www.w3.org/Graphics/SVG/1.1/DTD/svg11.dtd">
<svg version="1.1" id="Capa_1" xmlns="http://www.w3.org/2000/svg" xmlns:xlink="http://www.w3.org/1999/xlink" x="0px" y="0px"
	 width="754px" height="754.5px" viewBox="0 0 754 754.5" enable-background="new 0 0 754 754.5" xml:space="preserve">
<g>
	<path fill="#FFFFFF" d="M101.883,28.659c-9.204,5.236-14.891,15.007-14.891,25.594v645.996c0,16.259,13.183,29.437,29.435,29.437
		c16.257,0,29.438-13.178,29.438-29.437V198.834c0,0-1.84-34.653,24.885-48.763c26.646-14.07,54.817,3.411,54.817,3.411
		L500.417,317.1c0,0,40.208,15.573,40.083,48.382c-0.126,35.301-44.199,55.013-44.199,55.013l-235.095,151.47
		c-13.666,8.804-17.61,27.02-8.806,40.683c8.813,13.672,27.023,17.61,40.693,8.805l360.423-232.219
		c8.566-5.522,13.667-15.076,13.486-25.267c-0.179-10.189-5.616-19.562-14.372-24.777L131.486,28.957
		C122.382,23.543,111.087,23.427,101.883,28.659z"/>
</g>
</svg>
