<?xml version="1.0" encoding="utf-8"?>
<!-- Generator: Adobe Illustrator 15.0.0, SVG Export Plug-In . SVG Version: 6.00 Build 0)  -->
<!DOCTYPE svg PUBLIC "-//W3C//DTD SVG 1.1//EN" "http://www.w3.org/Graphics/SVG/1.1/DTD/svg11.dtd">
<svg version="1.1" id="Capa_1" xmlns="http://www.w3.org/2000/svg" xmlns:xlink="http://www.w3.org/1999/xlink" x="0px" y="0px"
	 width="754px" height="754.5px" viewBox="-142 0 754 754.5" enable-background="new -142 0 754 754.5" xml:space="preserve">
<g>
	<path fill="#FFFFFF" stroke="#FFFFFF" stroke-width="28" stroke-miterlimit="10" d="M550.044,218.139
		c-24.65-47.809-60.6-90.026-103.956-122.088c-6.363-4.703-15.331-3.36-20.037,3.001c-4.708,6.36-3.36,15.331,3.001,20.038
		c39.843,29.463,72.875,68.255,95.526,112.182c23.736,46.028,35.77,95.814,35.77,147.981c0,178.293-145.054,323.348-323.347,323.348
		c-178.293,0-323.348-145.055-323.348-323.35C-86.347,200.956,58.707,55.905,237,55.905c7.91,0,14.326-6.417,14.326-14.327
		c0-7.91-6.416-14.326-14.326-14.326c-194.092,0-351.999,157.906-351.999,351.999c0,194.093,157.907,351.998,351.999,351.998
		c194.094,0,351.999-157.904,351.999-351.998C588.999,323.274,575.529,267.562,550.044,218.139z"/>
	<path fill="#FFFFFF" stroke="#FFFFFF" stroke-width="28" stroke-miterlimit="10" d="M146.93,215.806
		c-4.479,2.548-7.247,7.304-7.247,12.456V542.66c0,7.913,6.416,14.326,14.326,14.326c7.912,0,14.327-6.413,14.327-14.326V298.627
		c0,0-0.896-16.865,12.111-23.732c12.968-6.848,26.679,1.66,26.679,1.66l133.765,79.631c0,0,13.967,7.579,13.906,23.547
		c-0.061,17.18-15.909,26.774-15.909,26.774L224.47,480.225c-6.65,4.285-8.57,13.15-4.285,19.8
		c4.289,6.654,13.152,8.571,19.805,4.285l175.413-113.018c4.169-2.687,6.651-7.337,6.563-12.297
		c-0.087-4.959-2.733-9.52-6.995-12.058L161.338,215.95C156.907,213.316,151.41,213.259,146.93,215.806z"/>
</g>
</svg>
