<?xml version="1.0" encoding="utf-8"?>
<!-- Generator: Adobe Illustrator 15.0.0, SVG Export Plug-In  -->
<!DOCTYPE svg PUBLIC "-//W3C//DTD SVG 1.1//EN" "http://www.w3.org/Graphics/SVG/1.1/DTD/svg11.dtd" [
	<!ENTITY ns_flows "http://ns.adobe.com/Flows/1.0/">
]>
<svg version="1.1"
	 xmlns="http://www.w3.org/2000/svg" xmlns:xlink="http://www.w3.org/1999/xlink" xmlns:a="http://ns.adobe.com/AdobeSVGViewerExtensions/3.0/"
	 x="0px" y="0px" width="553px" height="553px" viewBox="-90.464 -13.562 553 553" enable-background="new -90.464 -13.562 553 553"
	 xml:space="preserve">
<defs>
</defs>
<g>
	<path fill="#FFFFFF" d="M432.675,260.624c-6.846,0-6.846,0-6.846,0c-3.054,6.818-5.553,19.146-5.553,27.396v190.875
		c0,8.25-6.75,15-15,15H302.244c-8.25,0-15-6.75-15-15v-108.65c0-8.25-1.25-17.789-2.777-21.199
		c-1.526-3.41-16.371-6.199-24.621-6.199H192.73c-8.25,0-17.79,1.25-21.199,2.775c-3.41,1.527-6.199,16.373-6.199,24.623v79.939
		c0,8.25,2.499,20.578,5.553,27.396c0,0,0,0,6.846,0c6.845,0,6.845,0,6.845,0c3.054-6.818,5.553-19.146,5.553-27.396v-67.543
		c0-8.25,6.75-15,15-15h42.319c8.25,0,15,6.75,15,15v96.254c0,8.25-6.75,15-15,15H47.295c-8.25,0-15-6.75-15-15V205.44
		c0-8.25,5.267-19.221,11.705-24.38L206.901,50.511c6.438-5.159,14.054-10.495,16.925-11.856c0,0,0,0,2.46,0
		c2.51,0,5.876,1.032,7.835,2.602c47.7,38.225,179.095,143.525,179.095,143.525c6.438,5.159,14.662,10.15,18.277,11.09
		s11.624-6.589,12.564-10.204c0.941-3.614-8.899-15.076-15.338-20.235L245.744,18.792c-6.438-5.159-14.176-10.198-17.193-11.196
		c-3.019-0.999-15.284,6.037-21.722,11.196L23.85,165.433c-6.438,5.159-12.75,10.71-14.027,12.335S7.5,191.238,7.5,199.488V491.29
		c0,8.25,1.249,17.791,2.775,21.199c1.526,3.41,16.373,6.199,24.623,6.199h382.778c8.25,0,17.79-1.248,21.199-2.775
		s6.199-16.373,6.199-24.623V288.02c0-8.25-2.498-20.578-5.551-27.396C439.523,260.624,439.523,260.624,432.675,260.624z"/>
	<path fill="none" stroke="#FFFFFF" stroke-width="15" stroke-linejoin="round" stroke-miterlimit="10" d="M432.675,260.624
		c-6.846,0-6.846,0-6.846,0c-3.054,6.818-5.553,19.146-5.553,27.396v190.875c0,8.25-6.75,15-15,15H302.244c-8.25,0-15-6.75-15-15
		v-108.65c0-8.25-1.25-17.789-2.777-21.199c-1.526-3.41-16.371-6.199-24.621-6.199H192.73c-8.25,0-17.79,1.25-21.199,2.775
		c-3.41,1.527-6.199,16.373-6.199,24.623v79.939c0,8.25,2.499,20.578,5.553,27.396c0,0,0,0,6.846,0c6.845,0,6.845,0,6.845,0
		c3.054-6.818,5.553-19.146,5.553-27.396v-67.543c0-8.25,6.75-15,15-15h42.319c8.25,0,15,6.75,15,15v96.254c0,8.25-6.75,15-15,15
		H47.295c-8.25,0-15-6.75-15-15V205.44c0-8.25,5.267-19.221,11.705-24.38L206.901,50.511c6.438-5.159,14.054-10.495,16.925-11.856
		c0,0,0,0,2.46,0c2.51,0,5.876,1.032,7.835,2.602c47.7,38.225,179.095,143.525,179.095,143.525
		c6.438,5.159,14.662,10.15,18.277,11.09s11.624-6.589,12.564-10.204c0.941-3.614-8.899-15.076-15.338-20.235L245.744,18.792
		c-6.438-5.159-14.176-10.198-17.193-11.196c-3.019-0.999-15.284,6.037-21.722,11.196L23.85,165.433
		c-6.438,5.159-12.75,10.71-14.027,12.335S7.5,191.238,7.5,199.488V491.29c0,8.25,1.249,17.791,2.775,21.199
		c1.526,3.41,16.373,6.199,24.623,6.199h382.778c8.25,0,17.79-1.248,21.199-2.775s6.199-16.373,6.199-24.623V288.02
		c0-8.25-2.498-20.578-5.551-27.396C439.523,260.624,439.523,260.624,432.675,260.624z"/>
</g>
</svg>
