<?xml version="1.0" encoding="utf-8"?>
<!-- Generator: Adobe Illustrator 15.0.0, SVG Export Plug-In  -->
<!DOCTYPE svg PUBLIC "-//W3C//DTD SVG 1.1//EN" "http://www.w3.org/Graphics/SVG/1.1/DTD/svg11.dtd" [
	<!ENTITY ns_flows "http://ns.adobe.com/Flows/1.0/">
]>
<svg version="1.1"
	 xmlns="http://www.w3.org/2000/svg" xmlns:xlink="http://www.w3.org/1999/xlink" xmlns:a="http://ns.adobe.com/AdobeSVGViewerExtensions/3.0/"
	 x="0px" y="0px" width="533px" height="533px" viewBox="-0.5 -0.593 533 533" enable-background="new -0.5 -0.593 533 533"
	 xml:space="preserve">
<defs>
</defs>
<path fill="#FFFFFF" stroke="#FFFFFF" stroke-width="20" stroke-miterlimit="10" d="M447.048,84.87
	c-99.823-99.826-262.252-99.826-362.076,0c-35.023,35.023-58.981,79.024-69.285,127.248C5.655,259.073,8.94,307.721,25.188,352.8
	c1.952,5.413,7.925,8.22,13.336,6.27c5.415-1.952,8.222-7.923,6.27-13.336c-14.927-41.419-17.945-86.116-8.727-129.265
	c9.46-44.278,31.467-84.691,63.642-116.865c91.699-91.7,240.904-91.7,332.604,0c43.669,43.671,68.114,101.72,68.832,163.458
	c0.717,61.625-22.249,120.138-64.664,164.757c-0.502,0.528-0.999,1.06-1.496,1.591c-0.878,0.939-1.755,1.881-2.672,2.798
	c-91.7,91.699-240.905,91.699-332.604,0c-0.488-0.488-0.964-0.984-1.435-1.481c-0.024-0.962-0.045-1.91-0.045-2.845
	c0-2.098,0.039-4.187,0.116-6.27c0.025-0.696,0.078-1.386,0.112-2.08c0.068-1.385,0.132-2.769,0.233-4.146
	c0.061-0.821,0.149-1.635,0.222-2.452c0.109-1.242,0.212-2.483,0.348-3.719c0.096-0.872,0.221-1.736,0.33-2.604
	c0.147-1.173,0.288-2.349,0.462-3.516c0.132-0.889,0.288-1.77,0.434-2.653c0.187-1.138,0.367-2.275,0.577-3.406
	c0.165-0.895,0.354-1.779,0.535-2.669c0.224-1.109,0.444-2.222,0.69-3.324c0.2-0.895,0.423-1.783,0.636-2.673
	c0.261-1.085,0.52-2.171,0.801-3.247c0.234-0.893,0.488-1.778,0.734-2.666c0.297-1.063,0.593-2.128,0.91-3.184
	c0.266-0.886,0.551-1.765,0.832-2.644c0.334-1.043,0.667-2.089,1.02-3.124c0.299-0.873,0.611-1.742,0.924-2.61
	c0.37-1.028,0.741-2.056,1.131-3.077c0.33-0.863,0.672-1.718,1.016-2.574c0.405-1.009,0.813-2.018,1.236-3.019
	c0.361-0.851,0.733-1.694,1.108-2.539c0.439-0.991,0.884-1.979,1.343-2.961c0.391-0.835,0.79-1.665,1.194-2.493
	c0.476-0.975,0.957-1.947,1.45-2.911c0.419-0.816,0.844-1.629,1.276-2.438c0.511-0.959,1.03-1.914,1.56-2.863
	c0.446-0.799,0.898-1.595,1.356-2.385c0.546-0.939,1.1-1.874,1.664-2.805c0.474-0.781,0.953-1.56,1.439-2.334
	c0.58-0.921,1.169-1.836,1.767-2.744c0.5-0.763,1.004-1.521,1.516-2.275c0.613-0.903,1.24-1.796,1.872-2.687
	c0.526-0.741,1.053-1.481,1.591-2.213c0.648-0.882,1.31-1.756,1.975-2.624c0.551-0.719,1.1-1.438,1.662-2.148
	c0.683-0.863,1.381-1.716,2.081-2.564c0.571-0.695,1.143-1.39,1.727-2.076c0.719-0.844,1.453-1.676,2.189-2.506
	c0.594-0.67,1.185-1.342,1.789-2.002c0.754-0.823,1.522-1.631,2.294-2.438c0.615-0.646,1.227-1.294,1.852-1.932
	c0.79-0.802,1.598-1.587,2.403-2.375c0.632-0.617,1.259-1.24,1.901-1.849c0.83-0.784,1.68-1.551,2.525-2.318
	c0.646-0.585,1.283-1.178,1.938-1.754c0.873-0.77,1.77-1.516,2.66-2.268c0.653-0.551,1.3-1.11,1.961-1.652
	c0.922-0.754,1.867-1.484,2.809-2.221c0.656-0.513,1.303-1.037,1.966-1.541c0.991-0.752,2.004-1.478,3.015-2.207
	c0.638-0.462,1.263-0.935,1.909-1.388c1.114-0.783,2.256-1.539,3.394-2.298c0.561-0.373,1.109-0.761,1.674-1.129
	c1.483-0.964,2.992-1.896,4.512-2.816c0.236-0.143,0.466-0.296,0.703-0.438c1.758-1.053,3.54-2.074,5.343-3.067
	c0.616-0.339,1.25-0.656,1.874-0.988c1.196-0.639,2.39-1.283,3.606-1.895c0.78-0.393,1.579-0.761,2.365-1.141
	c0.994-0.481,1.983-0.968,2.989-1.432c18.887,18.041,44.081,28.255,70.232,28.255s51.348-10.216,70.233-28.258
	c36.869,17.063,67.044,47.679,83.427,84.91c2.316,5.266,8.463,7.661,13.733,5.342c5.268-2.318,7.659-8.468,5.34-13.733
	c-17.919-40.726-49.115-73.27-88.603-92.915c11.457-16.807,17.655-36.651,17.655-57.131c0-56.125-45.661-101.786-101.786-101.786
	c-5.754,0-10.421,4.667-10.421,10.42c0,5.754,4.667,10.421,10.421,10.421c44.635,0,80.946,36.313,80.946,80.945
	c0,19.958-7.418,39.177-20.885,54.11c-0.001,0.002-0.003,0.004-0.005,0.006c-15.377,17.051-37.267,26.83-60.059,26.83
	c-22.793,0-44.684-9.779-60.059-26.83c-0.002-0.004-0.005-0.006-0.009-0.007c-13.465-14.939-20.88-34.152-20.88-54.107
	c0-21.785,8.528-42.223,24.017-57.544c4.092-4.048,4.126-10.646,0.078-14.735c-4.047-4.094-10.645-4.125-14.736-0.08
	c-19.474,19.26-30.199,44.958-30.199,72.353c0,20.458,6.183,40.29,17.62,57.087c-0.102,0.051-0.201,0.106-0.302,0.158
	c-0.813,0.406-1.606,0.837-2.412,1.252c-1.235,0.64-2.474,1.274-3.69,1.94c-0.861,0.469-1.704,0.962-2.557,1.442
	c-1.138,0.645-2.276,1.285-3.398,1.951c-0.87,0.518-1.727,1.052-2.588,1.582c-1.077,0.663-2.153,1.325-3.215,2.007
	c-0.866,0.558-1.718,1.131-2.573,1.701c-1.03,0.686-2.059,1.375-3.072,2.08c-0.854,0.594-1.695,1.2-2.538,1.807
	c-0.989,0.713-1.976,1.431-2.95,2.162c-0.835,0.627-1.66,1.262-2.483,1.901c-0.955,0.741-1.903,1.488-2.842,2.247
	c-0.813,0.656-1.618,1.321-2.421,1.99c-0.922,0.771-1.837,1.551-2.743,2.34c-0.787,0.683-1.568,1.37-2.343,2.066
	c-0.895,0.804-1.777,1.617-2.654,2.437c-0.757,0.707-1.513,1.415-2.26,2.136c-0.866,0.838-1.719,1.687-2.57,2.539
	c-0.726,0.729-1.451,1.454-2.163,2.192c-0.843,0.873-1.669,1.763-2.494,2.651c-0.689,0.743-1.385,1.483-2.062,2.239
	c-0.825,0.917-1.627,1.853-2.434,2.785c-0.647,0.75-1.301,1.494-1.936,2.253c-0.818,0.978-1.61,1.975-2.407,2.968
	c-0.593,0.74-1.197,1.469-1.778,2.218c-0.838,1.077-1.646,2.174-2.46,3.269c-0.51,0.688-1.034,1.363-1.535,2.058
	c-1.027,1.425-2.022,2.869-3.01,4.321c-0.259,0.382-0.533,0.754-0.79,1.138c-1.228,1.834-2.421,3.688-3.583,5.564
	c-0.4,0.647-0.777,1.31-1.17,1.96c-0.752,1.249-1.508,2.496-2.231,3.762c-0.452,0.791-0.879,1.595-1.318,2.392
	c-0.634,1.146-1.271,2.289-1.879,3.449c-0.452,0.859-0.879,1.729-1.318,2.597c-0.566,1.118-1.134,2.235-1.678,3.365
	c-0.433,0.899-0.844,1.81-1.263,2.715c-0.514,1.116-1.03,2.231-1.523,3.358c-0.406,0.93-0.795,1.867-1.186,2.804
	c-0.471,1.123-0.938,2.247-1.386,3.379c-0.377,0.952-0.738,1.909-1.1,2.866c-0.428,1.136-0.85,2.273-1.256,3.417
	c-0.344,0.972-0.677,1.947-1.007,2.925c-0.388,1.148-0.765,2.3-1.129,3.458c-0.312,0.984-0.611,1.973-0.907,2.963
	c-0.347,1.169-0.683,2.341-1.007,3.519c-0.274,0.993-0.544,1.988-0.803,2.988c-0.307,1.19-0.599,2.385-0.884,3.583
	c-0.238,1.001-0.474,1.999-0.694,3.003c-0.268,1.214-0.516,2.435-0.759,3.657c-0.2,1.001-0.403,2.001-0.588,3.007
	c-0.227,1.247-0.432,2.501-0.635,3.756c-0.16,0.99-0.329,1.979-0.473,2.972c-0.189,1.296-0.35,2.599-0.513,3.9
	c-0.119,0.966-0.252,1.93-0.357,2.899c-0.149,1.364-0.264,2.738-0.384,4.112c-0.08,0.915-0.176,1.827-0.241,2.747
	c-0.111,1.533-0.185,3.074-0.259,4.616c-0.037,0.766-0.094,1.526-0.122,2.294c-0.083,2.313-0.13,4.636-0.13,6.966
	c0,2.517,0.085,4.896,0.188,7.523c0.024,0.608,0.109,1.198,0.23,1.775c0.011,0.045,0.016,0.09,0.026,0.135
	c0.129,0.568,0.31,1.113,0.526,1.642c0.021,0.052,0.04,0.104,0.063,0.156c0.224,0.521,0.491,1.018,0.794,1.49
	c0.038,0.059,0.074,0.118,0.112,0.176c0.312,0.463,0.657,0.899,1.033,1.306c0.028,0.029,0.047,0.065,0.075,0.096l1.375,1.464
	c1.039,1.111,2.077,2.22,3.161,3.302c49.913,49.912,115.475,74.868,181.039,74.868c65.563,0,131.126-24.956,181.039-74.869
	c1.083-1.081,2.122-2.191,3.16-3.301l1.376-1.464c46.177-48.577,71.179-112.272,70.398-179.357
	C521.201,195.608,494.589,132.41,447.048,84.87z"/>
</svg>
