<?xml version="1.0" encoding="utf-8"?>
<!-- Generator: Adobe Illustrator 19.0.0, SVG Export Plug-In . SVG Version: 6.00 Build 0)  -->
<svg version="1.1" id="Lager_1" xmlns="http://www.w3.org/2000/svg" xmlns:xlink="http://www.w3.org/1999/xlink" x="0px" y="0px"
	 viewBox="0 0 536.973 530.973" style="enable-background:new 0 0 536.973 530.973;" xml:space="preserve">
<style type="text/css">
	.st0{fill:#FFFFFF;}
	.st1{fill:#FFFFFF;stroke:#FFFFFF;stroke-width:22;stroke-miterlimit:10;}
</style>
<g>
	<path class="st0" d="M226.997,158.018c1.399-11.415,1.346-21.119,3.972-30.033c3.963-13.454,9.372-26.543,15.015-39.414
		c2.758-6.29,7.284-11.843,11.274-17.544c4.72-6.744,9.905-7.599,15.313-0.418c7.544,10.02,13.594,20.801,18.785,32.304
		c15.128,33.521,13.011,67.602,4.328,101.897c-4.088,16.145-9.429,31.975-14.289,47.921c-4.079,13.383-7.683,26.827-8.092,40.954
		c-0.132,4.554-3.012,7.048-7.033,7.066c-4.953,0.022-8.24-2.664-8.502-7.674c-0.806-15.408-4.476-30.237-8.678-44.971
		c-5.467-19.17-11.404-38.219-16.317-57.528C229.916,179.347,228.666,167.707,226.997,158.018z"/>
	<path class="st0" d="M161.408,192.92c20.555,0.606,37.527,6.633,52.236,19.47c17.179,14.992,26.676,34.099,31.835,55.788
		c1.769,7.439,3.483,14.904,4.815,22.43c1.13,6.386-0.523,8.934-5.562,10.099c-6.011,1.389-9.907-0.611-11.908-6.095
		c-3.696-10.135-6.639-20.633-11.287-30.312c-6.096-12.694-15.664-22.809-28.421-29.167c-12.726-6.342-24.92-4.138-37.1,2.768
		c-14.341,8.131-16.943,32.465-7.283,43.944c6.531,7.761,15.195,8.937,24.578,7.168c2.096-0.395,4.087-1.374,6.187-1.707
		c1.278-0.203,2.671,0.315,4.013,0.508c-0.323,1.424-0.162,3.479-1.053,4.162c-3.595,2.755-7.223,5.838-11.365,7.443
		c-15.959,6.182-32.273,6.958-47.813-0.823c-6.302-3.156-12.27-8.077-16.759-13.537c-10.707-13.024-17.77-45.321-0.782-66.3
		c11.11-13.72,26.023-21.479,43.335-24.536C153.559,193.429,158.154,193.25,161.408,192.92z"/>
	<path class="st0" d="M348.427,286.488c3.192,0.605,5.696,0.861,8.066,1.566c11.974,3.562,21.127,0.298,28.956-9.726
		c6.885-8.814,6.279-23.817,2.165-30.788c-9.968-16.894-29.926-20.197-44.077-15.454c-9.262,3.105-16.5,9.299-22.547,16.407
		c-10.457,12.293-17.82,26.367-20.642,42.56c-1.285,7.37-3.786,9.252-10.181,8.754c-4.139-0.323-6.485-2.36-5.72-6.351
		c2.496-13.017,5.092-26.04,8.414-38.862c1.393-5.379,4.708-10.259,7.142-15.369c5.255-11.03,12.936-20.408,22.383-27.749
		c22.91-17.803,48.426-21.896,75.916-11.908c16.364,5.946,28.714,16.727,35.083,32.818c2.716,6.861,2.712,15.135,2.528,22.733
		c-0.304,12.536-5.402,23.714-13.957,32.704c-11.579,12.168-26.484,16.157-42.965,14.98c-8.541-0.61-16.565-3.018-23.975-7.238
		C351.983,293.838,348.99,291.737,348.427,286.488z"/>
	<path class="st0" d="M265.333,332.316c6.662,0.145,8.224,1.631,8.881,8.227c0.722,7.247,0.793,14.655,2.435,21.693
		c3.419,14.665,5.542,30.097,14.03,42.795c4.95,7.406,3.951,12.313-0.659,18.678c-3.744,5.17-6.213,11.243-9.636,16.67
		c-3.452,5.472-7.025,10.949-11.231,15.834c-2.793,3.244-5.813,2.565-8.683-0.744c-0.744-0.858-1.366-1.837-1.95-2.817
		c-6.188-10.39-12.216-20.879-18.59-31.152c-3.154-5.084-3.178-9.568-0.07-14.734c9.984-16.591,14.241-34.966,16.013-54.033
		c0.396-4.268,0.622-8.551,1.024-12.818C257.467,333.839,259.349,332.185,265.333,332.316z"/>
	<path class="st0" d="M196.731,366.798c-0.396,8.19,1.985,9.905,9.651,6.768c11.63-4.759,17.735-14.233,21.629-25.577
		c1.456-4.243,2.529-8.739,4.729-12.574c2.657-4.631,6.903-5.722,10.875-3.958c3.856,1.713,5.714,5.729,4.369,10.734
		c-1.69,6.292-3.464,12.601-5.798,18.674c-6.876,17.889-19.646,30.321-37.32,37.152c-14.042,5.427-28.395,5.391-40.347-5.034
		c-8.058-7.027-13.952-16.233-11.958-27.765c2.068-11.956,14.459-20.874,29.05-17.418
		C192.482,350.375,197.233,356.418,196.731,366.798z"/>
	<path class="st0" d="M344.58,399.955c-11.331-0.449-21.363-4.295-30.523-10.993c-8.262-6.041-14.035-13.882-19.245-22.568
		c-4.849-8.084-6.802-16.771-8.125-25.787c-0.519-3.536-0.598-7.113,4.069-8.071c4.854-0.997,8.179,0.918,9.652,5.538
		c0.954,2.993,1.792,6.025,2.592,9.064c2.283,8.681,7.082,15.985,13.74,21.646c3.865,3.286,8.975,5.422,13.86,7.099
		c4.456,1.529,7.023-1.126,6.861-5.912c-0.019-0.57-0.046-1.151-0.168-1.704c-2.493-11.286,6.943-17.903,15.227-19.39
		c7.062-1.268,13.65,0.356,19.602,4.276c5.526,3.64,8.03,12.993,6.219,21.513C375.212,389.38,360.925,400.561,344.58,399.955z"/>
	<path class="st0" d="M265.329,323.901c-14.019,0-28.038,0.01-42.057-0.005c-5.073-0.005-8.611-3.233-8.711-7.876
		c-0.103-4.756,3.558-8.537,8.633-8.544c28.039-0.037,56.078-0.035,84.117,0.049c5.717,0.017,8.997,2.311,9.957,6.357
		c1.278,5.389-2.549,10.058-8.598,10.099c-14.446,0.098-28.894,0.032-43.341,0.032C265.329,323.975,265.329,323.938,265.329,323.901
		z"/>
	<path class="st0" d="M171.331,249.723c8.092-0.61,18.223,7.029,18.153,16.13c-0.067,8.776-8.974,16.485-19.35,16.509
		c-8.196,0.019-17.07-8.579-17.029-16.499C153.147,257.48,161.935,249.698,171.331,249.723z"/>
	<path class="st0" d="M359.615,249.725c9.907-0.051,17.96,7.247,17.926,16.244c-0.034,8.926-8.589,16.045-18.941,16.47
		c-10.037,0.412-16.493-9.677-16.567-16.267C341.93,256.975,349.555,249.776,359.615,249.725z"/>
</g>
<path class="st1" d="M29.042,189.498c-11.578,36.223-14.71,75.302-9.064,113.003c0.829,5.533,5.984,9.344,11.518,8.518
	c5.533-0.826,9.345-5.985,8.518-11.518c-5.19-34.647-2.31-70.554,8.327-103.837c11.144-34.877,30.017-65.782,56.097-91.861
	c89.132-89.133,234.164-89.135,323.297-0.001c89.132,89.132,89.132,234.164-0.002,323.298s-234.164,89.133-323.296,0
	c-3.955-3.954-10.37-3.954-14.325,0c-3.954,3.954-3.954,10.369,0,14.325c97.03,97.03,254.913,97.031,351.945-0.001
	c97.031-97.03,97.029-254.912-0.001-351.943C345.023-7.552,187.143-7.554,90.111,89.479C62.127,117.463,41.01,152.05,29.042,189.498
	z"/>
</svg>
