<?xml version="1.0" encoding="utf-8"?>
<!-- Generator: Adobe Illustrator 15.0.0, SVG Export Plug-In  -->
<!DOCTYPE svg PUBLIC "-//W3C//DTD SVG 1.1//EN" "http://www.w3.org/Graphics/SVG/1.1/DTD/svg11.dtd" [
	<!ENTITY ns_flows "http://ns.adobe.com/Flows/1.0/">
]>
<svg version="1.1"
	 xmlns="http://www.w3.org/2000/svg" xmlns:xlink="http://www.w3.org/1999/xlink" xmlns:a="http://ns.adobe.com/AdobeSVGViewerExtensions/3.0/"
	 x="0px" y="0px" width="633px" height="633px" viewBox="-4.56201 -4.56055 633 633"
	 enable-background="new -4.56201 -4.56055 633 633" xml:space="preserve">
<defs>
</defs>
<path fill="#FFFFFF" stroke="#FFFFFF" stroke-width="18" stroke-miterlimit="10" d="M219.43701,600.62109
	c44.11523,14.10059,91.70752,17.91504,137.62305,11.04004c6.73828-1.01074,11.37988-7.28809,10.37305-14.02734
	c-1.00586-6.73828-7.28906-11.38086-14.02734-10.37305c-42.1958,6.32031-85.9248,2.81348-126.45947-10.14063
	c-42.4751-13.57129-80.11377-36.55664-111.87451-68.31836C6.52002,400.25098,6.51855,223.62158,115.0708,115.06982
	C223.62158,6.51855,400.25146,6.51953,508.8042,115.07178s108.55176,285.18018,0,393.72998
	c-4.81543,4.81738-4.81543,12.62988,0,17.44531s12.62793,4.81543,17.44531,0
	c118.16992-118.16992,118.1709-310.44873-0.00098-428.62012C408.07861-20.54346,215.80078-20.5415,97.63037,97.62842
	C-20.54199,215.80078-20.54395,408.07617,97.62793,526.24805C131.70898,560.3291,173.83057,586.0459,219.43701,600.62109z"/>
<path fill="#FFFFFF" stroke="#FFFFFF" stroke-width="20" stroke-miterlimit="10" d="M194.5083,224.41211
	c-34.04932,0-64.06104,17.55225-81.51172,44.07031H71.59521c-5.6626,0-10.25537,4.59277-10.25537,10.25391
	c0,5.6626,4.59277,10.25537,10.25537,10.25537h31.12793c-3.70703,10.29688-5.74072,21.38818-5.74072,32.94482
	c0,53.77539,43.75,97.52637,97.52588,97.52637s97.52588-43.75098,97.52588-97.52637S248.28418,224.41211,194.5083,224.41211z
	 M194.5083,398.95313c-42.46631,0-77.01611-34.55078-77.01611-77.0166c0-42.4668,34.5498-77.01709,77.01611-77.01709
	s77.01563,34.55029,77.01563,77.01709C271.52393,364.40234,236.97461,398.95313,194.5083,398.95313z"/>
<path fill="#FFFFFF" stroke="#FFFFFF" stroke-width="20" stroke-miterlimit="10" d="M552.27783,268.48242h-46.23145
	c-4.94629-7.54395-10.94043-14.43701-17.87402-20.41943c-17.68457-15.25244-40.29492-23.65088-63.67285-23.65088
	c-34.91992,0-65.59766,18.46045-82.82813,46.12207c-7.47852-9.5625-19.11133-15.72754-32.16699-15.72754
	c-6.83887,0-13.61084,1.72949-19.58008,4.99414c-4.96924,2.71973-6.79297,8.95117-4.07373,13.92139
	c2.71777,4.96631,8.94922,6.78809,13.91895,4.07373c3.00293-1.64551,6.27783-2.47754,9.73486-2.47754
	c11.20605,0,20.32227,9.11621,20.32227,20.32129c0,0.69824,0.07129,1.37939,0.2041,2.03906
	c-1.99609,7.75977-3.05762,15.88867-3.05762,24.26074c0,53.77734,43.75,97.52637,97.52637,97.52637
	c40.37402,0,77.05957-25.37598,91.29199-63.14453c1.99707-5.30078-0.67969-11.2168-5.9834-13.20996
	c-5.29688-2-11.21484,0.67773-13.21094,5.97949c-11.23828,29.8252-40.20996,49.86621-72.09766,49.86621
	c-42.46777,0-77.0166-34.54883-77.0166-77.01563c0-42.46631,34.54883-77.0166,77.0166-77.0166
	c38.16309,0,70.15625,27.31055,76.07617,64.93799c0.87988,5.59424,6.12695,9.41357,11.72559,8.53564
	c5.59473-0.87988,9.41602-6.12891,8.53613-11.72266c-0.95117-6.0542-2.49414-11.96777-4.5459-17.68066h35.98828
	c5.66406,0,10.25586-4.59375,10.25586-10.25537C562.53564,273.07764,557.94385,268.48242,552.27783,268.48242z"/>
</svg>
