<?xml version="1.0" encoding="utf-8"?>
<!-- Generator: Adobe Illustrator 15.0.0, SVG Export Plug-In . SVG Version: 6.00 Build 0)  -->
<!DOCTYPE svg PUBLIC "-//W3C//DTD SVG 1.1//EN" "http://www.w3.org/Graphics/SVG/1.1/DTD/svg11.dtd">
<svg version="1.1" id="Capa_1" xmlns="http://www.w3.org/2000/svg" xmlns:xlink="http://www.w3.org/1999/xlink" x="0px" y="0px"
	 width="576.5px" height="576.5px" viewBox="-64.5 0 576.5 576.5" enable-background="new -64.5 0 576.5 576.5"
	 xml:space="preserve">
<g>
	<path fill="#FFFFFF" d="M430.138,284.668c-6.846,0-12.398,5.336-12.398,11.914v188.193c0,0-3.49,12.08-7.748,16.338
		c-4.332,4.332-16.76,7.746-16.76,7.746H284.707V375.608c0-6.58-5.553-11.916-12.398-11.916h-97.115
		c-6.846,0-12.398,5.336-12.398,11.916v79.26c0,6.578,5.553,11.912,12.398,11.912s12.398-5.334,12.398-11.912V418.03
		c0,0,0.824-15.711,6.382-22.465c6.321-7.682,22.064-8.045,22.064-8.045h15.966c0,0,16.979,0.861,22.176,7.869
		c4.69,6.326,5.73,24.922,5.73,24.922v88.549H59.533c0,0-19.313-3.227-22.602-6.514c-2.892-2.893-7.174-18.986-7.174-23.074
		c0-53.148,0-180.488,0-235.736c0-16.295,2.434-20.415,5.339-26.319c3.315-6.739,18.461-18.331,18.461-18.331l122.33-94.22
		c0,0,25.907-19.633,47.862-19.633c19.255,0,41.213,14.514,43.172,16.022c47.7,36.737,155.463,119.737,155.463,119.737
		c5.342,4.116,13.145,3.287,17.426-1.847s3.422-12.632-1.922-16.748L243.029,52.114c-16.236-11.818-24.793-10.702-40.309,1.346
		L21.164,193.297C8.311,202.587,4.963,213.5,4.963,217.118v293.304c0,15.58,4.514,22.266,24.34,22.266h389.163
		c17.51,0,24.071-5.5,24.071-23.01V296.582C442.537,290.002,436.986,284.668,430.138,284.668z"/>
	<path fill="none" stroke="#FFFFFF" stroke-width="30" stroke-linejoin="round" stroke-miterlimit="10" d="M430.138,284.668
		c-6.846,0-12.398,5.336-12.398,11.914v188.193c0,0-3.49,12.08-7.748,16.338c-4.332,4.332-16.76,7.746-16.76,7.746H284.707V375.608
		c0-6.58-5.553-11.916-12.398-11.916h-97.115c-6.846,0-12.398,5.336-12.398,11.916v79.26c0,6.578,5.553,11.912,12.398,11.912
		s12.398-5.334,12.398-11.912V418.03c0,0,0.824-15.711,6.382-22.465c6.321-7.682,22.064-8.045,22.064-8.045h15.966
		c0,0,16.979,0.861,22.176,7.869c4.69,6.326,5.73,24.922,5.73,24.922v88.549H59.533c0,0-19.313-3.227-22.602-6.514
		c-2.892-2.893-7.174-18.986-7.174-23.074c0-53.148,0-180.488,0-235.736c0-16.295,2.434-20.415,5.339-26.319
		c3.315-6.739,18.461-18.331,18.461-18.331l122.33-94.22c0,0,25.907-19.633,47.862-19.633c19.255,0,41.213,14.514,43.172,16.022
		c47.7,36.737,155.463,119.737,155.463,119.737c5.342,4.116,13.145,3.287,17.426-1.847s3.422-12.632-1.922-16.748L243.029,52.114
		c-16.236-11.818-24.793-10.702-40.309,1.346L21.164,193.297C8.311,202.587,4.963,213.5,4.963,217.118v293.304
		c0,15.58,4.514,22.266,24.34,22.266h389.163c17.51,0,24.071-5.5,24.071-23.01V296.582
		C442.537,290.002,436.986,284.668,430.138,284.668z"/>
</g>
</svg>
