<?xml version="1.0" encoding="utf-8"?>
<!-- Generator: Adobe Illustrator 15.0.0, SVG Export Plug-In  -->
<!DOCTYPE svg PUBLIC "-//W3C//DTD SVG 1.1//EN" "http://www.w3.org/Graphics/SVG/1.1/DTD/svg11.dtd" [
	<!ENTITY ns_flows "http://ns.adobe.com/Flows/1.0/">
]>
<svg version="1.1"
	 xmlns="http://www.w3.org/2000/svg" xmlns:xlink="http://www.w3.org/1999/xlink" xmlns:a="http://ns.adobe.com/AdobeSVGViewerExtensions/3.0/"
	 x="0px" y="0px" width="453px" height="527px" viewBox="-0.214 -0.811 453 527" enable-background="new -0.214 -0.811 453 527"
	 xml:space="preserve">
<defs>
</defs>
<g>
	<path fill="#FFFFFF" d="M432.676,260.624c-6.846,0-6.846,0-6.846,0c-3.054,6.818-5.553,19.147-5.553,27.397v190.874
		c0,8.25-6.75,15-15,15H302.243c-8.25,0-15-6.75-15-15v-108.65c0-8.25-1.25-17.789-2.776-21.198
		c-1.527-3.41-16.372-6.199-24.622-6.199H192.73c-8.25,0-17.79,1.249-21.199,2.775c-3.41,1.527-6.199,16.372-6.199,24.622v79.939
		c0,8.25,2.499,20.579,5.553,27.397c0,0,0,0,6.846,0c6.845,0,6.845,0,6.845,0c3.054-6.818,5.553-19.147,5.553-27.397v-67.542
		c0-8.25,6.75-15,15-15h42.319c8.25,0,15,6.75,15,15v96.253c0,8.25-6.75,15-15,15H47.295c-8.25,0-15-6.75-15-15V205.44
		c0-8.25,5.267-19.221,11.705-24.38L206.901,50.511c6.438-5.159,14.054-10.495,16.925-11.856c0,0,0,0,2.46,0
		c2.51,0,5.876,1.032,7.835,2.602c47.701,38.225,179.094,143.525,179.094,143.525c6.438,5.159,14.663,10.15,18.278,11.09
		s11.624-6.589,12.565-10.204s-8.9-15.076-15.338-20.235L245.743,18.792c-6.438-5.159-14.175-10.198-17.193-11.196
		s-15.284,6.037-21.722,11.196L23.85,165.433c-6.438,5.159-12.75,10.71-14.027,12.335S7.5,191.238,7.5,199.488v291.803
		c0,8.25,1.249,17.79,2.775,21.199s16.373,6.199,24.623,6.199h382.778c8.25,0,17.79-1.249,21.199-2.776s6.199-16.372,6.199-24.622
		v-203.27c0-8.25-2.498-20.579-5.55-27.397C439.523,260.624,439.523,260.624,432.676,260.624z"/>
	<path fill="none" stroke="#FFFFFF" stroke-width="15" stroke-linejoin="round" stroke-miterlimit="10" d="M432.676,260.624
		c-6.846,0-6.846,0-6.846,0c-3.054,6.818-5.553,19.147-5.553,27.397v190.874c0,8.25-6.75,15-15,15H302.243c-8.25,0-15-6.75-15-15
		v-108.65c0-8.25-1.25-17.789-2.776-21.198c-1.527-3.41-16.372-6.199-24.622-6.199H192.73c-8.25,0-17.79,1.249-21.199,2.775
		c-3.41,1.527-6.199,16.372-6.199,24.622v79.939c0,8.25,2.499,20.579,5.553,27.397c0,0,0,0,6.846,0c6.845,0,6.845,0,6.845,0
		c3.054-6.818,5.553-19.147,5.553-27.397v-67.542c0-8.25,6.75-15,15-15h42.319c8.25,0,15,6.75,15,15v96.253c0,8.25-6.75,15-15,15
		H47.295c-8.25,0-15-6.75-15-15V205.44c0-8.25,5.267-19.221,11.705-24.38L206.901,50.511c6.438-5.159,14.054-10.495,16.925-11.856
		c0,0,0,0,2.46,0c2.51,0,5.876,1.032,7.835,2.602c47.701,38.225,179.094,143.525,179.094,143.525
		c6.438,5.159,14.663,10.15,18.278,11.09s11.624-6.589,12.565-10.204s-8.9-15.076-15.338-20.235L245.743,18.792
		c-6.438-5.159-14.175-10.198-17.193-11.196s-15.284,6.037-21.722,11.196L23.85,165.433c-6.438,5.159-12.75,10.71-14.027,12.335
		S7.5,191.238,7.5,199.488v291.803c0,8.25,1.249,17.79,2.775,21.199s16.373,6.199,24.623,6.199h382.778
		c8.25,0,17.79-1.249,21.199-2.776s6.199-16.372,6.199-24.622v-203.27c0-8.25-2.498-20.579-5.55-27.397
		C439.523,260.624,439.523,260.624,432.676,260.624z"/>
</g>
</svg>
