<?xml version="1.0" encoding="utf-8"?>
<!-- Generator: Adobe Illustrator 15.0.0, SVG Export Plug-In  -->
<!DOCTYPE svg PUBLIC "-//W3C//DTD SVG 1.1//EN" "http://www.w3.org/Graphics/SVG/1.1/DTD/svg11.dtd" [
	<!ENTITY ns_flows "http://ns.adobe.com/Flows/1.0/">
]>
<svg version="1.1"
	 xmlns="http://www.w3.org/2000/svg" xmlns:xlink="http://www.w3.org/1999/xlink" xmlns:a="http://ns.adobe.com/AdobeSVGViewerExtensions/3.0/"
	 x="0px" y="0px" width="633px" height="633px" viewBox="-5.901 -5.955 633 633" enable-background="new -5.901 -5.955 633 633"
	 xml:space="preserve">
<defs>
</defs>
<path fill="#FFFFFF" stroke="#FFFFFF" stroke-width="18" stroke-miterlimit="10" d="M167.96,162.688
	c-22.062,0-40.008,17.947-40.008,40.008c0,22.063,17.946,40.009,40.008,40.009s40.008-17.947,40.008-40.009
	C207.969,180.635,190.022,162.688,167.96,162.688z M167.96,221.831c-10.55,0-19.135-8.584-19.135-19.135
	c0-10.549,8.584-19.134,19.135-19.134s19.135,8.584,19.135,19.134C187.095,213.247,178.513,221.831,167.96,221.831z"/>
<path fill="#FFFFFF" stroke="#FFFFFF" stroke-width="18" stroke-miterlimit="10" d="M482.809,192.259H239.279
	c-5.762,0-10.437,4.674-10.437,10.437c0,5.764,4.675,10.437,10.437,10.437h243.529c5.763,0,10.438-4.673,10.438-10.437
	C493.246,196.933,488.574,192.259,482.809,192.259z"/>
<path fill="#FFFFFF" stroke="#FFFFFF" stroke-width="18" stroke-miterlimit="10" d="M167.96,270.537
	c-5.763,0-10.437,4.673-10.437,10.437s4.674,10.437,10.437,10.437c10.55,0,19.135,8.585,19.135,19.135
	c0,10.549-8.584,19.133-19.135,19.133s-19.135-8.584-19.135-19.133c0-5.763-4.673-10.438-10.437-10.438s-10.437,4.674-10.437,10.438
	c0,22.062,17.946,40.008,40.008,40.008s40.008-17.946,40.008-40.008C207.969,288.483,190.022,270.537,167.96,270.537z"/>
<path fill="#FFFFFF" stroke="#FFFFFF" stroke-width="18" stroke-miterlimit="10" d="M482.809,300.108H239.279
	c-5.762,0-10.437,4.674-10.437,10.438c0,5.764,4.675,10.437,10.437,10.437h243.529c5.763,0,10.438-4.673,10.438-10.437
	C493.246,304.782,488.574,300.108,482.809,300.108z"/>
<path fill="#FFFFFF" stroke="#FFFFFF" stroke-width="18" stroke-miterlimit="10" d="M167.96,378.385
	c-22.062,0-40.008,17.947-40.008,40.009s17.946,40.007,40.008,40.007s40.008-17.945,40.008-40.007S190.022,378.385,167.96,378.385z
	 M167.96,437.528c-10.55,0-19.135-8.585-19.135-19.134c0-10.55,8.584-19.136,19.135-19.136s19.135,8.586,19.135,19.136
	C187.095,428.943,178.513,437.528,167.96,437.528z"/>
<path fill="#FFFFFF" stroke="#FFFFFF" stroke-width="18" stroke-miterlimit="10" d="M482.809,407.956H239.279
	c-5.762,0-10.437,4.676-10.437,10.438s4.675,10.435,10.437,10.435h243.529c5.763,0,10.438-4.672,10.438-10.435
	S488.574,407.956,482.809,407.956z"/>
<path fill="#FFFFFF" stroke="#FFFFFF" stroke-width="22" stroke-miterlimit="10" d="M173.407,44.144
	c-40.676,20.972-76.594,51.56-103.872,88.446c-4.002,5.414-2.859,13.043,2.553,17.049c5.411,4.005,13.046,2.858,17.049-2.554
	c25.066-33.898,58.071-62.002,95.444-81.273c39.16-20.195,81.518-30.434,125.902-30.433c151.691,0,275.106,123.411,275.105,275.104
	c0,151.691-123.414,275.104-275.107,275.104c-151.693,0-275.105-123.411-275.103-275.103c-0.001-6.73-5.46-12.189-12.189-12.189
	c-6.73,0.001-12.188,5.459-12.189,12.189c0,165.134,134.347,299.48,299.481,299.48c165.134,0,299.479-134.348,299.479-299.481
	C609.961,145.346,475.617,11,310.481,11C262.856,11,215.456,22.462,173.407,44.144z"/>
</svg>
