<?xml version="1.0" encoding="utf-8"?>
<!-- Generator: Adobe Illustrator 15.0.0, SVG Export Plug-In  -->
<!DOCTYPE svg PUBLIC "-//W3C//DTD SVG 1.1//EN" "http://www.w3.org/Graphics/SVG/1.1/DTD/svg11.dtd" [
	<!ENTITY ns_flows "http://ns.adobe.com/Flows/1.0/">
]>
<svg version="1.1"
	 xmlns="http://www.w3.org/2000/svg" xmlns:xlink="http://www.w3.org/1999/xlink" xmlns:a="http://ns.adobe.com/AdobeSVGViewerExtensions/3.0/"
	 x="0px" y="0px" width="633px" height="633px" viewBox="-1.5 -1.5 633 633" enable-background="new -1.5 -1.5 633 633"
	 xml:space="preserve">
<defs>
</defs>
<path fill="#FFFFFF" stroke="#FFFFFF" stroke-width="18" stroke-miterlimit="10" d="M599.779,9H29.773C22.896,9,9,26.86,9,33.737
	v564.687c0,6.877,16.835,22.575,23.712,22.575h487.781c6.877,0,12.454-5.577,12.454-12.454c0-6.876-5.577-12.454-12.454-12.454
	H73.658c0,0-23.817-2.371-30.844-9.398c-7.334-7.334-8.906-32.092-8.906-32.092V73.306c0,0,6.886-21.092,13.851-28.057
	c6.646-6.646,23.741-11.34,23.741-11.34h484.892c0,0,24.296,0.116,31.313,7.134c6.837,6.837,8.387,31.544,8.387,31.544v535.958
	c0,6.877,5.578,12.454,12.454,12.454c6.877,0,12.454-5.577,12.454-12.454V28.579C621,18.646,610.296,9,599.779,9z"/>
<path fill="#FFFFFF" stroke="#FFFFFF" stroke-width="18" stroke-miterlimit="10" d="M145.611,138.566
	c-26.325,0-47.74,21.415-47.74,47.74c0,26.326,21.415,47.741,47.74,47.741c26.326,0,47.741-21.415,47.741-47.741
	C193.353,159.981,171.938,138.566,145.611,138.566z M145.611,209.14c-12.589,0-22.832-10.243-22.832-22.833
	c0-12.589,10.243-22.832,22.832-22.832c12.59,0,22.833,10.243,22.833,22.832C168.444,198.896,158.203,209.14,145.611,209.14z"/>
<path fill="#FFFFFF" stroke="#FFFFFF" stroke-width="18" stroke-miterlimit="10" d="M521.312,173.853H230.715
	c-6.877,0-12.454,5.578-12.454,12.454c0,6.877,5.577,12.454,12.454,12.454h290.597c6.877,0,12.454-5.577,12.454-12.454
	C533.766,179.431,528.19,173.853,521.312,173.853z"/>
<path fill="#FFFFFF" stroke="#FFFFFF" stroke-width="18" stroke-miterlimit="10" d="M145.611,267.259
	c-6.876,0-12.454,5.577-12.454,12.454s5.578,12.454,12.454,12.454c12.59,0,22.833,10.244,22.833,22.833
	s-10.243,22.832-22.833,22.832c-12.589,0-22.832-10.243-22.832-22.832c0-6.877-5.577-12.454-12.454-12.454
	S97.871,308.123,97.871,315c0,26.325,21.415,47.74,47.74,47.74c26.326,0,47.741-21.415,47.741-47.74
	C193.353,288.674,171.938,267.259,145.611,267.259z"/>
<path fill="#FFFFFF" stroke="#FFFFFF" stroke-width="18" stroke-miterlimit="10" d="M521.312,302.546H230.715
	c-6.877,0-12.454,5.577-12.454,12.454s5.577,12.454,12.454,12.454h290.597c6.877,0,12.454-5.577,12.454-12.454
	S528.19,302.546,521.312,302.546z"/>
<path fill="#FFFFFF" stroke="#FFFFFF" stroke-width="18" stroke-miterlimit="10" d="M145.611,395.951
	c-26.325,0-47.74,21.415-47.74,47.741s21.415,47.74,47.74,47.74c26.326,0,47.741-21.414,47.741-47.74
	S171.938,395.951,145.611,395.951z M145.611,466.524c-12.589,0-22.832-10.243-22.832-22.832s10.243-22.833,22.832-22.833
	c12.59,0,22.833,10.244,22.833,22.833S158.203,466.524,145.611,466.524z"/>
<path fill="#FFFFFF" stroke="#FFFFFF" stroke-width="18" stroke-miterlimit="10" d="M521.312,431.238H230.715
	c-6.877,0-12.454,5.577-12.454,12.454s5.577,12.454,12.454,12.454h290.597c6.877,0,12.454-5.577,12.454-12.454
	S528.19,431.238,521.312,431.238z"/>
</svg>
