<?xml version="1.0" encoding="utf-8"?>
<!-- Generator: Adobe Illustrator 15.0.0, SVG Export Plug-In  -->
<!DOCTYPE svg PUBLIC "-//W3C//DTD SVG 1.1//EN" "http://www.w3.org/Graphics/SVG/1.1/DTD/svg11.dtd" [
	<!ENTITY ns_flows "http://ns.adobe.com/Flows/1.0/">
]>
<svg version="1.1"
	 xmlns="http://www.w3.org/2000/svg" xmlns:xlink="http://www.w3.org/1999/xlink" xmlns:a="http://ns.adobe.com/AdobeSVGViewerExtensions/3.0/"
	 x="0px" y="0px" width="633px" height="633px" viewBox="-5.901 -5.955 633 633" enable-background="new -5.901 -5.955 633 633"
	 xml:space="preserve">
<defs>
</defs>
<path fill="#FFFFFF" stroke="#FFFFFF" stroke-width="20" stroke-miterlimit="10" d="M179.675,160.831
	c-20.25,0-36.722,16.474-36.722,36.722c0,20.251,16.472,36.724,36.722,36.724s36.723-16.473,36.723-36.724
	C216.397,177.304,199.925,160.831,179.675,160.831z M179.675,215.116c-9.684,0-17.563-7.879-17.563-17.563
	c0-9.683,7.879-17.562,17.563-17.562c9.684,0,17.563,7.879,17.563,17.562C197.238,207.237,189.36,215.116,179.675,215.116z"/>
<path fill="#FFFFFF" stroke="#FFFFFF" stroke-width="20" stroke-miterlimit="10" d="M475.666,187.974H252.137
	c-5.289,0-9.58,4.29-9.58,9.579c0,5.291,4.291,9.58,9.58,9.58h223.529c5.289,0,9.58-4.29,9.58-9.58
	C485.246,192.264,480.958,187.974,475.666,187.974z"/>
<path fill="#FFFFFF" stroke="#FFFFFF" stroke-width="20" stroke-miterlimit="10" d="M179.675,273.822c-5.29,0-9.58,4.29-9.58,9.58
	c0,5.29,4.291,9.58,9.58,9.58c9.684,0,17.563,7.88,17.563,17.564c0,9.683-7.88,17.562-17.563,17.562
	c-9.684,0-17.563-7.879-17.563-17.562c0-5.29-4.29-9.581-9.579-9.581c-5.29,0-9.58,4.291-9.58,9.581
	c0,20.25,16.472,36.722,36.722,36.722s36.723-16.472,36.723-36.722S199.925,273.822,179.675,273.822z"/>
<path fill="#FFFFFF" stroke="#FFFFFF" stroke-width="20" stroke-miterlimit="10" d="M514.907,299.352H253.75
	c-6.18,0-11.193,5.013-11.193,11.193s5.013,11.191,11.193,11.191h261.158c6.179,0,11.192-5.011,11.192-11.191
	S521.09,299.352,514.907,299.352z"/>
<path fill="#FFFFFF" stroke="#FFFFFF" stroke-width="20" stroke-miterlimit="10" d="M179.675,388.814
	c-20.25,0-36.722,16.473-36.722,36.723s16.472,36.722,36.722,36.722s36.723-16.472,36.723-36.722S199.925,388.814,179.675,388.814z
	 M179.675,443.099c-9.684,0-17.563-7.88-17.563-17.563c0-9.684,7.879-17.564,17.563-17.564c9.684,0,17.563,7.881,17.563,17.564
	C197.238,435.219,189.36,443.099,179.675,443.099z"/>
<path fill="#FFFFFF" stroke="#FFFFFF" stroke-width="20" stroke-miterlimit="10" d="M448.631,415.956H251.025
	c-4.675,0-8.469,4.292-8.469,9.581c0,5.29,3.793,9.578,8.469,9.578h197.605c4.676,0,8.469-4.288,8.469-9.578
	C457.1,420.248,453.309,415.956,448.631,415.956z"/>
<path fill="#FFFFFF" stroke="#FFFFFF" stroke-width="22" stroke-miterlimit="10" d="M173.407,44.144
	c-40.676,20.972-76.594,51.56-103.872,88.446c-4.002,5.414-2.859,13.043,2.553,17.049c5.411,4.005,13.046,2.858,17.049-2.554
	c25.066-33.898,58.071-62.002,95.444-81.273c39.16-20.195,81.518-30.434,125.902-30.433c151.691,0,275.106,123.411,275.105,275.104
	c0,151.691-123.414,275.104-275.107,275.104c-151.693,0-275.105-123.411-275.103-275.103c-0.001-6.73-5.46-12.189-12.189-12.189
	c-6.73,0.001-12.188,5.459-12.189,12.189c0,165.134,134.347,299.48,299.481,299.48c165.134,0,299.479-134.348,299.479-299.481
	C609.961,145.346,475.617,11,310.481,11C262.856,11,215.456,22.462,173.407,44.144z"/>
</svg>
