<?xml version="1.0" encoding="utf-8"?>
<!-- Generator: Adobe Illustrator 15.0.0, SVG Export Plug-In . SVG Version: 6.00 Build 0)  -->
<!DOCTYPE svg PUBLIC "-//W3C//DTD SVG 1.1//EN" "http://www.w3.org/Graphics/SVG/1.1/DTD/svg11.dtd">
<svg version="1.1" id="Layer_1" xmlns="http://www.w3.org/2000/svg" xmlns:xlink="http://www.w3.org/1999/xlink" x="0px" y="0px"
	 width="18px" height="18px" viewBox="0 0 18 18" enable-background="new 0 0 18 18" xml:space="preserve">
<title>7F7F5707-5DEA-499D-A462-EA77CE400766</title>
<desc>Created with sketchtool.</desc>
<g id="_x30_3.-Create-site">
	<g id="Create-Site-Wizard-V3" transform="translate(-536.000000, -978.000000)">
		<g id="STEP-1" transform="translate(300.000000, 846.000000)">
			<g id="_x33_-boxes" transform="translate(30.000000, 116.000000)">
				<g id="BOX-1">
					<defs>
						<filter id="Adobe_OpacityMaskFilter" filterUnits="userSpaceOnUse" x="205" y="15" width="20" height="20">
							<feColorMatrix  type="matrix" values="1 0 0 0 0  0 1 0 0 0  0 0 1 0 0  0 0 0 1 0"/>
						</filter>
					</defs>
					<mask maskUnits="userSpaceOnUse" x="205" y="15" width="20" height="20" id="mask-2">
						<g filter="url(#Adobe_OpacityMaskFilter)">
							<circle id="path-1" fill="#FFFFFF" cx="215" cy="25" r="9"/>
						</g>
					</mask>
					<g id="icon_info_outline" transform="translate(206.000000, 16.000000)" mask="url(#mask-2)">
						<g id="Oval-1">
							<circle id="path-1_1_" fill="#FFFFFF" stroke="#FFFFFF" stroke-width="2" cx="9" cy="9" r="9"/>
						</g>
						<path id="Path" fill="#FFFFFF" d="M9,5.249c0.751,0,1.361-0.609,1.361-1.36S9.752,2.528,9,2.528s-1.36,0.609-1.36,1.36
							S8.249,5.249,9,5.249"/>
						<path id="Path_1_" fill="#FFFFFF" d="M10.361,14.148v-6.16c0-0.751-0.609-1.36-1.361-1.36s-1.36,0.609-1.36,1.36v6.16
							c0,0.752,0.609,1.36,1.36,1.36S10.361,14.9,10.361,14.148"/>
					</g>
				</g>
			</g>
		</g>
	</g>
</g>
</svg>
