<?xml version="1.0" encoding="utf-8"?>
<!-- Generator: Adobe Illustrator 19.0.0, SVG Export Plug-In . SVG Version: 6.00 Build 0)  -->
<svg version="1.1" id="Lager_1" xmlns="http://www.w3.org/2000/svg" xmlns:xlink="http://www.w3.org/1999/xlink" x="0px" y="0px"
	 viewBox="0 0 595.3 841.9" style="enable-background:new 0 0 595.3 841.9;" xml:space="preserve">
<style type="text/css">
	.st0{fill:#E95226;}
	.st1{fill:url(#SVGID_1_);}
	.st2{fill:#F28A14;}
	.st3{fill:url(#SVGID_2_);}
	.st4{fill:#F9B213;}
	.st5{fill:url(#SVGID_3_);}
	.st6{fill:#FDD835;}
	.st7{fill:url(#SVGID_4_);}
	.st8{fill:#C0CA32;}
	.st9{fill:url(#SVGID_5_);}
	.st10{fill:#7CB340;}
	.st11{fill:url(#SVGID_6_);}
	.st12{fill:#42A046;}
	.st13{fill:url(#SVGID_7_);}
	.st14{fill:#00897B;}
	.st15{fill:url(#SVGID_8_);}
	.st16{fill:#00ACC1;}
</style>
<g>
	<rect x="-503" y="-179" class="st0" width="1600" height="1200"/>
	<radialGradient id="SVGID_1_" cx="297" cy="421" r="949.0048" gradientUnits="userSpaceOnUse">
		<stop  offset="0" style="stop-color:#263239"/>
		<stop  offset="1" style="stop-color:#263239;stop-opacity:0"/>
	</radialGradient>
	<path class="st1" d="M-424-179c-28.9,34.7-55.3,71.4-79,110V911c23.7,38.6,50.1,75.4,79,110h1442c28.9-34.7,55.3-71.4,79-110V-69
		c-23.7-38.6-50.1-75.4-79-110H-424z"/>
	<path class="st2" d="M-344-179c-65.2,69.6-119.1,149.8-159,237.7v724.6c39.9,87.9,93.9,168.1,159,237.7H938
		c65.2-69.6,119.1-149.8,159-237.7V58.7c-39.9-87.9-93.9-168.1-159-237.7H-344z"/>
	<radialGradient id="SVGID_2_" cx="297" cy="421" r="817.0055" gradientUnits="userSpaceOnUse">
		<stop  offset="0" style="stop-color:#263239"/>
		<stop  offset="1" style="stop-color:#263239;stop-opacity:0"/>
	</radialGradient>
	<path class="st3" d="M1097,275.4C1064.7,96.8,974.1-61.4,845.6-179H-251.6C-380.1-61.4-470.7,96.8-503,275.4v291.2
		c32.3,178.6,122.9,336.9,251.4,454.4H845.6c128.5-117.6,219.1-275.8,251.4-454.4V275.4z"/>
	<path class="st4" d="M-453,421c0,245.3,117.8,463.2,299.9,600h900.1C929.2,884.2,1047,666.3,1047,421S929.2-42.2,747.1-179h-900.1
		C-335.2-42.2-453,175.7-453,421z"/>
	<radialGradient id="SVGID_3_" cx="297" cy="421" r="685.0182" gradientUnits="userSpaceOnUse">
		<stop  offset="0" style="stop-color:#263239"/>
		<stop  offset="1" style="stop-color:#263239;stop-opacity:0"/>
	</radialGradient>
	<path class="st5" d="M-394,421c0,256.8,140.1,480.9,348,600h686c207.9-119.1,348-343.2,348-600S847.9-59.9,640-179H-46
		C-253.9-59.9-394,164.2-394,421z"/>
	<path class="st6" d="M-337,421c0,278.3,179.3,514.7,428.7,600h410.7C751.7,935.7,931,699.3,931,421S751.7-93.7,502.3-179H91.7
		C-157.7-93.7-337,142.7-337,421z"/>
	<radialGradient id="SVGID_4_" cx="297" cy="421" r="582.0776" gradientUnits="userSpaceOnUse">
		<stop  offset="0" style="stop-color:#263239"/>
		<stop  offset="1" style="stop-color:#263239;stop-opacity:0"/>
	</radialGradient>
	<circle class="st7" cx="297" cy="421" r="582.1"/>
	<circle class="st8" cx="297" cy="421" r="524.4"/>
	<radialGradient id="SVGID_5_" cx="297" cy="421" r="466.1043" gradientUnits="userSpaceOnUse">
		<stop  offset="0" style="stop-color:#263239"/>
		<stop  offset="1" style="stop-color:#263239;stop-opacity:0"/>
	</radialGradient>
	<circle class="st9" cx="297" cy="421" r="466.1"/>
	<circle class="st10" cx="297" cy="421" r="412.1"/>
	<radialGradient id="SVGID_6_" cx="297" cy="421" r="348.1038" gradientUnits="userSpaceOnUse">
		<stop  offset="0" style="stop-color:#263239"/>
		<stop  offset="1" style="stop-color:#263239;stop-opacity:0"/>
	</radialGradient>
	<circle class="st11" cx="297" cy="421" r="348.1"/>
	<circle class="st12" cx="297" cy="421" r="300.1"/>
	<radialGradient id="SVGID_7_" cx="297" cy="421" r="231.4908" gradientUnits="userSpaceOnUse">
		<stop  offset="0" style="stop-color:#263239"/>
		<stop  offset="1" style="stop-color:#263239;stop-opacity:0"/>
	</radialGradient>
	<circle class="st13" cx="297" cy="421" r="231.5"/>
	<circle class="st14" cx="297" cy="421" r="198.5"/>
	<radialGradient id="SVGID_8_" cx="297" cy="421" r="142.4911" gradientUnits="userSpaceOnUse">
		<stop  offset="0" style="stop-color:#263239"/>
		<stop  offset="1" style="stop-color:#263239;stop-opacity:0"/>
	</radialGradient>
	<circle class="st15" cx="297" cy="421" r="142.5"/>
	<circle class="st16" cx="297" cy="421" r="106.5"/>
</g>
</svg>
