<?xml version="1.0" encoding="utf-8"?>
<!-- Generator: Adobe Illustrator 19.0.0, SVG Export Plug-In . SVG Version: 6.00 Build 0)  -->
<svg version="1.1" id="Layer_1" xmlns="http://www.w3.org/2000/svg" xmlns:xlink="http://www.w3.org/1999/xlink" x="0px" y="0px"
	 viewBox="0 0 1600 900" style="enable-background:new 0 0 1600 900;" xml:space="preserve">
<style type="text/css">
	.st0{clip-path:url(#SVGID_2_);}
	.st1{fill:#9E9D24;}
	.st2{fill:#D4E157;}
	.st3{clip-path:url(#SVGID_2_);fill:url(#SVGID_3_);}
	.st4{clip-path:url(#SVGID_2_);fill:#FDD835;}
	.st5{clip-path:url(#SVGID_2_);fill:url(#SVGID_4_);}
	.st6{clip-path:url(#SVGID_2_);fill:#FFA000;}
	.st7{clip-path:url(#SVGID_2_);fill:url(#SVGID_5_);}
	.st8{clip-path:url(#SVGID_2_);fill:#EF6C00;}
	.st9{clip-path:url(#SVGID_2_);fill:url(#SVGID_6_);}
	.st10{clip-path:url(#SVGID_2_);fill:#BF360C;}
	.st11{clip-path:url(#SVGID_2_);fill:url(#SVGID_7_);}
	.st12{clip-path:url(#SVGID_2_);fill:#B71C1C;}
	.st13{clip-path:url(#SVGID_2_);fill:url(#SVGID_8_);}
	.st14{clip-path:url(#SVGID_2_);fill:#AD1457;}
</style>
<defs>
	<rect id="SVGID_1_" width="1600" height="900"/>
</defs>
<clipPath id="SVGID_2_">
	<use xlink:href="#SVGID_1_"  style="overflow:visible;"/>
</clipPath>
<g class="st0">
	
		<rect x="-511.3" y="-8.3" transform="matrix(-0.7071 0.7071 -0.7071 -0.7071 355.6747 858.6747)" class="st1" width="1022.5" height="1022.5"/>
	
		<rect x="-274.6" y="-0.2" transform="matrix(-0.7556 0.6551 -0.6551 -0.7556 730.7773 733.311)" class="st2" width="1006.4" height="1006.4"/>
	
		<rect x="-511.3" y="71" transform="matrix(-0.7071 0.7071 -0.7071 -0.7071 411.7548 994.0641)" class="st1" width="1022.5" height="1022.5"/>
	
		<rect x="-274.6" y="79.1" transform="matrix(-0.7556 0.6551 -0.6551 -0.7556 782.7316 872.5428)" class="st2" width="1006.4" height="1006.4"/>
</g>
<linearGradient id="SVGID_3_" gradientUnits="userSpaceOnUse" x1="1193.1162" y1="202.735" x2="-44.461" y2="841.0087">
	<stop  offset="0" style="stop-color:#000000"/>
	<stop  offset="0.8501" style="stop-color:#000000;stop-opacity:0.1413"/>
	<stop  offset="0.99" style="stop-color:#000000;stop-opacity:0"/>
	<stop  offset="0.9927" style="stop-color:#000000;stop-opacity:0"/>
</linearGradient>
<polygon class="st3" points="-239.5,481.2 558.3,-114.3 1153.7,683.4 356,1278.9 "/>
<rect x="-40.6" y="5.3" transform="matrix(-0.8013 0.5982 -0.5982 -0.8013 1124.3676 632.6141)" class="st4" width="995.5" height="995.5"/>
<linearGradient id="SVGID_4_" gradientUnits="userSpaceOnUse" x1="1376.8153" y1="225.8776" x2="214.6933" y2="825.2358">
	<stop  offset="0" style="stop-color:#000000"/>
	<stop  offset="0.8501" style="stop-color:#000000;stop-opacity:0.1413"/>
	<stop  offset="0.99" style="stop-color:#000000;stop-opacity:0"/>
	<stop  offset="0.9927" style="stop-color:#000000;stop-opacity:0"/>
</linearGradient>
<polygon class="st5" points="2.3,430.6 837.4,-101.1 1369.1,734 534,1265.7 "/>
<rect x="190.7" y="8" transform="matrix(-0.8435 0.5371 -0.5371 -0.8435 1534.2886 558.9888)" class="st6" width="990" height="990"/>
<linearGradient id="SVGID_5_" gradientUnits="userSpaceOnUse" x1="1588.8944" y1="290.2983" x2="432.4186" y2="790.8901">
	<stop  offset="0" style="stop-color:#000000"/>
	<stop  offset="0.8501" style="stop-color:#000000;stop-opacity:0.1413"/>
	<stop  offset="0.99" style="stop-color:#000000;stop-opacity:0"/>
	<stop  offset="0.9927" style="stop-color:#000000;stop-opacity:0"/>
</linearGradient>
<polygon class="st7" points="244.1,380.1 1116.5,-87.9 1584.4,784.5 712.1,1252.5 "/>
<rect x="419.3" y="8" transform="matrix(-0.8812 0.4727 -0.4727 -0.8812 1957.7435 514.0927)" class="st8" width="990" height="990"/>
<linearGradient id="SVGID_6_" gradientUnits="userSpaceOnUse" x1="1807.9799" y1="360.68" x2="611.0846" y2="759.5042">
	<stop  offset="0" style="stop-color:#000000"/>
	<stop  offset="0.8501" style="stop-color:#000000;stop-opacity:0.1413"/>
	<stop  offset="0.99" style="stop-color:#000000;stop-opacity:0"/>
	<stop  offset="0.9927" style="stop-color:#000000;stop-opacity:0"/>
</linearGradient>
<polygon class="st9" points="485.9,329.5 1395.6,-74.6 1799.8,835.1 890.1,1239.3 "/>
<rect x="645.1" y="5.3" transform="matrix(-0.9139 0.406 -0.406 -0.9139 2391.5015 498.6702)" class="st10" width="995.5" height="995.5"/>
<linearGradient id="SVGID_7_" gradientUnits="userSpaceOnUse" x1="2011.1899" y1="392.2098" x2="860.5524" y2="734.1116">
	<stop  offset="0" style="stop-color:#000000"/>
	<stop  offset="0.8501" style="stop-color:#000000;stop-opacity:0.1413"/>
	<stop  offset="0.99" style="stop-color:#000000;stop-opacity:0"/>
	<stop  offset="0.9927" style="stop-color:#000000;stop-opacity:0"/>
</linearGradient>
<polygon class="st11" points="727.7,279 1674.8,-61.4 2015.2,885.6 1068.1,1226 "/>
<rect x="868.2" y="-0.2" transform="matrix(-0.9411 0.3382 -0.3382 -0.9411 2832.1597 512.4918)" class="st12" width="1006.4" height="1006.4"/>
<linearGradient id="SVGID_8_" gradientUnits="userSpaceOnUse" x1="2225.489" y1="396.4507" x2="1100.5209" y2="730.7251">
	<stop  offset="0" style="stop-color:#000000"/>
	<stop  offset="0.8501" style="stop-color:#000000;stop-opacity:0.1413"/>
	<stop  offset="0.99" style="stop-color:#000000;stop-opacity:0"/>
	<stop  offset="0.9927" style="stop-color:#000000;stop-opacity:0"/>
</linearGradient>
<polygon class="st13" points="969.5,228.4 1953.9,-48.2 2230.5,936.2 1246.1,1212.8 "/>
<rect x="1088.7" y="-8.3" transform="matrix(-0.9627 0.2705 -0.2705 -0.9627 3276.4146 554.4107)" class="st14" width="1022.5" height="1022.5"/>
</svg>
