<?xml version="1.0" encoding="utf-8"?>
<!-- Generator: Adobe Illustrator 19.0.0, SVG Export Plug-In . SVG Version: 6.00 Build 0)  -->
<svg version="1.1" id="Layer_1" xmlns="http://www.w3.org/2000/svg" xmlns:xlink="http://www.w3.org/1999/xlink" x="0px" y="0px"
	 width="1600px" height="900px" viewBox="0 0 1600 900" enable-background="new 0 0 1600 900" xml:space="preserve">
<g>
	
		<rect x="-303.158" y="-700.402" transform="matrix(-0.2515 -0.9679 0.9679 -0.2515 541.8829 734.626)" fill="#FFCDD2" width="1716.346" height="1716.346"/>
</g>
<linearGradient id="SVGID_1_" gradientUnits="userSpaceOnUse" x1="550.3257" y1="399.0025" x2="-744.8591" y2="802.0272">
	<stop  offset="0" style="stop-color:#B71C1C"/>
	<stop  offset="0.4954" style="stop-color:#B71C1C;stop-opacity:0"/>
</linearGradient>
<polygon fill="url(#SVGID_1_)" points="1251.035,-605.217 1660.781,897.494 158.07,1307.24 -251.675,-195.471 "/>
<rect x="-46.234" y="-524.395" transform="matrix(-0.2631 -0.9648 0.9648 -0.2631 679.8316 1028.0635)" fill="#EF9A9A" width="1557.572" height="1557.572"/>
<linearGradient id="SVGID_2_" gradientUnits="userSpaceOnUse" x1="793.3355" y1="640.4677" x2="-373.8726" y2="925.7543">
	<stop  offset="0" style="stop-color:#B71C1C"/>
	<stop  offset="0.4954" style="stop-color:#B71C1C;stop-opacity:0"/>
</linearGradient>
<polygon fill="url(#SVGID_2_)" points="1409.89,-259.412 1797.775,1084.817 453.545,1472.701 65.661,128.472 "/>
<rect x="210.553" y="-348.525" transform="matrix(-0.2772 -0.9608 0.9608 -0.2772 825.1545 1322.7408)" fill="#E57373" width="1399.073" height="1399.073"/>
<linearGradient id="SVGID_3_" gradientUnits="userSpaceOnUse" x1="967.1202" y1="637.9023" x2="-46.0439" y2="900.7036">
	<stop  offset="0" style="stop-color:#B71C1C"/>
	<stop  offset="0.5255" style="stop-color:#B71C1C;stop-opacity:0"/>
</linearGradient>
<polygon fill="url(#SVGID_3_)" points="1497.489,-169.241 1863.512,1016.507 677.764,1382.53 311.741,196.782 "/>
<rect x="467.149" y="-172.846" transform="matrix(-0.295 -0.9555 0.9555 -0.295 980.7079 1618.9019)" fill="#EF5350" width="1240.956" height="1240.956"/>
<linearGradient id="SVGID_4_" gradientUnits="userSpaceOnUse" x1="1133.4298" y1="678.7896" x2="297.4648" y2="996.6144">
	<stop  offset="0" style="stop-color:#B71C1C"/>
	<stop  offset="0.5255" style="stop-color:#B71C1C;stop-opacity:0"/>
</linearGradient>
<polygon fill="url(#SVGID_4_)" points="1574.715,-44.842 1918.878,982.424 891.612,1326.586 547.449,299.32 "/>
<rect x="723.471" y="2.559" transform="matrix(-0.3177 -0.9482 0.9482 -0.3177 1151.0127 1916.7744)" fill="#E53935" width="1083.385" height="1083.385"/>
<linearGradient id="SVGID_5_" gradientUnits="userSpaceOnUse" x1="1333.9563" y1="752.7793" x2="640.3961" y2="1016.4634">
	<stop  offset="0" style="stop-color:#4A148C"/>
	<stop  offset="0.5255" style="stop-color:#4A148C;stop-opacity:0"/>
</linearGradient>
<polygon fill="url(#SVGID_5_)" points="1689.942,125.778 2012.244,994.562 1143.459,1316.864 821.157,448.079 "/>
<rect x="979.38" y="177.551" transform="matrix(-0.3478 -0.9376 0.9376 -0.3478 1343.6389 2216.3999)" fill="#D32F2F" width="926.642" height="926.642"/>
<linearGradient id="SVGID_6_" gradientUnits="userSpaceOnUse" x1="1540.9972" y1="829.1581" x2="1008.184" y2="1092.7488">
	<stop  offset="0" style="stop-color:#4A148C"/>
	<stop  offset="0.5255" style="stop-color:#4A148C;stop-opacity:0"/>
</linearGradient>
<polygon fill="url(#SVGID_6_)" points="1809.937,292.12 2110.378,1002.423 1400.075,1302.864 1099.634,592.561 "/>
<rect x="1234.623" y="351.877" transform="matrix(-0.3896 -0.921 0.921 -0.3896 1572.1881 2517.03)" fill="#C62828" width="771.23" height="771.23"/>
<linearGradient id="SVGID_7_" gradientUnits="userSpaceOnUse" x1="1771.0115" y1="925.5145" x2="1296.6787" y2="1160.1741">
	<stop  offset="0" style="stop-color:#4A148C"/>
	<stop  offset="0.5255" style="stop-color:#4A148C;stop-opacity:0"/>
</linearGradient>
<polygon fill="url(#SVGID_7_)" points="2006.448,404.029 2331.028,1046.97 1688.087,1371.551 1363.507,728.609 "/>
<rect x="1488.698" y="525.035" transform="matrix(-0.4507 -0.8927 0.8927 -0.4507 1863.3621 2814.8784)" fill="#B71C1C" width="618.153" height="618.153"/>
</svg>
