<?xml version="1.0" encoding="utf-8"?>
<!-- Generator: Adobe Illustrator 19.0.0, SVG Export Plug-In . SVG Version: 6.00 Build 0)  -->
<svg version="1.1" id="Lager_1" xmlns="http://www.w3.org/2000/svg" xmlns:xlink="http://www.w3.org/1999/xlink" x="0px" y="0px"
	 viewBox="0 0 595.28 841.89" style="enable-background:new 0 0 595.28 841.89;" xml:space="preserve">
<g id="XMLID_1_">
	<path id="XMLID_3_" d="M160.788,231.938c0.661,0.092,1.44,0.329,2.336,0.71c2.341,1.661,3.618,2.726,3.833,3.195
		c0.764,0.543,2.282,2.735,4.555,6.576c0.162,0.354,0.523,0.843,1.082,1.463c1.197,2.167,2.324,3.954,3.38,5.361
		c1.258,2.26,2.239,3.916,2.943,4.968c0.362,0.229,0.674,0.628,0.935,1.197c0.357,0.369,1.344,1.773,2.958,4.213
		c0.64,0.498,1.005,0.846,1.097,1.045c0.286,0.625-0.188,1.392-1.422,2.3l-0.256,0.117c-0.824,0.377-1.686,0.222-2.585-0.467
		c-0.667-0.107-1.956-1.271-3.864-3.49c-0.984-1.25-1.545-2.024-1.682-2.323l-0.205-0.447c-0.42-0.581-0.92-1.28-1.501-2.097
		c-0.078,0.053-0.16,0.1-0.245,0.138c-1.8,0.875-3.321,1.605-4.565,2.191c1.47,3.813,2.464,6.794,2.984,8.944
		c-0.183,0.84-0.58,1.399-1.191,1.679c-1.022,0.468-1.729,0.276-2.119-0.577l-0.117-0.255c-0.11-0.843-0.234-1.508-0.371-1.995
		c-0.058-0.163-0.11-0.336-0.161-0.52l-0.048-0.106c-0.007-0.014-0.006-0.032,0.002-0.052c-0.435-1.4-1.029-3.413-1.784-6.04
		l-3.019-9.753c0.113-0.052,0.105-0.22-0.024-0.504l-0.273-0.597c-0.289-0.933-0.596-1.978-0.919-3.136l0.073-0.008
		c-0.506-2.534-1.008-4.496-1.506-5.883c-0.432-1.469-0.555-2.34-0.371-2.614c-0.217-0.176-0.365-0.348-0.443-0.519
		c-0.565-1.236-0.495-2.059,0.211-2.468C159.207,231.88,159.969,231.798,160.788,231.938z M163.122,243.01l0.042-0.02
		c0.151,0.481,0.309,1.01,0.47,1.589c-0.041,0.173,0.434,1.812,1.425,4.916c0.165,1.264,0.684,2.849,1.555,4.752l0.078,0.17
		c1.776-0.813,3.181-1.498,4.214-2.056c-0.573-0.803-1.085-1.695-1.533-2.675c-2.152-3.053-4.346-6.345-6.58-9.876
		c-0.071,0.032-0.3-0.207-0.688-0.716c0.246,0.764,0.533,1.56,0.861,2.39C162.946,241.63,162.998,242.139,163.122,243.01z"/>
	<path id="XMLID_6_" d="M178.447,226.257c0.183,0.774,0.464,1.746,0.843,2.913c-0.03,0.083,0.134,0.592,0.493,1.527
		c0.162,0.355,1.747,4.759,4.755,13.211c0.277,0.681,0.578,1.394,0.901,2.139c0.599,1.308,1.309,2.692,2.133,4.154
		c-0.501-1.283-0.877-3.173-1.126-5.671c-0.267-1.562-0.374-3.128-0.319-4.699c-0.131-0.473-0.144-0.914-0.038-1.323
		c0.023-4.118,0.966-6.602,2.827-7.454c1.15-0.526,2.602,0.391,4.352,2.751l1.931,4.22c0.851,2.498,1.312,3.937,1.382,4.316
		c0.274,1.575,0.334,3.077,0.18,4.506c0.071,0.156,0.012,0.699-0.182,1.629c0.064,1.757-0.052,3.305-0.35,4.645
		c-0.237,0.796-0.661,1.411-1.271,1.844c-0.003,0.104-0.011,0.219-0.022,0.345c-0.291,0.34-0.536,0.555-0.735,0.646l-0.085,0.039
		c-0.835,0.279-1.401,0.091-1.701-0.562c-0.143-0.313,0.086-1.242,0.684-2.787c-0.064-0.143-0.058-0.729,0.02-1.762
		c-0.022-0.574-0.008-1.07,0.041-1.487c-0.271-2.848-0.877-5.656-1.816-8.422l-0.702-1.535c-1.048-1.651-1.636-2.448-1.763-2.389
		c-0.186,0.085-0.352,0.246-0.5,0.486c-0.45,2.096-0.509,3.695-0.176,4.797c-0.078,1.221,0.062,2.24,0.418,3.057
		c0.241,3.343,0.897,6.187,1.971,8.531c0.432,0.645,0.759,1.208,0.979,1.691l0.078,0.17c0.275,0.716-0.044,1.352-0.957,1.907
		c-0.547,0.233-1.061,0.236-1.542,0.01c-0.463,0.04-1.195-0.433-2.195-1.418c-1.408-1.35-2.626-2.734-3.653-4.154
		c-0.206-0.301-0.426-0.647-0.656-1.04c-0.336-0.396-0.689-0.905-1.06-1.525c-0.331-0.313-0.781-1.069-1.348-2.271l-1.014-2.217
		l-1.634-4.922l-0.155-0.341c-0.124-0.27-0.282-0.541-0.476-0.813c-0.266-1.03-0.683-2.317-1.251-3.86
		c-0.398-1.623-0.848-3.204-1.346-4.745c-0.408-2.769-0.531-4.466-0.37-5.089c0.28-1.228,0.839-2.034,1.678-2.417
		c0.824-0.377,1.705,0.044,2.642,1.266C178.483,225.02,178.528,225.721,178.447,226.257z"/>
	<path id="XMLID_8_" d="M213.57,236.271c0.327,1.277,0.542,2.725,0.647,4.344c0.312,0.682,0.181,2.048-0.394,4.098
		c0.156,0.341-0.207,1.125-1.088,2.354c-0.347,0.295-0.661,0.509-0.945,0.639l-0.341,0.156c-1.502,0.549-2.616,0.817-3.343,0.807
		c-1.614-0.224-2.499-0.506-2.655-0.847c-0.7-0.178-1.636-1.021-2.808-2.53c-0.373-0.517-0.69-1.059-0.95-1.627l-1.599-3.496
		l-0.81-0.867c0.012-0.727-0.393-1.985-1.212-3.776c-0.062-1.037-0.281-1.967-0.658-2.792c-0.318-1.71-0.072-2.75,0.737-3.121
		l-0.39-0.853c-0.403-0.881-0.404-2.083-0.002-3.607c0.143-0.478,0.545-1.177,1.206-2.098c0.126-0.401,0.601-0.791,1.425-1.167
		l0.938-0.429c1.535-0.702,3.677-0.376,6.426,0.978c0.848,0.798,1.332,1.332,1.456,1.603l2.223,4.859L213.57,236.271z
		 M209.242,230.416c-0.784-1.376-1.366-2.347-1.744-2.913c-0.114,0.052-0.667-0.555-1.657-1.819
		c-2.121-0.954-3.593-1.243-4.417-0.866l-0.853,0.39c-0.412,0.188-0.644,0.81-0.694,1.864c-0.041,0.362-0.021,0.628,0.057,0.799
		l0.429,0.938c1.433,0.238,2.356,0.718,2.771,1.438c0.04,0.051,0.077,0.111,0.109,0.182c0.363,0.831,0.792,2.576,1.287,5.236
		c0.299,0.653,1.126,2.612,2.481,5.875c0.648,0.442,1.217,1.007,1.703,1.695c0.57,0.307,1.237,0.413,2.003,0.321l0.256-0.117
		c-0.032-0.071,0.15-0.499,0.548-1.281c0.123-0.332,0.174-0.973,0.15-1.925c0.199-0.091,0.119-1.017-0.24-2.777
		C211.193,236.482,210.463,234.136,209.242,230.416z"/>
	<path id="XMLID_11_" d="M213.299,220.184c-0.006-0.049-0.021-0.103-0.047-0.159c0.005-0.965,0.363-1.609,1.074-1.935
		c1.875-0.858,3.221-0.545,4.036,0.937l0.156,0.342c0.588,1.999,1.12,3.989,1.597,5.97c0.443,1.757,1.279,4.26,2.51,7.512
		c0.242,0.68,0.5,1.318,0.772,1.915c0.39,0.853,0.812,1.622,1.263,2.309c0.173,0.265,0.322,0.368,0.451,0.309
		c0.535-1.121,0.522-3.177-0.039-6.168c-0.039-1.099-0.678-3.659-1.915-7.681c-0.498-1.576-0.91-2.908-1.236-3.996
		c-0.347-3.089-0.044-4.98,0.909-5.674c0.356-0.197,0.717-0.388,1.079-0.571c1.118-0.374,1.833-0.22,2.145,0.462l0.234,0.512
		c0.122,0.717,0.472,1.932,1.049,3.645c-0.058,0.026-0.033,0.152,0.07,0.38l0.117,0.256c0.198,0.132,0.358,0.334,0.482,0.604
		c1.077,3.407,1.983,5.914,2.719,7.519l1.092,2.387c0.489,0.618,1.128,1.563,1.916,2.834c0.196,0.392,0.986,0.993,2.37,1.803
		l0.117,0.256c0.168,0.816-0.146,1.407-0.942,1.771c-0.554,0.253-1.536,0.359-2.947,0.317c-2.236-1.057-3.754-2.234-4.556-3.535
		l-0.037,1.667c-0.003,1.118-0.088,2.342-0.252,3.672c-0.481,1.389-1.057,2.236-1.725,2.541l-1.278,0.585
		c-1.052,0.481-2.214,0.12-3.486-1.085c-0.228-0.309-0.43-0.62-0.607-0.934c-0.42-0.392-0.873-0.949-1.358-1.672
		c-0.193-0.048-0.448-0.379-0.762-0.991c-0.553-1.208-1.258-2.672-2.114-4.394c-1.568-4.18-2.353-6.57-2.353-7.171
		C213.358,222.587,213.191,221.075,213.299,220.184z"/>
	<path id="XMLID_13_" d="M238.455,206.664c0.336-0.429,0.597-0.686,0.781-0.77l0.427-0.195c0.085-0.039,0.333,0.054,0.745,0.278
		l0.234,0.511c0.307,0.822,0.053,1.569-0.765,2.244s-1.467,1.122-1.95,1.343l0.234,0.512c0.193,0.874,0.639,2.337,1.338,4.389
		c0.568,1.732,1.305,3.586,2.209,5.562c0.718,1.682,1.265,2.935,1.642,3.759c0.175,0.23,0.339,0.516,0.495,0.856
		c0.325,0.71,1.134,1.577,2.428,2.601c0.953,0.319,2.091,0.177,3.412-0.427c0.535,0.116,0.902,0.395,1.104,0.835
		c0.338,0.739-0.365,1.68-2.111,2.822l-0.511,0.234c-2.757,1.261-5.085,1.055-6.985-0.619c-0.988-0.51-1.691-1.219-2.107-2.128
		c-0.189,0.035-0.912-1.318-2.166-4.061c-0.43-0.938-1.54-3.401-3.332-7.394c-0.208-0.454-0.523-1.444-0.946-2.969l-0.426,0.195
		c-1.023,0.468-1.703,0.333-2.042-0.406l-0.163-0.131c-0.169-0.369-0.036-0.98,0.399-1.832c0.539-0.436,1.043-0.838,1.51-1.207
		c-0.566-1.614-1.004-3.097-1.314-4.45c-0.262-0.911-0.523-2.235-0.785-3.971c-0.158-1.921-0.08-2.954,0.232-3.097
		c0.602-0.825,0.953-1.26,1.053-1.306c0.937-0.205,1.558,0.026,1.863,0.694c0.156-0.072,0.587,0.419,1.292,1.471
		c1.715,4.198,2.604,6.746,2.672,7.644C237.794,207.079,238.305,206.75,238.455,206.664z"/>
	<path id="XMLID_15_" d="M284.597,216.2c-0.107,0.066-0.222,0.136-0.343,0.208c-0.654,0.299-1.716-0.144-3.185-1.327
		c-0.603-1.167-1.073-2.12-1.411-2.859l-1.638-3.58c-0.033-0.071-0.233-0.358-0.601-0.86l-2.066-4.518l-0.086,0.039
		c0.125,1.662,0.178,2.978,0.157,3.949c-0.012,2.377,0.066,3.75,0.235,4.12c-0.244,1.606-0.103,3.569,0.426,5.888
		c-0.06,0.095-0.074,0.514-0.044,1.257c-0.355,0.575-0.675,0.927-0.959,1.057c-0.952,0.436-1.809,0.14-2.57-0.885
		c-0.347-0.306-0.575-0.58-0.686-0.821l-1.56-3.41c-0.221-0.483-0.521-1.514-0.9-3.094c-0.357-0.781-1.377-3.235-3.059-7.363
		l-0.039-0.085c-0.17-0.37-0.458-0.925-0.865-1.666l-0.086,0.039c0.625,1.741,0.957,3.067,0.995,3.978
		c-0.142,0.065-0.037,0.67,0.315,1.815c-0.092,1.64,0.078,3.589,0.511,5.849c-0.054,0.145,0.028,1.001,0.246,2.567
		c-0.099,0.045-0.019,0.971,0.239,2.777c-0.18,1.595-0.661,2.571-1.443,2.929c-0.738,0.338-1.637,0.027-2.694-0.932
		c-0.731-1.298-1.347-2.494-1.848-3.588c-0.479-1.087-0.67-1.652-0.57-1.698c-0.362-0.642-0.611-1.112-0.748-1.411l-3.12-6.82
		c-0.11-0.242-0.226-0.567-0.344-0.977c-0.67-0.862-1.277-1.89-1.823-3.083l-0.507-1.108c-0.34-1.494-0.084-2.436,0.769-2.826
		c0.768-0.351,1.62-0.363,2.561-0.038c0.901,0.619,1.677,1.638,2.327,3.059c0.17-0.078,0.941,1.082,2.313,3.478
		c0.114-0.052,0.301,0.207,0.561,0.775l0.819,1.79c0.091,0.199,0.18,0.468,0.266,0.806l0.039,0.085l0.085-0.039
		c0.027-0.992-0.117-2.06-0.435-3.203c0.247-0.25,0.006-1.377-0.722-3.381c-0.354-2.726-0.556-4.145-0.607-4.259
		c0.166-1.588,0.676-2.577,1.528-2.968l0.427-0.194c1.678-0.39,2.679-0.229,3.004,0.481c0.351,0.166,1.243,1.441,2.678,3.826
		l0.664,1.449c0.066,0.897,0.782,2.838,2.147,5.822l0.039,0.085l0.085-0.039c0.027-0.992-0.029-2.168-0.172-3.53
		c0.178-0.665,0.035-2.628-0.426-5.888c0.191-1.874,0.563-2.938,1.118-3.191c0.204-0.644,0.668-1.131,1.393-1.462
		c1.478-0.676,3.022,0.748,4.635,4.272l3.003,6.564c0.703,2.136,1.158,3.619,1.367,4.452c0.074,0.086,0.15,0.18,0.231,0.28
		c0.392,1.006,0.623,1.588,0.694,1.744c0.805,0.818,1.447,1.623,1.931,2.416c0.321,1.641,0.033,2.665-0.862,3.075l-0.256,0.117
		C285.276,216.353,284.898,216.371,284.597,216.2z"/>
	<path id="XMLID_17_" d="M290.52,199.907l0.049,0.106c-0.1,0.046,0.064,0.555,0.492,1.527l0.43,0.938
		c0.89,1.345,1.709,2.311,2.458,2.896c0.208,0.455,0.977,0.482,2.305,0.08c0.642-0.551,1.002-1.266,1.081-2.144
		c0.363-1.386,0.839-2.223,1.43-2.51c0.142-0.064,0.294-0.108,0.455-0.131c0.273-0.004,0.472,0.128,0.595,0.398
		c0.226,0.533,0.143,1.628-0.25,3.285c-0.303,1.479-1.089,2.766-2.356,3.861c-0.56,0.394-0.932,0.632-1.116,0.717l-1.833,0.838
		c-1.592,0.728-3.253,0.251-4.984-1.431c-1.4-1.559-2.491-3.19-3.271-4.896c-0.84-1.987-1.311-3.318-1.413-3.993l-0.507-1.107
		c-0.396-0.867-0.669-3.114-0.816-6.741l0.745-3.33c0.508-0.73,1.316-1.479,2.427-2.244c-0.053-0.114,0.234-0.314,0.859-0.6
		c1.592-0.728,2.701-0.857,3.328-0.388c0.341-0.156,1.072,0.541,2.193,2.09l0.545,1.193c0.604,1.769,0.736,4.011,0.396,6.726
		c-0.323,0.87-1.14,2.24-2.449,4.11C291.021,199.428,290.758,199.678,290.52,199.907z M289.6,187.982
		c-0.059-0.128-0.302-0.36-0.73-0.697l-0.853,0.39c-0.22,3.125,0.15,5.739,1.112,7.842c-0.008,0.244,0.166,0.887,0.521,1.927
		c0.613-0.762,0.975-1.512,1.085-2.249c0.582-1.882,0.516-3.604-0.199-5.167L289.6,187.982z"/>
</g>
<g id="XMLID_2_">
</g>
<g id="XMLID_20_">
</g>
<g id="XMLID_21_">
</g>
<g id="XMLID_22_">
</g>
<g id="XMLID_23_">
</g>
<g id="XMLID_24_">
</g>
</svg>
